<?xml version="1.0" encoding="utf-8"?>
<!-- Generator: Adobe Illustrator 16.0.0, SVG Export Plug-In . SVG Version: 6.00 Build 0)  -->
<!DOCTYPE svg PUBLIC "-//W3C//DTD SVG 1.1//EN" "http://www.w3.org/Graphics/SVG/1.1/DTD/svg11.dtd">
<svg version="1.1" id="Layer_2" xmlns="http://www.w3.org/2000/svg" xmlns:xlink="http://www.w3.org/1999/xlink" x="0px" y="0px"
	 width="728.5px" height="1031.811px" viewBox="0 0 728.5 1031.811" enable-background="new 0 0 728.5 1031.811"
	 xml:space="preserve">
<polygon fill="#FFFFFF" points="336.977,813.94 336.977,813.94 337.674,813.94 337.674,813.247 "/>
<polygon fill="#FFFFFF" points="391.138,813.94 391.138,813.247 390.437,813.247 390.437,813.94 "/>
<path fill="#1AD5BB" d="M710.645,470.068c0,194.627-156.145,352.401-348.752,352.401c-192.614,0-348.759-157.774-348.759-352.401
	c0-194.624,156.145-352.396,348.759-352.396C554.5,117.672,710.645,275.445,710.645,470.068"/>
<path fill="#FCD7C7" d="M235.51,770.859c-9.078-12.934,8.606-50.395,21.564-59.463c2.423-1.712,8.996,0.704,11.889,0
	c9.962-2.427,27.267-14.222,36.421-18.834c7.031-3.545,23.884-7.331,28.257-13.883c4.974-7.464,5.837-27.626,2.233-35.862
	c-6.479-14.757-37.678-30.318-50.012-40.698c-4.757-4.008-15.033-11.371-18.758-16.353c-5.074-6.8-12.047-22.631-14.122-30.856
	c-1.046-4.118,2.765-15.251-1.122-16.963c-1.029-0.449-2.385,2.686-3.5,2.81c-2.029,0.211-5.972-2.112-7.273-3.68
	c-5.651-6.772-15.31-26.756-10.038-33.822c1.888-2.534,11.053,2.734,12.641,0c3.29-5.696-11.478-16.438-13.107-22.814
	c-1.398-5.44-4.045-21.126-3.99-26.749c0.131-12.696,1.615-34.146,4.457-46.525c1.625-7.042,4.139-21.868,7.438-28.306
	c3.628-7.094,14.792-20.014,20.312-25.765c6.887-7.177,24.695-17.377,34.198-20.318c15.772-4.877,46.432-9.03,62.939-8.926
	c13.912,0.079,44.993,5.475,58.476,8.926c11.924,3.052,36.373,11.385,44.852,20.315c7.024,7.391,14.901,24.685,18.582,34.191
	c2.437,6.303,4.674,22.365,5.951,28.996c2.191,11.312,3.376,29.849,3.469,41.378c0.031,4.829-1.653,19.328-2.724,24.032
	c-1.339,5.837-13.594,16.5-10.411,21.564c1.385,2.202,8.695-1.961,10.411,0c5.854,6.714-0.308,27.639-4.833,35.31
	c-0.884,1.494-3.842,4.211-5.578,4.142c-1.235-0.041-2.562-3.717-3.714-3.271c-4.194,1.625-0.56,13.586-1.981,17.839
	c-2.734,8.157-12.055,22.997-17.574,29.604c-3.725,4.463-13.097,11.491-17.525,15.24c-13.076,11.07-46.573,27.656-52.87,43.594
	c-3.262,8.261-0.59,28.003,4.574,35.241c4.277,5.999,19.766,9.887,26.403,13.097c9.12,4.422,26.773,15.123,36.667,17.346
	c2.724,0.604,8.72-1.353,11.153,0c15.337,8.495,45.669,44.126,37.167,59.463C464.809,827.924,272.96,824.278,235.51,770.859z"/>
<path fill="#FBCEBE" d="M341.75,419.339c0,0,11.488,28.858,14.295,36.812c2.806,7.953,6.79,40.028,6.79,38.617
	c0-1.398,0,34.623,0,34.623v37.277l-0.58,80.282c0,0,2.686-0.014,3.58-0.142c0.994-0.124,2.979-0.663,3.896-0.953
	c4.561-1.439,13.69-5.329,13.69-5.329s4.991-5.737,6.183-6.849c11.326-10.625,24.799-18.579,32.986-23.743
	c7.073-4.463,19.922-15.022,26.065-20.708c3.463-3.224,8.755-11.177,11.216-15.223c2.578-4.229,7.812-12.894,8.799-17.761
	c0.456-2.288-0.297-9.365-0.297-9.365s-0.131-3.935,0.317-5.143c0.242-0.674,1.727-2.299,1.727-2.299s2.479,3.255,3.714,3.271
	c2.416,0.056,5.703-4.652,6.914-6.741c1.602-2.755,4.146-11.771,4.146-11.771s1.629-7.853,1.681-10.41
	c0.049-2.686-0.715-8.372-2.33-10.529c-0.677-0.894-6.207,0.29-6.207,0.29s-2.389,0.601-3.106,0.321
	c-4.764-1.878-13.455-15.434-13.455-15.434l-77.189-47.25L341.75,419.339"/>
<rect x="473.158" y="537.547" fill="#FFD244" width="2.5" height="9.361"/>
<rect x="244.633" y="536.622" fill="#FFD244" width="2.5" height="9.348"/>
<path fill="#FFD244" d="M235.275,747.573l255.985-2.106l19.617,43.318c0,0-42.138,20.429-74.424,25.614
	c-8.274,1.329-19.514,3.849-31.637,5.43c-14.443,1.881-30.253,2.223-42.925,2.641c-20.746,0.693-49.449-2.458-82.439-9.903
	c-35.237-7.946-63.402-22.3-63.402-22.3L235.275,747.573"/>
<polygon fill="#CD9DC8" points="482.13,765.396 475.571,770.304 478.851,774.039 487.501,769.725 "/>
<polygon fill="#CD9DC8" points="458.498,781.999 453.586,790.415 458.498,792.756 460.372,788.785 "/>
<polygon fill="#CD9DC8" points="480.494,781.999 475.571,783.629 478.032,787.377 "/>
<polygon fill="#CD9DC8" points="398.614,796.035 394.872,804.92 403.765,804.92 400.723,799.079 "/>
<polygon fill="#CD9DC8" points="412.422,796.035 412.422,800.48 417.565,798.258 417.565,793.929 "/>
<polygon fill="#CD9DC8" points="436.985,787.377 431.601,787.377 431.601,792.756 436.985,793.929 "/>
<polygon fill="#CD9DC8" points="448.674,783.166 446.575,783.166 446.575,787.377 449.605,787.377 "/>
<polygon fill="#CD9DC8" points="378.651,810.94 376.47,812.479 382.083,816.073 385.203,810.94 "/>
<polygon fill="#CD9DC8" points="371.319,804.92 369.29,807.495 371.319,808.748 375.683,806.836 "/>
<polygon fill="#CD9DC8" points="319.237,797.208 310.189,798.455 317.828,806.836 "/>
<polygon fill="#CD9DC8" points="324.535,799.079 324.535,803.604 331.395,803.604 329.22,798.307 "/>
<polygon fill="#CD9DC8" points="305.201,786.607 296.778,787.377 297.869,793.929 307.535,790.649 "/>
<polygon fill="#CD9DC8" points="288.673,793.929 287.424,797.208 291.324,798.307 291.324,793.929 "/>
<polygon fill="#CD9DC8" points="264.178,768.198 257.475,770.384 260.833,778.499 268.238,775.996 "/>
<polygon fill="#CD9DC8" points="247.495,774.912 245.317,776.621 247.495,778.961 252.179,774.912 "/>
<polygon fill="#CD9DC8" points="246.408,767.267 240.173,768.198 241.727,764.926 246.408,764.926 "/>
<polygon fill="#CD9DC8" points="236.266,751.984 234.243,755.885 236.266,756.813 240.173,753.39 "/>
<polygon fill="#CD9DC8" points="235.962,762.278 233.039,762.278 233.304,765.709 235.962,765.709 "/>
<polygon fill="#CD9DC8" points="236.266,772.41 239.39,776.936 231.433,778.499 230.349,775.454 "/>
<polygon fill="#CD9DC8" points="241.882,778.961 241.882,784.111 243.287,784.111 244.216,780.37 "/>
<polygon fill="#CD9DC8" points="254.979,784.111 256.701,788.013 261.217,786.607 258.096,783.487 "/>
<polygon fill="#CD9DC8" points="283.05,776.936 278.376,777.715 278.376,782.865 281.804,781.537 "/>
<polygon fill="#CD9DC8" points="277.43,789.565 271.828,788.785 273.54,792.064 277.43,792.842 "/>
<polygon fill="#CD9DC8" points="343.404,807.495 337.636,807.495 340.515,809.998 343.404,809.998 "/>
<polygon fill="#CD9DC8" points="339.817,800.943 335.758,800.943 335.758,803.604 339.192,802.279 "/>
<polygon fill="#CD9DC8" points="496.556,778.367 488.558,777.546 491.25,783.746 495.813,780.66 "/>
<polygon fill="#CD9DC8" points="496.556,770.614 493.355,770.614 494.954,771.823 497.912,772.41 "/>
<polygon fill="#883C95" points="465.52,770.614 464.353,771.509 465.52,774.75 468.564,772.676 "/>
<polygon fill="#883C95" points="468.564,788.081 466.451,788.081 465.985,790.649 470.78,789.365 "/>
<polygon fill="#883C95" points="441.425,789.365 439.319,790.649 441.891,796.035 443.296,793.929 "/>
<polygon fill="#883C95" points="420.485,789.365 428.677,787.377 427.39,801.765 421.776,795.096 "/>
<polygon fill="#883C95" points="407.979,800.48 401.894,808.748 412.422,804.92 410.896,801.765 "/>
<polygon fill="#883C95" points="387.975,801.765 377.216,803.604 387.975,811.361 390.547,808.748 "/>
<polygon fill="#883C95" points="370.14,810.94 375.635,813.505 370.14,816.777 365.811,813.505 "/>
<polygon fill="#883C95" points="344.695,803.604 351.012,806.563 351.012,810.94 343.88,814.399 343.88,807.495 "/>
<polygon fill="#883C95" points="330.78,805.977 323.438,808.997 330.78,811.361 333.938,808.662 "/>
<polygon fill="#883C95" points="316.275,790.267 307.535,792.842 308.674,797.208 317.445,793.732 321.66,795.213 "/>
<polygon fill="#883C95" points="294.99,782.865 287.424,783.487 287.424,787.494 292.65,788.013 "/>
<polygon fill="#883C95" points="268.915,779.894 264.703,784.111 271.13,784.111 275.107,779.894 "/>
<polygon fill="#883C95" points="270.661,772.41 268.238,773.349 269.446,776.936 275.805,774.912 273.001,771.823 "/>
<polygon fill="#883C95" points="248.741,781.537 248.327,785.434 253.353,781.999 251.365,778.961 "/>
<polygon fill="#883C95" points="253.353,762.278 246.408,762.278 247.271,770.891 254.979,766.569 "/>
<polygon fill="#883C95" points="233.47,767.487 230.349,769.6 231.012,771.823 235.348,767.487 "/>
<polygon fill="#E3BC22" points="420.485,798.307 414.997,803.604 422.011,803.604 "/>
<polygon fill="#E3BC22" points="446.575,792.707 446.575,796.035 452.268,797.208 452.268,792.842 "/>
<polygon fill="#E3BC22" points="459.789,772.41 458.498,780.011 465.985,780.011 "/>
<polygon fill="#E3BC22" points="472.416,774.75 469.728,777.546 473.821,780.66 476.979,776.849 "/>
<polygon fill="#E3BC22" points="488.558,753.7 487.501,757.09 491.951,760.708 493.936,756.62 "/>
<polygon fill="#E3BC22" points="486.193,783.166 482.593,788.785 486.193,788.785 487.501,784.691 "/>
<polygon fill="#E3BC22" points="403.181,793.929 403.181,797.208 407.157,796.035 408.093,792.756 "/>
<polygon fill="#E3BC22" points="375.683,814.399 371.016,818.486 378.852,816.442 "/>
<polygon fill="#E3BC22" points="351.012,814.399 349.959,817.475 355.889,819.418 355.889,816.442 "/>
<polygon fill="#E3BC22" points="321.66,802.697 319.789,804.92 320.728,807.495 324.535,804.92 "/>
<polygon fill="#E3BC22" points="303.178,795.096 299.202,797.208 300.721,802.279 305.519,799.887 "/>
<polygon fill="#E3BC22" points="280.713,785.434 280.713,788.013 284.352,788.785 285.049,785.748 "/>
<path fill="#E3BC22" d="M266.098,787.118l-3.238,2.476l3.238,2.223c0,0,0.994-1.592,2.14-1.55
	C269.377,790.298,266.098,787.118,266.098,787.118z"/>
<polygon fill="#E3BC22" points="243.049,770.891 240.173,772.41 241.609,776.504 245.317,771.36 "/>
<polygon fill="#E3BC22" points="241.882,758.029 237.799,759.078 238.385,763.048 244.216,759.9 "/>
<polygon fill="#7F509F" points="431.601,796.035 429.847,799.77 435.226,800.943 437.559,797.208 "/>
<path fill="#7F509F" d="M440.728,780.66c-0.477,0.759-4.446,4.611-4.446,4.611l3.856,1.284l5.499-3.39L440.728,780.66z"/>
<polygon fill="#7F509F" points="457.687,776.214 452.268,776.214 449.416,783.166 456.278,781.999 "/>
<polygon fill="#7F509F" points="395.697,805.977 390.547,811.737 396.629,812.479 399.908,808.662 "/>
<polygon fill="#7F509F" points="336.275,810.412 335.758,814.399 340.515,814.399 337.636,810.412 "/>
<polygon fill="#7F509F" points="307.535,800.943 312.188,803.604 307.535,803.995 303.641,803.995 "/>
<polygon fill="#7F509F" points="287.424,789.473 289.371,790.812 282.877,794.398 280.713,792.842 "/>
<polygon fill="#7F509F" points="254.979,776.504 257.475,776.504 259.083,779.894 253.94,780.715 "/>
<polygon fill="#7F509F" points="232.179,778.961 238.385,779.894 236.508,782.865 230.349,781.999 "/>
<polygon fill="#9156A1" points="442.599,798.307 441.308,800.943 446.575,800.48 443.938,797.208 "/>
<polygon fill="#B158A1" points="468.564,780.66 472.541,780.66 473.355,785.976 465.985,785.976 "/>
<polygon fill="#B158A1" points="474.878,789.365 478.032,790.649 469.728,794.947 470.78,792.158 "/>
<polygon fill="#B158A1" points="478.032,776.214 482.593,781.295 487.501,775.368 482.593,773.349 "/>
<polygon fill="#B158A1" points="492.552,785.271 493.355,789.365 502.638,785.271 500.611,778.961 "/>
<polygon fill="#B158A1" points="490.726,763.048 494.84,763.048 494.84,765.396 491.875,768.354 488.558,764.301 "/>
<polygon fill="#B158A1" points="423.568,801.765 420.485,805.977 426.54,805.977 428.677,803.604 "/>
<polygon fill="#B158A1" points="320.486,797.208 321.66,799.711 326.096,797.208 323.296,793.929 "/>
<polygon fill="#B158A1" points="292.726,792.756 294.99,788.785 294.99,794.985 292.726,797.208 "/>
<polygon fill="#B158A1" points="260.443,781.537 262.86,778.961 265.663,778.961 262.86,783.487 "/>
<polygon fill="#B158A1" points="248.741,772.41 253.353,770.891 254.979,768.198 255.763,772.41 252.179,773.349 "/>
<polygon fill="#B158A1" points="226.594,777.715 228.32,776.936 229.251,779.894 226.594,780.715 "/>
<polygon fill="#FFF2A6" points="456.979,794.985 462.247,797.208 465.985,793.929 463.479,790.649 "/>
<polygon fill="#FFF2A6" points="445.073,778.961 450.534,777.546 452.268,784.167 446.575,780.856 "/>
<polygon fill="#FFF2A6" points="468.564,772.676 464.353,776.214 467.221,778.961 471.898,777.318 "/>
<polygon fill="#FFF2A6" points="475.571,764.611 480.494,767.422 479.7,770.614 470.78,770.614 "/>
<polygon fill="#FFF2A6" points="487.501,774.039 493.936,774.039 493.355,780.66 486.711,780.66 "/>
<polygon fill="#FFF2A6" points="486.097,760.708 490.726,763.048 490.321,766.459 484.219,764.611 "/>
<polygon fill="#FFF2A6" points="425.58,790.649 429.847,788.081 433.706,793.218 427.903,796.035 "/>
<rect x="405.628" y="798.686" fill="#FFF2A6" width="4.671" height="2.813"/>
<polygon fill="#FFF2A6" points="378.852,807.495 383.881,806.563 383.881,809.231 378.852,809.231 "/>
<polygon fill="#FFF2A6" points="397.043,806.836 405.628,806.563 405.628,810.94 398.403,810.412 "/>
<polygon fill="#FFF2A6" points="272.024,785.434 274.627,783.487 277.43,785.748 269.901,788.013 "/>
<polygon fill="#FFF2A6" points="278.376,793.732 278.376,797.208 285.042,797.208 284.137,792.842 "/>
<path fill="#FFF2A6" d="M292.726,798.686c0,0,1.733,3.218,2.265,2.813c0.532-0.394,3.486-1.788,3.486-1.788v-4.615l-6.389,3.59
	H292.726z"/>
<polygon fill="#FFF2A6" points="310.189,794.398 310.189,796.611 314.718,796.611 314.718,792.059 "/>
<polygon fill="#FFF2A6" points="310.189,803.995 312.467,800.943 316.417,803.871 316.417,807.916 308.781,805.977 "/>
<polygon fill="#FFF2A6" points="330.607,799.711 330.607,803.995 330.78,805.977 337.636,805.977 335.758,800.943 "/>
<polygon fill="#FFF2A6" points="256.508,764.926 256.508,768.198 262.204,768.848 262.204,765.709 "/>
<polygon fill="#FFF2A6" points="237.799,779.814 237.205,784.111 241.882,785.748 241.009,777.312 "/>
<polygon fill="#FFF2A6" points="234.364,767.487 234.243,772.41 239.545,769.952 238.385,765.709 "/>
<polygon fill="#FFF2A6" points="241.882,753.23 241.882,758.029 247.488,760.535 247.488,757.436 "/>
<polygon fill="#FFF2A6" points="252.255,786.607 253.94,784.747 258.096,789.614 251.537,788.785 "/>
<polygon fill="#FFF2A6" points="369.29,810.412 369.29,815.148 375.683,813.505 375.683,809.998 "/>
<path fill="#F8C4B4" d="M383.422,640.525c0,0-11.971,4.953-16.151,6.033c-6.535,1.691-13.667,0.391-13.667,0.391l9.303,4.456
	c0,0,3.863,5.724,4.95,6.959c5.026,5.737,8.65,10.177,8.65,10.177l5.153,4.922c0,0-1.404-5.298-2.182-10.707
	c-0.421-2.89-0.666-3.994-0.421-8.385c0.124-2.044,0.135-4.664,0.821-6.801C381.161,643.583,383.422,640.525,383.422,640.525z"/>
<polygon fill="#A4A4A4" points="360.891,807.581 357.546,811.016 357.546,814.438 360.891,817.561 363.901,814.438 363.225,809.763 
	"/>
<path fill="#030203" d="M474.132,503.255c10.504-2.755,19.041-26.573,23.78-36.349c8.067-16.642,29.158-50.184,27.646-68.617
	c-1.446-17.646-25.371-46.981-36.797-60.506c-6.929-8.188-19.5-25.989-28.071-32.438c-7.139-5.372-23.539-15.683-32.441-14.971
	c-5.917,0.476-20.588,11.854-20.588,11.854s-17.29-20.608-24.239-26.197c-7.211-5.796-22.976-16.297-31.896-18.72
	c-9.783-2.661-30.263-8.878-40.395-8.878c-14.194,0-43.625,1.905-57.785,2.806c-9.89,0.618-30.484,5.147-38.423,11.063
	c-7.508,5.592-14.35,32.438-14.975,34.309c-0.625,1.874-11.233,63.001-11.233,63.001s-8.329,29.853-14.967,37.43
	c-3.773,4.304-14.267,11.823-19.963,11.229c-5.682-0.587-14.76-8.979-18.716-13.097c-2.312-2.403-7.228-7.898-7.176-11.233
	c0.038-2.078,6.01-5.253,4.684-6.862c-1.288-1.574-6.093,1.716-7.484,3.204c-2.579,2.754-4.649,10.5-4.991,14.263
	c-1.105,12.351,11.232,47.098,29.625,50.84c12.455,2.537,22.372,4.394,38.675,4.363c4.94-0.007,10.453,2.037,10.453,2.037
	l5.143,1.871l4.37,2.962l5.617,3.586c0,0,4.667,2.634,5.92,7.95c1.608,6.783,8.25,19.414,12.482,24.957
	c2.303,3.017,7.847,11.695,11.305,10.142c0.936-0.425,0.135-3.093-0.024-4.115c-0.497-3.017-3.317-8.623-3.797-11.647
	c-0.711-4.474-0.832-13.649,0-18.095c1.112-5.91,5.402-17.439,8.737-22.448c3.473-5.233,18.078-17.47,18.078-17.47l33.066-11.226
	l34.934-15.596c0,0,2.468,8.091,3.742,10.597c4.188,8.253,14.067,24.33,20.891,30.57c6.134,5.599,21.585,12.479,29.014,16.21
	c7.483,3.77,23.515,12.924,30.87,16.935c6.045,3.287,16.614,8.699,22.772,11.764c3.891,1.933,12.265,4.453,16.218,6.241
	C462.292,496.821,469.786,504.395,474.132,503.255z"/>
<path fill="#030203" d="M251.862,537.947c-1.719,0.283-2.582,4.611-2.948,6.317c-0.345,1.566-1.153,5.039-2.5,5.923
	c-1.229,0.822-4.712,0.846-5.923,0c-0.887-0.617-2.178-3.741-2.178-3.741s-0.304,2.857,0,3.741c0.283,0.846,1.519,2.217,2.178,2.811
	c1.001,0.887,3.251,2.92,4.594,2.803c2.241-0.187,5.575-4.021,6.776-5.924c0.442-0.711,1.484-3,1.484-3s0.552-5.336,0-6.989
	C253.146,539.308,252.466,537.854,251.862,537.947z"/>
<path fill="#4F2C83" d="M360.891,807.581l-20.376-9.274l-44.827-23.557l-41.931-17.937c0,0-15.585-6.12-19.12-10.228
	c-1.898-2.224-3.849-8.108-3.894-11.032c-0.048-3.694,3.162-10.653,4.526-14.074c1.315-3.334,3.714-10.3,6.137-12.931
	c2.703-2.944,10.259-6.183,13.812-8.002c4.094-2.081,12.689-5.64,17.211-6.458c2.713-0.497,8.426,0.911,11.026,0
	c4.156-1.464,9.89-8.875,13.725-11.029c4.136-2.33,13.155-5.644,17.819-6.465c1.743-0.312,5.295,0,7.063,0
	c1.577,0,4.757-0.273,6.317,0c1.478,0.259,5.661,2.085,5.661,2.085l8.112,11.991c0,0,7.96,6.566,11.178,7.602
	c3.458,1.111,14.505,0.376,14.505,0.376l9.779-4.939l3.621-5.709l3.045-8.948c0,0,5.025-0.075,6.672,0.197
	c3.418,0.594,10.004,2.872,13.215,4.194c2.917,1.19,8.433,4.242,11.226,5.706c3.738,1.95,10.946,6.399,14.856,7.98
	c3.235,1.318,10.073,2.903,13.449,3.804c3.414,0.904,10.249,2.596,13.687,3.428c3.722,0.884,11.389,1.947,14.92,3.414
	c3.59,1.509,10.328,5.682,13.145,8.375c1.781,1.685,4.806,5.706,5.675,7.991c2.116,5.526,5.631,18.419,2.638,23.524
	c-7.933,13.501-41.734,21.72-56.374,27.246c-15.067,5.675-62.452,26.038-62.452,26.038L360.891,807.581z"/>
<path fill="#67469B" d="M333.642,678.68c0,0-4.187-1.826-5.675-2.085c-3.29-0.594-10.076-0.58-13.37,0
	c-1.805,0.32-4.263,1.011-6.834,1.87c-4.081,1.378-8.447,3.173-10.984,4.595c-3.838,2.154-14.198,6.648-13.729,11.029
	c0.939,8.768,31.547,15.782,31.547,15.782l19.341,4.854c0,0,19.234,1.561,25.378,0c3.328-0.839,12.051-6.565,12.051-6.565
	s11.799-10.705,13.428-15.586c1.073-3.221-0.915-13.521-0.915-13.521s-3.876,11.744-6.665,14.657
	c-1.702,1.774-8.778,4.422-8.778,4.422s-11.795,1.26-15.51,0.142c-2.938-0.887-8.061-4.667-10.149-6.907
	C340.114,688.5,333.642,678.68,333.642,678.68z"/>
<polygon fill="#4F2C83" points="236.894,722.57 234.499,718.294 235.962,719.688 236.894,719.001 235.962,715.422 237.799,716.868 
	"/>
<polygon fill="#4F2C83" points="254.04,702.312 254.979,699.892 254.04,698.891 255.763,699.467 255.763,701.169 256.508,698.891 
	256.508,697.606 257.475,699.961 "/>
<polygon fill="#4F2C83" points="460.352,704.979 461.253,702.881 462.679,702.881 461.512,703.603 461.919,705.974 462.679,704.431 
	462.679,705.974 "/>
<polygon fill="#4F2C83" points="440.517,700.112 441.19,699.501 441.659,700.934 443.845,698.559 443.845,701.979 "/>
<polygon fill="#4F2C83" points="492.568,731.256 493.76,730.703 494.723,729.654 493.652,731.742 491.961,732.408 493.76,732.799 
	491.961,733.935 493.76,733.935 491.961,735.743 "/>
<polygon fill="#67469B" points="307.669,676.456 308.529,678.348 307.669,680.205 "/>
<polygon fill="#67469B" points="312.954,677.212 312.954,674.495 315.087,678.331 315.087,675.21 316.662,673.463 316.092,675.896 
	316.092,678.331 "/>
<path fill="#F0C0B2" d="M351.322,568.076h21.399c0,0-7.239,3.718-10.467,3.993C359.017,572.359,351.322,568.076,351.322,568.076z"/>
<path fill="#642D90" d="M362.068,595.574c0,0,2.582-1.664,3.569-1.75c4.094-0.332,15.762,4.735,15.762,4.735
	s-10.355,1.167-15.717,1.578c-0.328,0.027-3.483,2.782-3.483,2.782s-2.827-2.641-3.155-2.662c-4.191-0.252-16.4-2.198-16.4-2.198
	s11.768-4.636,15.855-4.235C359.493,593.924,362.068,595.574,362.068,595.574z"/>
</svg>
