<?xml version="1.0" encoding="utf-8"?>
<!-- Generator: Adobe Illustrator 16.0.0, SVG Export Plug-In . SVG Version: 6.00 Build 0)  -->
<!DOCTYPE svg PUBLIC "-//W3C//DTD SVG 1.1//EN" "http://www.w3.org/Graphics/SVG/1.1/DTD/svg11.dtd">
<svg version="1.1" id="Layer_2" xmlns="http://www.w3.org/2000/svg" xmlns:xlink="http://www.w3.org/1999/xlink" x="0px" y="0px"
	 width="728.5px" height="1031.811px" viewBox="0 0 728.5 1031.811" enable-background="new 0 0 728.5 1031.811"
	 xml:space="preserve">
<polygon fill="#FFFFFF" points="294.696,807.653 294.696,806.616 296.441,806.616 296.441,807.653 "/>
<polygon fill="#FFFFFF" points="305.529,809.749 305.529,808.704 307.278,808.704 307.278,810.1 "/>
<polygon fill="#FFFFFF" points="316.362,811.509 316.362,810.457 318.104,810.457 318.104,811.852 "/>
<polygon fill="#FFFFFF" points="326.147,812.903 326.147,812.546 327.889,812.546 327.889,813.247 "/>
<polygon fill="#FFFFFF" points="336.977,813.94 336.977,813.94 337.674,813.94 337.674,813.247 "/>
<polygon fill="#FFFFFF" points="391.138,813.94 391.138,813.247 390.437,813.247 390.437,813.94 "/>
<polygon fill="#FFFFFF" points="400.222,813.247 400.222,812.195 401.617,812.195 401.617,812.903 "/>
<polygon fill="#FFFFFF" points="409.653,812.195 409.653,810.801 411.402,810.801 411.402,811.852 "/>
<polygon fill="#FFFFFF" points="420.486,810.457 420.486,809.055 421.888,809.055 421.888,810.1 "/>
<polygon fill="#FFFFFF" points="431.322,808.351 431.322,806.952 433.064,806.952 433.064,808.004 "/>
<polygon fill="#FFFFFF" points="441.806,806.952 441.806,806.262 443.547,806.262 443.547,806.616 "/>
<path fill="#1AD5BB" d="M715.772,468.657c0,194.977-156.424,353.039-349.388,353.039C173.428,821.695,17,663.634,17,468.657
	c0-194.986,156.428-353.046,349.385-353.046C559.349,115.611,715.772,273.671,715.772,468.657"/>
<path fill="#6B481D" d="M348.782,254.354c24.289-0.652,75.229,10.783,97.426,20.67c15.621,6.949,36.648,22.292,47.051,44.147
	c11.775,24.71,23.435,73.887,24.494,104.367c0.473,13.275-22.791,250.253-56.156,290.39c-5.526,6.649-41.183-10.074-48.218-5.048
	c-6.845,4.901-27.465-34.589-27.465-34.589h-72.829c0,0-15.898,32.466-25.121,26.17c-7.706-5.259-35.159,29.068-49.656,9.26
	c-12.903-17.64-58.942-274.4-58.83-298.685c0.097-19.386,18.998-82.422,31.055-98.602c10.765-14.462,34.762-31.171,48.818-37.411
	C280.326,265.71,325.838,254.966,348.782,254.354z"/>
<path fill="#593615" d="M215.865,502.578l-14.285,47.311l13.708,70.308l20.429,84.057h232.208c0,0,20.9-55.179,25.869-94.427
	c2.842-22.43,13.939-89.326,13.939-89.326l-14.475-22.477L215.865,502.578z"/>
<path fill="#FCD7C7" d="M214.978,768.993c-10.035-14.307,9.514-55.687,23.813-65.721c2.707-1.88,9.956,0.78,13.154,0
	c11.008-2.674,30.134-15.711,40.25-20.809c7.766-3.919,26.394-8.1,31.22-15.329c5.508-8.266,6.448-30.542,2.46-39.643
	c-7.144-16.305-41.632-33.496-55.247-44.969c-5.264-4.432-16.617-12.562-20.735-18.071c-5.609-7.504-13.315-25.003-15.61-34.094
	c-1.146-4.555,3.059-16.853-1.236-18.744c-1.134-0.501-2.636,2.963-3.868,3.102c-2.239,0.236-6.598-2.342-8.043-4.072
	c-6.23-7.488-16.909-29.566-11.086-37.379c2.089-2.797,12.217,3.029,13.97,0c3.632-6.291-12.693-18.164-14.494-25.201
	c-1.535-6.021-4.471-23.347-4.403-29.568c0.146-14.028,1.79-37.729,4.928-51.403c1.79-7.79,4.572-24.178,8.211-31.289
	c4.014-7.831,16.363-22.108,22.458-28.464c7.601-7.936,27.285-19.21,37.787-22.455c17.426-5.394,51.304-9.977,69.55-9.862
	c15.374,0.086,49.724,6.053,64.619,9.862c13.172,3.374,40.194,12.581,49.559,22.455c7.766,8.166,16.471,27.281,20.533,37.779
	c2.704,6.957,5.16,24.712,6.583,32.042c2.419,12.497,3.722,32.987,3.83,45.723c0.034,5.341-1.823,21.357-3.014,26.563
	c-1.479,6.448-15.015,18.222-11.503,23.817c1.528,2.436,9.615-2.164,11.503,0c6.474,7.421-0.337,30.549-5.347,39.023
	c-0.974,1.647-4.235,4.659-6.156,4.584c-1.37-0.052-2.83-4.119-4.111-3.619c-4.628,1.784-0.613,15.015-2.179,19.716
	c-3.021,9.018-13.337,25.41-19.422,32.711c-4.114,4.928-14.472,12.693-19.376,16.842c-14.445,12.224-51.461,30.557-58.41,48.162
	c-3.609,9.135-0.651,30.962,5.047,38.95c4.729,6.629,22.188,11.518,29.52,15.072c10.08,4.877,29.25,16.117,40.184,18.564
	c3.003,0.674,9.623-1.496,12.318,0c16.954,9.394,50.469,48.765,41.074,65.721C468.366,832.037,256.363,828.012,214.978,768.993z"/>
<path fill="#F8C4B4" d="M378.422,624.959c0,0-13.187,5.635-17.845,6.676c-4.654,1.021-8.792,0-8.792,0l3.961,5.338
	c0,0,4.284,6.347,5.478,7.709c5.553,6.334,9.566,11.25,9.566,11.25l5.685,5.422c0,0-1.551-5.847-2.408-11.826
	c-0.46-3.194-0.733-4.417-0.46-9.266c0.135-2.26,0.142-5.155,0.906-7.511C375.921,628.342,378.422,624.959,378.422,624.959z"/>
<path fill="#FBD2C3" d="M348.142,275.024c15.378,0.086,49.712,6.047,64.623,9.862c13.172,3.368,40.187,12.581,49.551,22.443
	c7.759,8.17,16.479,27.292,20.541,37.791c2.692,6.957,5.16,24.712,6.575,32.042c2.415,12.497,3.729,32.987,3.827,45.716
	c0.052,5.349-1.82,21.365-3.007,26.571c-1.472,6.448-15.019,18.222-11.499,23.817c1.528,2.436,9.601-2.164,11.499,0
	c6.474,7.421-0.337,30.542-5.343,39.023c-0.974,1.647-4.239,4.659-6.156,4.584c-1.374-0.054-2.83-4.119-4.111-3.619
	c-4.624,1.784-0.613,15.015-2.187,19.716c-3.018,9.018-13.329,25.4-19.418,32.711c-4.118,4.928-14.471,12.691-19.372,16.842
	c-14.445,12.224-44.557,26.61-55.243,42.436c-0.546,0.811-11.18,5.169-18.616,6.82c-5.152,1.141-8.021-0.145-8.021-0.145
	S332.963,274.931,348.142,275.024z"/>
<path fill="#6B481D" d="M347.165,329.556c0,0,27.884,47.2,49.162,76.728c15.509,21.533,82.336,66.983,82.336,66.983l27.086-21.531
	l-3.928-79.684l-21.878-54.43l-52.76-44.327l-95.022-3.08L347.165,329.556z"/>
<path fill="#87653F" d="M401.243,412.169l48.458,27.647l-14.247-34.708c0,0,37.967,37.089,36.784,37.48
	c-1.184,0.402-7.002-21.275-7.002-21.275l16.49,18.113l2.373-10.28l9.915,24.023l8.275,15.022l-11.87-5.435l10.282,10.053
	l-11.885-0.127l-8.896,1.262l-4.134-2.75l-14.229-10.023l-29.243-21.766L401.243,412.169z"/>
<path fill="#F9CABB" d="M338.471,540.964c0,0,5.448,3.252,9.241,3.934c3.812,0.692,11.375-3.934,11.375-3.934H338.471z"/>
<path fill="#F7A59B" d="M348.782,565.369c0,0,2.176-1.402,3.003-1.472c3.467-0.278,13.322,3.993,13.322,3.993
	s-8.743,0.992-13.273,1.339c-0.288,0.024-2.939,2.35-2.939,2.35s-2.396-2.228-2.666-2.247c-3.542-0.205-13.854-1.86-13.854-1.86
	s9.945-3.909,13.39-3.574C346.596,563.979,348.782,565.369,348.782,565.369z"/>
<path fill="#6B481D" d="M348.622,270.215l-1.457,59.341c0,0-48.421,62.451-58.916,77.997
	c-12.858,19.032-64.229,65.713-64.229,65.713l-22.743-32.612l-7.301-63.402l41.524-79.129l79.689-28.054L348.622,270.215z"/>
<polygon fill="#C2C9E6" points="292.195,682.464 311.205,675.111 334.689,704.816 351.785,683.353 371.293,703.272 394.298,678.447 
	415.119,687.432 352.755,821.426 "/>
<path fill="#5E5E5E" d="M415.119,687.432l-62.364,133.994l-60.56-138.962l-40.25,20.809c0,0-6.987-1.739-9.323-1.337
	c-9.395,1.629-10.495-0.637-25.072,33.147c-12.427,28.792-13.565,46.132-13.565,46.132s42.359,32.8,136.815,39.451
	c2.745,0.184,7.99,0.865,15.056,1.029c9.646,0.212,21.601-0.155,25.36-0.318c25.251-1.106,49.158-5.116,66.722-9.465
	c48.447-11.98,59.789-20.3,59.789-20.3s0.187-17.246-1.978-30.638c-4.822-29.934-25.712-53.292-42.909-58.822
	c-2.942-0.947-12.925,1.12-12.925,1.12L415.119,687.432z"/>
<polyline fill="#D1D1D1" points="372.038,705.935 351.459,685.243 334.442,705.935 302.859,681.473 320.281,669.389 
	351.183,683.673 385.51,672.406 408.361,683.491 "/>
<polyline fill="#92A1CD" points="372.169,706.56 351.591,685.867 334.573,706.56 300.306,681.649 318.888,670.887 351.31,684.296 
	387.333,673.984 406.384,684.77 "/>
<polyline fill="#B7C0E2" points="372.038,704.253 351.459,683.562 334.442,704.253 300.178,679.347 318.769,668.585 
	351.183,681.988 387.206,671.68 406.257,682.464 "/>
<polygon fill="#424243" points="265.42,698.11 269.355,755.602 298.531,769.734 278.892,802.613 352.755,821.426 303.657,675.111 
	265.42,692.241 "/>
<polygon fill="#424243" points="440.974,701.821 437.05,759.305 407.867,773.453 427.513,806.333 352.755,821.426 402.34,678.159 
	440.974,695.962 "/>
<path fill="#C6A82E" d="M416.258,724.253c3.089,1.302,10.746,3.495,11.566,6.74c1.43,5.663-10.462,14.354-12.177,19.929
	c-0.214,0.692,0.472,2.852,0.472,2.852s-5.894-5.936-5.639-8.468c0.318-3.07,6.986-6.863,7.331-9.932
	c0.382-3.286-5.257-12.14-5.257-12.14S415.366,723.885,416.258,724.253z"/>
<path fill="#C5A82E" d="M419.567,744.643c0,0,4.393-3.486,6.175-3.801c1.617-0.282,6.455,1.361,6.455,1.361s-3.25,2.941-4.621,3.301
	C425.63,746.022,419.567,744.643,419.567,744.643z"/>
<path fill="#C5A82E" d="M417.759,746.896c0,0,3.415-1.26,4.609-1.227c1.292,0.047,4.891,1.667,4.891,1.667s-2.958,2.858-4.235,2.899
	c-1.535,0.057-5.287-3.111-5.287-3.111L417.759,746.896z"/>
<path fill="#C5A82E" d="M416.052,749.593c0,0,2.658-0.155,3.471,0.161c0.716,0.268,2.366,1.936,2.366,1.936
	s-2.399,0.932-3.179,0.694C417.789,752.108,416.052,749.593,416.052,749.593z"/>
<path fill="#FFFFFF" d="M422.413,728.812c-0.049,0.175-0.235,0.275-0.408,0.23c-0.184-0.049-0.292-0.23-0.239-0.412
	c0.045-0.178,0.239-0.284,0.412-0.233C422.364,728.448,422.466,728.63,422.413,728.812z"/>
<path fill="#FFFFFF" d="M424.109,730.285c-0.146,0.522-0.688,0.825-1.198,0.688c-0.524-0.143-0.831-0.688-0.688-1.202
	c0.142-0.526,0.688-0.831,1.198-0.686C423.944,729.231,424.252,729.769,424.109,730.285z"/>
<path fill="#FFFFFF" d="M423.001,732.146c-0.251,0.898,0.285,1.828,1.176,2.068c0.906,0.251,1.827-0.279,2.074-1.178
	c0.24-0.891-0.284-1.814-1.176-2.064C424.177,730.722,423.241,731.249,423.001,732.146z"/>
<path fill="#FFFFFF" d="M424.754,735.808c-0.15,0.521-0.678,0.822-1.198,0.684c-0.524-0.146-0.828-0.674-0.686-1.196
	c0.146-0.524,0.682-0.829,1.198-0.684C424.593,734.748,424.896,735.285,424.754,735.808z"/>
<path fill="#FFFFFF" d="M423.687,737.3c-0.057,0.176-0.236,0.277-0.416,0.232c-0.176-0.051-0.284-0.229-0.239-0.416
	c0.053-0.174,0.239-0.288,0.412-0.233C423.63,736.932,423.731,737.116,423.687,737.3z"/>
<path fill="#89653F" d="M294.966,398.132l-40.797,41.685l17.126-36.952c0,0-40.85,39.333-39.667,39.725
	c1.183,0.402,1.58-19.949,1.58-19.949l-11.064,16.787l-2.374-10.28l-9.919,24.023l-8.271,15.022l11.862-5.435l-10.285,10.053
	l17.403-4.618l-4.924,4.804l7.612,2.366l19.055-14.19L294.966,398.132z"/>
</svg>
