<?xml version="1.0" encoding="utf-8"?>
<!-- Generator: Adobe Illustrator 16.0.0, SVG Export Plug-In . SVG Version: 6.00 Build 0)  -->
<!DOCTYPE svg PUBLIC "-//W3C//DTD SVG 1.1//EN" "http://www.w3.org/Graphics/SVG/1.1/DTD/svg11.dtd">
<svg version="1.1" id="Layer_2" xmlns="http://www.w3.org/2000/svg" xmlns:xlink="http://www.w3.org/1999/xlink" x="0px" y="0px"
	 width="728.5px" height="1031.811px" viewBox="0 0 728.5 1031.811" enable-background="new 0 0 728.5 1031.811"
	 xml:space="preserve">
<polygon fill="#FFFFFF" points="274.782,802.414 274.782,801.724 276.177,801.724 276.177,803.122 "/>
<polygon fill="#FFFFFF" points="284.213,804.856 284.213,803.805 285.962,803.805 285.962,805.561 "/>
<polygon fill="#FFFFFF" points="294.696,807.653 294.696,806.616 296.441,806.616 296.441,807.653 "/>
<polygon fill="#FFFFFF" points="305.529,809.749 305.529,808.704 307.278,808.704 307.278,810.1 "/>
<polygon fill="#FFFFFF" points="316.362,811.509 316.362,810.457 318.104,810.457 318.104,811.852 "/>
<polygon fill="#FFFFFF" points="326.147,812.903 326.147,812.546 327.889,812.546 327.889,813.247 "/>
<polygon fill="#FFFFFF" points="336.977,813.94 336.977,813.94 337.674,813.94 337.674,813.247 "/>
<polygon fill="#FFFFFF" points="391.138,813.94 391.138,813.247 390.437,813.247 390.437,813.94 "/>
<polygon fill="#FFFFFF" points="400.222,813.247 400.222,812.195 401.617,812.195 401.617,812.903 "/>
<polygon fill="#FFFFFF" points="409.653,812.195 409.653,810.801 411.402,810.801 411.402,811.852 "/>
<polygon fill="#FFFFFF" points="420.486,810.457 420.486,809.055 421.888,809.055 421.888,810.1 "/>
<polygon fill="#FFFFFF" points="431.322,808.351 431.322,806.952 433.064,806.952 433.064,808.004 "/>
<polygon fill="#FFFFFF" points="441.806,806.952 441.806,806.262 443.547,806.262 443.547,806.616 "/>
<polygon fill="#FFFFFF" points="451.236,805.21 451.236,803.805 452.985,803.805 452.985,804.856 "/>
<polygon fill="#FFFFFF" points="462.069,803.122 462.069,801.362 463.468,801.362 463.468,802.761 "/>
<path fill="#1AD5BB" d="M708.47,471.505c0,193.354-155.134,350.103-346.484,350.103c-191.359,0-346.484-156.748-346.484-350.103
	c0-193.364,155.125-350.103,346.484-350.103C553.336,121.402,708.47,278.141,708.47,471.505"/>
<path fill="#EC1E24" d="M362.515,535.058"/>
<path fill="#FABB9F" d="M357.019,382.842l2.603,202.598c0,0,13.868,4.173,31.455-6.671c15.856-9.778,43.633-33.106,43.633-33.106
	l47.209-62.676l2.534-72.918l-71.06-24.332L357.019,382.842"/>
<path fill="#FAC3A7" d="M182.94,670.391c0,0,41.9-14.928,67.979-26.62c26.224-11.762,37.975-23.195,39.52-29.151
	c1.536-5.95,0.213-8.92,0.213-8.92l-64.907-130.132l-3.968-72.843l31.788-50.33l47.678-11.254l43.052,19.864l16.265,7.952v215.878
	l5.65,163.998c0,0-121.255-38.841-141.122-52.748c-5.111-3.584-55,66.989-55,66.989s-21.445-15.557-29.458-22.222
	c-6.545-5.442-28.119-26.13-28.119-26.13l17.87-17.851"/>
<path fill="#818282" d="M280.165,315.87c0,0,22.46-6.684,29.117-5.66c6.648,1.028,13.082-1.909,23.271,3.535
	c10.189,5.438,20.131,10.946,20.131,10.946s-44.281-11.091-49.504-10.946C297.957,313.892,280.165,315.87,280.165,315.87z"/>
<path fill="#FAC3A7" d="M358.051,585.551l8.159,163.281c0,0,41.516-40.145,94.135-53.847c26.07-6.789,72.988,80.882,72.988,80.882
	s21.719-13.332,28.392-18.256c15.301-11.313,29.015-22.674,29.015-22.674l14.771-14.428c0,0-39.86-37.442-62.543-46.588
	c-21.164-8.538-104.606-54.213-104.606-54.213"/>
<path fill="#F6B79E" d="M422.976,553.188c0,0-31.276,28.88-49.811,31.531c-18.544,2.646-35.757-1.99-39.725-4.638
	c-3.985-2.646-21.207-11.258-21.207-11.258s33.273,35.314,38.41,38.747c9.694,6.453,27.257,16.626,37.505,18.973
	c20.438,4.683,50.212-6.834,50.212-6.834l-5.538-25.561L422.976,553.188"/>
<path fill="#EC1E24" d="M360.407,527.894c0,0,5.872-6.017,11.529-2.842c6.153,3.45,12.621,10.006,12.621,10.006
	s-10.496,11.375-17.741,10.955c-3.968-0.232-6.349-1.729-6.349-1.729s-3.336,1.528-5.641,1.538
	c-6.136,0.023-20.105-10.939-20.105-10.939s10.667-9.503,15.42-10.683C353.708,523.309,360.407,527.894,360.407,527.894z"/>
<path fill="#F6B79E" d="M350.004,506.246c0,0,6.084,3.113,10.855,3.113c4.762,0.008,11-3.113,11-3.113h-9.985H350.004z"/>
<path fill="#231F20" stroke="#231F20" stroke-miterlimit="10" d="M291.096,607.57l9.268-47.35c0,0-31.779-30.471-32.454-41.068
	c-0.657-10.588,0-19.857,0-19.857s-13.244-5.957-17.212-15.894c-3.968-9.935-21.855-46.355-20.532-52.977
	c1.332-6.622,0-15.898,7.288-12.583c7.279,3.312,13.901,5.3,13.901,5.3s21.863-27.159,23.852-37.087
	c1.979-9.931,3.311-39.069,3.311-39.069s55.614,30.461,72.843,32.449c17.212,1.988,70.19,30.465,82.103,39.73
	c11.93,9.272,20.531,23.182,20.531,25.827c0,2.652-1.979,23.845,0,21.853c1.997-1.982,12.05-27.963,15.89-36.42
	c4.14-9.097,12.255-0.493,12.255-0.493s0.998,19.034-9.601,42.212c-10.599,23.175-12.902,26.606-16.547,29.138
	c-4.088,2.831-8.729,13.905-8.729,13.905l-23.041,38.001l13.099,57.722l35.057-25.94c0,0,14.499-11.969,20.021-14.816
	c4.198-2.163,8.951-2.901,14.916-11.549c3.951-5.734,8.423-8.524,11.444-19.393c0.691-2.449-4.122-12.625-2.159-24.788
	c1.383-8.587,12.322-10.21,15.796-24.952c0.981-4.165-5.479-11.691-3.499-15.621c4.522-9.033,9.779-10.357,11.077-20.12
	c0.742-5.545,1.689-13.359-4.43-18.608c-13.679-11.753-43.061-27.199-43.061-27.199s0.171-58.633-13.979-70.876
	c-24.509-21.187-50.34-41.056-96.687-47.017c-46.354-5.96-57.628-1.982-96.695,12.589c-39.067,14.565-56.168,39.859-59.48,47.808
	c-0.742,1.79-8.107,48.127-8.107,48.127s-36.712,23.971-38.794,35.05c-1.434,7.582,1.895,17.991,6.477,23.948
	c7.476,9.711,9.592,8.149,10.164,15.125c0.734,9.169-7.057,16.656-4.779,29.45c1.937,10.697,13.97,18.038,17.776,28.065
	c2.142,5.653,0.819,15.277,3.746,19.99c2.27,3.638,11.401,5.299,14.2,8.101C246.857,578.812,291.096,607.57,291.096,607.57z"/>
<path fill="#434343" d="M178.4,720.049c-3.977,7.215-9.182,20.421-10.274,27.726c-0.512,3.445,0,13.946,0,13.946
	s7.398,5.221,17.135,10.977c8.056,4.774,17.307,9.992,23.596,12.949c3.533,1.656,8.943,4.329,15.838,7.399
	c9.456,4.218,9.652,3.982,15.25,6.228c9.191,3.676,20.028,7.008,31.541,10.266c7.518,2.131,11.486,2.85,17.596,4.299
	c19.389,4.608,51.706,8.188,76.548,7.77c54.385-0.928,95.039-12.702,129.37-26.735c11.674-4.767,19.38-8.965,23.178-10.778
	c7.748-3.699,21.658-10.865,21.658-10.865s2.62-12.79,1.715-20.528c-0.512-4.348-1.51-6.197-4.557-15.275
	c-5.513-16.405-32.692-82.463-32.692-82.463l-12.306-5.837l3.831,35.722c0,0-24.525,6.937-37.854,9.816
	c-15.396,3.332-28.4,6.853-37.232,11.439c-15.54,8.045-54.53,38.111-54.53,38.111s-43.343-33.612-57.261-38.109
	c-14.311-4.619-62.509-15.668-62.509-15.668l-20.882-5.767l4.745-32.217l-12.946,5.105l-18.791,28.995"/>
<path fill="#282827" d="M239.109,345.396c9.788-7.186,18.322-9.626,18.322-9.626l-3.695,10.688l14.669-8.984l-7.664,14.573
	l12.579-1.417l-16.325,11.645l12.979-2.206c0,0-12.229,8.724-15.096,11.503c-3.857,3.729-13.705,17.466-13.705,17.466l8.849-19.118
	l-23.237,15.354l19.15-21.262l-13.27,3.943l11.623-14.042l-21.292,15.137C222.998,369.052,231.983,350.617,239.109,345.396z"/>
<path fill="#424243" d="M251.355,332.095c6.306-4.612,11.776-6.176,11.776-6.176l-2.364,6.861l9.404-5.769l-4.915,9.353l8.064-0.905
	l-10.462,7.465l8.312-1.415c0,0-7.834,5.598-9.686,7.384c-2.475,2.396-8.79,11.209-8.79,11.209l5.675-12.271l-14.917,9.854
	l12.306-13.643l-8.517,2.534l7.467-9.018l-13.671,9.716C241.038,347.274,246.798,335.453,251.355,332.095z"/>
<path fill="#FFFFFF" d="M216.631,397.845c0,0,24.756-1.238,39.297-3.006c12.033-1.453,37.028-3.45,49.769-3.855
	c16.957-0.522,51.407,0.702,68.44,1.651c16.973,0.943,50.434,4.422,66.725,6.637c10.966,1.485,52.593,8.064,52.593,8.064v-1.299
	c0,0-39.673-7.857-50.938-9.732c-16.376-2.735-45.434-6.347-62.833-7.633c-19.705-1.455-61.938-2.663-81.616-1.954
	c-13.424,0.48-39.409,3.488-52.09,5.058c-10.693,1.331-29.015,4.277-29.015,4.277L216.631,397.845z"/>
<polygon fill="#FFFFFF" points="637.811,510.538 661.526,497.345 665.289,504.675 640.38,516.894 "/>
<path fill="#FFFFFF" d="M463.203,494.409c0,2.541-2.073,4.606-4.616,4.606c-2.552,0-4.617-2.065-4.617-4.606
	c0-2.556,2.065-4.627,4.617-4.627C461.13,489.782,463.203,491.854,463.203,494.409z"/>
<circle fill="#FFFFFF" cx="261.792" cy="492.321" r="4.617"/>
<path fill="#FFFFFF" d="M275.266,393.046l1.647-0.555l-2.773-12.037l-2.637-11.555l-0.717-3.04c0,0,1.194-4.476,1.356-6.065
	c0.273-2.607-1.066-10.402-1.066-10.402s-0.76,1.111-0.956,1.532c-0.205,0.46-0.683,1.988-0.683,1.988s-0.384-7.764-0.99-10.271
	c-0.606-2.543-2.475-7.484-3.806-9.737c-2.364-3.955-11.239-14.612-11.239-14.612l-9.626-10.586c0,0-0.307,1.645-0.324,2.212
	c-0.026,0.612,0.12,2.5,0.12,2.5s-0.913-2.912-1.459-3.759c-0.743-1.171-2.705-3.296-3.934-3.953
	c-1.587-0.843-3.217-1.22-5.078-1.235c-0.683-0.009-2.261,0.015-2.901-0.305c-0.871-0.446-2.748-2.767-2.748-2.767
	s-1.076,5.11-1.187,6.257c-0.239,2.396,0.375,7.315,1.289,9.534c2.961,7.126,11.145,20.611,16.718,25.962
	c1.442,1.376,6.306,5.434,6.306,5.434s-1.101-0.546-1.485-0.681c-0.427-0.156-1.784-0.454-1.784-0.454s6.947,12.188,10.019,15.683
	c1.698,1.941,5.53,5.592,7.885,6.635c1.306,0.568,5.556,1.009,5.556,1.009l2.057,10.198L275.266,393.046z"/>
<path fill="#FFFFFF" d="M275.565,392.585l1.109,0.077l0.23-1.722l1.289-7.482l0.333-1.963c0,0,1.792-2.353,2.279-3.251
	c0.811-1.465,1.945-6.409,1.945-6.409s-0.734,0.474-0.956,0.674c-0.23,0.215-0.879,0.999-0.879,0.999s1.681-4.672,1.946-6.307
	c0.256-1.655,0.375-5.035,0.145-6.69c-0.427-2.92-3.038-11.399-3.038-11.399l-3.098-8.621c0,0-0.581,0.894-0.734,1.218
	c-0.162,0.363-0.546,1.513-0.546,1.513s0.196-1.938,0.085-2.58c-0.162-0.876-0.793-2.618-1.357-3.307
	c-0.734-0.89-1.596-1.513-2.714-1.982c-0.384-0.173-1.323-0.542-1.63-0.907c-0.401-0.465-0.93-2.293-0.93-2.293
	s-1.903,2.75-2.253,3.398c-0.725,1.357-1.579,4.414-1.579,5.957c-0.017,4.935,1.502,14.919,3.482,19.451
	c0.503,1.163,2.381,4.764,2.381,4.764s-0.521-0.595-0.708-0.774c-0.213-0.186-0.938-0.706-0.938-0.706s1.109,8.916,2.057,11.738
	c0.521,1.559,1.886,4.661,3.029,5.86c0.606,0.648,3.021,1.965,3.021,1.965l-1.289,6.532L275.565,392.585z"/>
<path fill="#FFFFFF" d="M274.558,391.898l1.332-1.111l-1.622-2.193l-6.665-9.803l-1.75-2.569c0,0-0.538-4.595-0.964-6.144
	c-0.7-2.52-4.788-9.287-4.788-9.287s-0.298,1.304-0.324,1.771c-0.034,0.501,0.085,2.088,0.085,2.088s-3.2-7.076-4.676-9.197
	c-1.494-2.138-5.026-6.061-7.092-7.667c-3.635-2.835-15.787-9.521-15.787-9.521l-12.826-6.338c0,0,0.324,1.638,0.503,2.174
	c0.196,0.578,1.024,2.287,1.024,2.287s-1.903-2.385-2.713-2.979c-1.135-0.811-3.738-2.076-5.12-2.24
	c-1.792-0.207-3.439,0.042-5.188,0.71c-0.623,0.23-2.091,0.826-2.816,0.764c-0.964-0.087-3.55-1.575-3.55-1.575
	s0.862,5.15,1.169,6.26c0.648,2.316,3.021,6.667,4.685,8.403c5.351,5.566,17.904,15.128,25.021,18.085
	c1.843,0.753,7.86,2.759,7.86,2.759s-1.22-0.103-1.63-0.094c-0.453,0.015-1.818,0.222-1.818,0.222s10.906,8.821,15.045,10.959
	c2.287,1.188,7.186,3.194,9.771,3.294c1.399,0.062,5.521-1.073,5.521-1.073l5.632,8.745L274.558,391.898z"/>
<polygon fill="#A41E22" points="637.922,503.748 643.811,518.297 596.243,541.357 471.43,601.854 590.833,531.497 "/>
<path fill="#FFFFFF" d="M442.979,623.051c0,2.547-2.073,4.621-4.617,4.621c-2.551,0-4.616-2.074-4.616-4.621
	c0-2.548,2.065-4.621,4.616-4.621C440.905,618.43,442.979,620.503,442.979,623.051z"/>
<path fill="#FFFFFF" d="M438.361,632.284c0,2.549-2.064,4.616-4.616,4.616s-4.617-2.067-4.617-4.616
	c0-2.554,2.065-4.612,4.617-4.612S438.361,629.73,438.361,632.284z"/>
<path fill="#FFFFFF" d="M432.115,639.827c0,2.552-2.057,4.619-4.617,4.619c-2.543,0-4.616-2.067-4.616-4.619
	c0-2.545,2.073-4.61,4.616-4.61C430.059,635.217,432.115,637.282,432.115,639.827z"/>
<path fill="#FFFFFF" d="M425.348,645.732c0,2.557-2.064,4.615-4.607,4.615c-2.561,0-4.626-2.059-4.626-4.615
	c0-2.549,2.065-4.618,4.626-4.618C423.283,641.114,425.348,643.184,425.348,645.732z"/>
<path fill="#FFFFFF" d="M417.283,650.348c0,2.552-2.064,4.614-4.625,4.614c-2.543,0-4.6-2.062-4.6-4.614
	c0-2.554,2.057-4.615,4.6-4.615C415.219,645.732,417.283,647.794,417.283,650.348z"/>
<path fill="#FFFFFF" d="M408.059,654.962c0,2.548-2.073,4.614-4.625,4.614c-2.543,0-4.617-2.066-4.617-4.614
	c0-2.552,2.074-4.614,4.617-4.614C405.985,650.348,408.059,652.41,408.059,654.962z"/>
<path fill="#FFFFFF" d="M400.105,660.074c0,2.553-2.065,4.618-4.6,4.618c-2.568,0-4.625-2.065-4.625-4.618
	c0-2.548,2.057-4.611,4.625-4.611C398.04,655.463,400.105,657.526,400.105,660.074z"/>
<path fill="#FFFFFF" d="M291.855,631.377c0,2.548-2.074,4.615-4.625,4.615c-2.543,0-4.608-2.067-4.608-4.615
	c0-2.552,2.065-4.616,4.608-4.616C289.782,626.761,291.855,628.825,291.855,631.377z"/>
<path fill="#FFFFFF" d="M299.237,636.9c0,2.545-2.065,4.612-4.6,4.612c-2.56,0-4.634-2.067-4.634-4.612
	c0-2.554,2.074-4.616,4.634-4.616C297.172,632.284,299.237,634.347,299.237,636.9z"/>
<path fill="#FFFFFF" d="M306.167,643.023c0,2.552-2.065,4.61-4.608,4.61c-2.552,0-4.625-2.059-4.625-4.61
	c0-2.543,2.074-4.61,4.625-4.61C304.102,638.413,306.167,640.48,306.167,643.023z"/>
<path fill="#FFFFFF" d="M313.557,649.057c0,2.554-2.065,4.619-4.608,4.619c-2.56,0-4.634-2.065-4.634-4.619
	c0-2.545,2.074-4.61,4.634-4.61C311.492,644.446,313.557,646.512,313.557,649.057z"/>
<path fill="#FFFFFF" d="M320.426,654.962c0,2.548-2.074,4.614-4.608,4.614c-2.552,0-4.617-2.066-4.617-4.614
	c0-2.552,2.065-4.614,4.617-4.614C318.353,650.348,320.426,652.41,320.426,654.962z"/>
<path fill="#FFFFFF" d="M390.881,664.692c0,2.546-2.065,4.61-4.626,4.61c-2.543,0-4.6-2.064-4.6-4.61c0-2.552,2.057-4.618,4.6-4.618
	C388.815,660.074,390.881,662.141,390.881,664.692z"/>
<path fill="#FFFFFF" d="M381.655,667.536c0,2.559-2.073,4.619-4.625,4.619c-2.56,0-4.608-2.061-4.608-4.619
	c0-2.543,2.049-4.608,4.608-4.608C379.582,662.928,381.655,664.993,381.655,667.536z"/>
<path fill="#FFFFFF" d="M328.729,659.576c0,2.55-2.057,4.615-4.608,4.615c-2.552,0-4.617-2.065-4.617-4.615
	c0-2.547,2.065-4.614,4.617-4.614C326.673,654.962,328.729,657.029,328.729,659.576z"/>
<path fill="#FFFFFF" d="M370.826,669.303c0,2.556-2.073,4.619-4.616,4.619c-2.552,0-4.617-2.063-4.617-4.619
	c0-2.543,2.065-4.61,4.617-4.61C368.753,664.692,370.826,666.76,370.826,669.303z"/>
<path fill="#FFFFFF" d="M359.459,669.303c0,2.556-2.065,4.619-4.608,4.619c-2.551,0-4.617-2.063-4.617-4.619
	c0-2.543,2.065-4.61,4.617-4.61C357.394,664.692,359.459,666.76,359.459,669.303z"/>
<path fill="#FFFFFF" d="M348.323,667.536c0,2.559-2.065,4.619-4.617,4.619c-2.543,0-4.608-2.061-4.608-4.619
	c0-2.543,2.065-4.608,4.608-4.608C346.258,662.928,348.323,664.993,348.323,667.536z"/>
<path fill="#FFFFFF" d="M337.972,664.692c0,2.546-2.065,4.61-4.625,4.61c-2.551,0-4.617-2.064-4.617-4.61
	c0-2.552,2.065-4.618,4.617-4.618C335.906,660.074,337.972,662.141,337.972,664.692z"/>
<path fill="#FFFFFF" d="M285.174,626.761c0,2.547-2.065,4.616-4.625,4.616c-2.543,0-4.608-2.069-4.608-4.616
	c0-2.544,2.065-4.617,4.608-4.617C283.108,622.144,285.174,624.217,285.174,626.761z"/>
<path fill="#FFFFFF" d="M451.888,628.407c0,2.552-2.073,4.621-4.608,4.621c-2.56,0-4.625-2.069-4.625-4.621
	c0-2.545,2.065-4.614,4.625-4.614C449.814,623.793,451.888,625.862,451.888,628.407z"/>
<path fill="#FFFFFF" d="M453.321,637.646c0,2.545-2.065,4.612-4.608,4.612c-2.552,0-4.616-2.067-4.616-4.612
	c0-2.554,2.064-4.617,4.616-4.617C451.256,633.028,453.321,635.092,453.321,637.646z"/>
<path fill="#FFFFFF" d="M454.371,647.634c0,2.552-2.065,4.623-4.617,4.623c-2.551,0-4.625-2.071-4.625-4.623
	c0-2.548,2.074-4.61,4.625-4.61C452.306,643.023,454.371,645.086,454.371,647.634z"/>
<path fill="#FFFFFF" d="M454.371,656.871c0,2.55-2.065,4.61-4.617,4.61c-2.551,0-4.625-2.061-4.625-4.61
	c0-2.554,2.074-4.614,4.625-4.614C452.306,652.257,454.371,654.317,454.371,656.871z"/>
<path fill="#FFFFFF" d="M455.284,666.103c0,2.546-2.065,4.619-4.617,4.619c-2.543,0-4.607-2.073-4.607-4.619
	c0-2.549,2.064-4.621,4.607-4.621C453.219,661.481,455.284,663.554,455.284,666.103z"/>
<path fill="#FFFFFF" d="M454.098,675.012c0,2.545-2.057,4.612-4.608,4.612c-2.543,0-4.607-2.067-4.607-4.612
	c0-2.552,2.064-4.621,4.607-4.621C452.041,670.391,454.098,672.46,454.098,675.012z"/>
<path fill="#FFFFFF" d="M453.842,684.67c0,2.543-2.065,4.617-4.608,4.617c-2.552,0-4.625-2.074-4.625-4.617
	c0-2.552,2.073-4.621,4.625-4.621C451.776,680.049,453.842,682.118,453.842,684.67z"/>
<path fill="#FFFFFF" d="M454.371,693.999c0,2.55-2.065,4.617-4.617,4.617c-2.551,0-4.625-2.067-4.625-4.617
	c0-2.545,2.074-4.623,4.625-4.623C452.306,689.376,454.371,691.454,454.371,693.999z"/>
<path fill="#FFFFFF" d="M453.842,703.792c0,2.547-2.065,4.61-4.608,4.61c-2.552,0-4.625-2.063-4.625-4.61
	c0-2.548,2.073-4.617,4.625-4.617C451.776,699.175,453.842,701.244,453.842,703.792z"/>
<path fill="#FFFFFF" d="M453.842,713.555c0,2.543-2.065,4.612-4.608,4.612c-2.552,0-4.625-2.069-4.625-4.612
	c0-2.552,2.073-4.621,4.625-4.621C451.776,708.934,453.842,711.003,453.842,713.555z"/>
<path fill="#FFFFFF" d="M453.321,722.788c0,2.545-2.065,4.61-4.608,4.61c-2.552,0-4.616-2.065-4.616-4.61
	c0-2.559,2.064-4.621,4.616-4.621C451.256,718.167,453.321,720.229,453.321,722.788z"/>
<path fill="#FFFFFF" d="M453.842,732.814c0,2.539-2.065,4.61-4.608,4.61c-2.552,0-4.625-2.071-4.625-4.61
	c0-2.556,2.073-4.623,4.625-4.623C451.776,728.191,453.842,730.259,453.842,732.814z"/>
<path fill="#FFFFFF" d="M453.595,742.771c0,2.545-2.083,4.617-4.626,4.617s-4.607-2.072-4.607-4.617s2.064-4.614,4.607-4.614
	S453.595,740.227,453.595,742.771z"/>
<path fill="#FFFFFF" d="M453.321,752.7c0,2.554-2.065,4.619-4.608,4.619c-2.552,0-4.616-2.065-4.616-4.619
	c0-2.543,2.064-4.608,4.616-4.608C451.256,748.092,453.321,750.157,453.321,752.7z"/>
<path fill="#FFFFFF" d="M453.321,763.197c0,2.551-2.065,4.618-4.608,4.618c-2.552,0-4.616-2.067-4.616-4.618
	c0-2.543,2.064-4.615,4.616-4.615C451.256,758.582,453.321,760.654,453.321,763.197z"/>
<path fill="#FFFFFF" d="M453.595,773.229c0,2.543-2.083,4.621-4.626,4.621s-4.607-2.078-4.607-4.621
	c0-2.546,2.064-4.619,4.607-4.619S453.595,770.683,453.595,773.229z"/>
<path fill="#FFFFFF" d="M453.065,783.199c0,2.541-2.065,4.611-4.625,4.611c-2.535,0-4.6-2.07-4.6-4.611c0-2.56,2.064-4.62,4.6-4.62
	C451,778.579,453.065,780.64,453.065,783.199z"/>
<path fill="#FFFFFF" d="M453.065,793.122c0,2.55-2.065,4.619-4.625,4.619c-2.535,0-4.6-2.069-4.6-4.619
	c0-2.545,2.064-4.614,4.6-4.614C451,788.508,453.065,790.577,453.065,793.122z"/>
<path fill="#FFFFFF" d="M280.292,634.615c0,2.552-2.065,4.623-4.608,4.623c-2.551,0-4.617-2.071-4.617-4.623
	c0-2.545,2.065-4.612,4.617-4.612C278.228,630.003,280.292,632.07,280.292,634.615z"/>
<path fill="#FFFFFF" d="M280.805,643.949c0,2.541-2.048,4.617-4.6,4.617c-2.552,0-4.625-2.076-4.625-4.617
	c0-2.545,2.074-4.614,4.625-4.614C278.756,639.335,280.805,641.404,280.805,643.949z"/>
<path fill="#FFFFFF" d="M280.292,653.739c0,2.546-2.065,4.617-4.608,4.617c-2.551,0-4.617-2.071-4.617-4.617
	c0-2.547,2.065-4.614,4.617-4.614C278.228,649.125,280.292,651.192,280.292,653.739z"/>
<path fill="#FFFFFF" d="M280.292,663.5c0,2.552-2.065,4.614-4.608,4.614c-2.551,0-4.617-2.062-4.617-4.614
	c0-2.547,2.065-4.614,4.617-4.614C278.228,658.886,280.292,660.953,280.292,663.5z"/>
<path fill="#FFFFFF" d="M280.548,672.605c0,2.552-2.065,4.619-4.608,4.619c-2.552,0-4.617-2.067-4.617-4.619
	c0-2.55,2.065-4.614,4.617-4.614C278.483,667.991,280.548,670.056,280.548,672.605z"/>
<path fill="#FFFFFF" d="M281.078,681.933c0,2.556-2.074,4.621-4.608,4.621c-2.56,0-4.625-2.065-4.625-4.621
	c0-2.541,2.065-4.612,4.625-4.612C279.004,677.32,281.078,679.392,281.078,681.933z"/>
<path fill="#FFFFFF" d="M280.548,691.728c0,2.547-2.065,4.612-4.608,4.612c-2.552,0-4.617-2.065-4.617-4.612
	c0-2.546,2.065-4.61,4.617-4.61C278.483,687.117,280.548,689.182,280.548,691.728z"/>
<path fill="#FFFFFF" d="M280.548,701.485c0,2.552-2.065,4.619-4.608,4.619c-2.552,0-4.617-2.067-4.617-4.619
	c0-2.545,2.065-4.614,4.617-4.614C278.483,696.871,280.548,698.94,280.548,701.485z"/>
<path fill="#FFFFFF" d="M280.037,710.721c0,2.55-2.074,4.613-4.617,4.613s-4.617-2.063-4.617-4.613c0-2.554,2.074-4.616,4.617-4.616
	S280.037,708.167,280.037,710.721z"/>
<path fill="#FFFFFF" d="M280.548,720.049c0,2.549-2.065,4.618-4.608,4.618c-2.552,0-4.617-2.069-4.617-4.618
	c0-2.55,2.065-4.617,4.617-4.617C278.483,715.432,280.548,717.499,280.548,720.049z"/>
<path fill="#FFFFFF" d="M280.037,729.839c0,2.554-2.074,4.618-4.617,4.618s-4.617-2.064-4.617-4.618
	c0-2.546,2.074-4.617,4.617-4.617S280.037,727.293,280.037,729.839z"/>
<path fill="#FFFFFF" d="M280.037,739.597c0,2.55-2.074,4.617-4.617,4.617s-4.617-2.067-4.617-4.617c0-2.549,2.074-4.614,4.617-4.614
	S280.037,737.048,280.037,739.597z"/>
<path fill="#FFFFFF" d="M280.037,748.832c0,2.546-2.074,4.619-4.625,4.619c-2.534,0-4.608-2.073-4.608-4.619
	c0-2.543,2.074-4.618,4.608-4.618C277.963,744.214,280.037,746.289,280.037,748.832z"/>
<path fill="#FFFFFF" d="M280.037,758.063c0,2.554-2.074,4.617-4.617,4.617s-4.617-2.063-4.617-4.617
	c0-2.545,2.074-4.612,4.617-4.612S280.037,755.519,280.037,758.063z"/>
<path fill="#FFFFFF" d="M280.037,767.686c0,2.552-2.074,4.617-4.617,4.617s-4.617-2.065-4.617-4.617
	c0-2.545,2.074-4.612,4.617-4.612S280.037,765.141,280.037,767.686z"/>
<path fill="#FFFFFF" d="M453.065,803.227c0,2.547-2.065,4.612-4.625,4.612c-2.535,0-4.6-2.065-4.6-4.612
	c0-2.546,2.064-4.617,4.6-4.617C451,798.609,453.065,800.681,453.065,803.227z"/>
<path fill="#FFFFFF" d="M280.037,794.674c0,2.543-2.074,4.616-4.617,4.616s-4.617-2.073-4.617-4.616
	c0-2.552,2.074-4.615,4.617-4.615S280.037,792.122,280.037,794.674z"/>
<path fill="#FFFFFF" d="M280.037,804.779c0,2.539-2.074,4.614-4.625,4.614c-2.534,0-4.608-2.075-4.608-4.614
	c0-2.55,2.074-4.619,4.608-4.619C277.963,800.16,280.037,802.229,280.037,804.779z"/>
<path fill="#FFFFFF" d="M280.292,785.436c0,2.552-2.065,4.623-4.608,4.623c-2.551,0-4.617-2.071-4.617-4.623
	c0-2.545,2.065-4.605,4.617-4.605C278.228,780.83,280.292,782.891,280.292,785.436z"/>
<path fill="#FFFFFF" d="M280.037,776.917c0,2.545-2.074,4.618-4.617,4.618s-4.617-2.073-4.617-4.618
	c0-2.548,2.074-4.614,4.617-4.614S280.037,774.369,280.037,776.917z"/>
<polygon fill="#808080" points="370.826,744.657 377.03,748.832 377.03,744.214 "/>
<polygon fill="#808080" points="382.534,737.425 385.41,742.771 389.046,738.157 386.255,732.277 "/>
<rect x="395.506" y="732.277" fill="#808080" width="4.6" height="3.106"/>
<polygon fill="#808080" points="397.801,725.222 398.816,728.191 403.434,727.398 403.434,722.788 "/>
<polygon fill="#808080" points="408.059,720.049 412.658,722.788 417.283,718.167 411.856,715.432 "/>
<polygon fill="#808080" points="423.138,715.432 422.097,722.788 427.559,722.788 429.12,713.546 "/>
<polygon fill="#808080" points="418.709,711.5 421.064,713.546 423.923,708.934 "/>
<polygon fill="#808080" points="433.745,708.402 435.366,711.239 440.563,706.292 438.361,702.358 "/>
<polygon fill="#808080" points="459.056,698.616 459.056,703.785 464.262,702.358 467.368,697.185 "/>
<polygon fill="#808080" points="471.532,695.106 475.654,699.175 479.613,695.106 476.737,693.999 "/>
<polygon fill="#808080" points="487.413,691.198 485.86,693.999 489.231,696.592 492.884,692.764 "/>
<polygon fill="#808080" points="494.957,687.812 496.783,692.764 498.865,689.287 496.911,686.518 "/>
<polygon fill="#808080" points="361.985,745.24 355.901,752.012 352.786,746.521 "/>
<polygon fill="#808080" points="352.786,737.523 354.826,741.426 348.972,742.771 344.807,737.523 "/>
<polygon fill="#808080" points="340.472,728.934 340.472,731.019 343.706,732.277 343.706,730.606 "/>
<rect x="339.098" y="734.982" fill="#808080" width="2.995" height="2.541"/>
<polygon fill="#808080" points="334.055,728.934 337.972,730.606 336.009,732.277 "/>
<polygon fill="#808080" points="333.346,722.788 336.009,724.667 331.623,725.484 "/>
<polygon fill="#808080" points="319.505,720.775 319.505,729.839 324.855,727.195 324.855,721.823 "/>
<polygon fill="#808080" points="319.505,715.334 319.505,717.661 322.184,717.661 322.184,714.535 "/>
<polygon fill="#808080" points="312.021,716.098 310.391,718.263 311.21,719.635 314.555,717.863 "/>
<polygon fill="#808080" points="311.364,710.721 309.674,711.5 309.674,712.603 312.473,712.603 "/>
<polygon fill="#808080" points="304.537,707.466 304.537,709.872 306.098,708.667 "/>
<polygon fill="#808080" points="307.396,713.966 305.313,713.58 306.098,715.334 309.085,714.535 "/>
<path fill="#434343" d="M518.441,784.076l0.265-3.626l1.323-68.071l-7.809-36.8l-4.557-25.494l1.519-14.535
	c0,0-2.483-10.507-1.741-13.933c1.178-5.422,11.589-18.92,11.589-18.92l5.863-10.979l11.103-19.83l8.746-14.368
	c0,0,6.854-0.154,8.005,1.54c2.842,4.222-3.857,20.003-3.857,20.003l-6.477,18.474l6.707-0.945l5.505-2.822l7.168-7.533
	c0,0-3.439-3.744-2.782-5.024c0.648-1.25,5.572-0.695,5.572-0.695l3.158-2.925l6.707-7.279l-4.258-4.095c0,0-8.244,0.956-9.72-0.706
	c-1.639-1.86-5.667-6.835-4.336-8.928c1.844-2.906,13.731-1.033,13.731-1.033l12.621,0.188l5.001,2.594l-4.788-8.679l-9.651-7.772
	c0,0-3.908-5.79-3.84-8.009c0.085-2.354,3.899-6.91,6.255-7.029c2.466-0.126,7.279,6.703,7.279,6.703l10.104,7.529l2.773,5.023
	c0,0,3.704-7.089,5.377-9.196c1.288-1.626,3.908-4.466,5.956-4.812c1.655-0.277,6.597,1.127,6.597,1.127l-9.95,25.155l3.337,7.1
	l-1.545,8.003c0,0,3.004,5.385,2.867,7.35c-0.281,3.979-7.843,13.867-7.843,13.867l-2.201,8.958l-1.485,9.167l-3.755,16.965
	l-44.485,47.814l-0.358,19.862l15.104,59.552c0,0-4.011,3.845-10.65,8.28c-7.296,4.855-7.296,3.904-11.546,6.354
	c-4.617,2.679-13.705,6.934-13.705,6.934L518.441,784.076z"/>
<polygon fill="#808080" points="301.413,706.104 299.391,706.879 299.075,709.478 300.833,708.667 "/>
<polygon fill="#808080" points="301.413,711.041 302.514,711.666 301.977,712.347 "/>
<polygon fill="#808080" points="295.158,704.801 293.221,704.801 293.221,706.681 295.158,707.466 296.472,705.123 "/>
<polygon fill="#808080" points="287.23,704.801 284.44,711.239 290.857,716.098 291.855,711.239 "/>
<polygon fill="#808080" points="264.488,699.263 256.5,699.263 256.5,704.801 263.097,708.667 "/>
<polygon fill="#808080" points="248.172,696.34 252.507,696.34 251.304,702.358 244.707,702.358 "/>
<polygon fill="#808080" points="239.348,693.718 237.599,699.263 227.708,699.354 233.537,693.718 "/>
<polygon fill="#808080" points="227.708,688.333 223.535,689.545 224.397,693.718 230.131,691.027 "/>
<polygon fill="#808080" points="241.754,692.675 241.754,694.93 244.707,694.93 244.707,691.728 "/>
<polygon fill="#808080" points="267.603,699.263 267.603,702.358 268.994,700.817 "/>
<polygon fill="#808080" points="408.059,724.132 406.582,727.398 410.218,727.398 410.218,724.132 "/>
<polygon fill="#808080" points="395.506,727.398 395.506,728.934 393.739,728.934 392.698,725.766 "/>
<polygon fill="#808080" points="390.266,732.277 390.266,733.828 394.098,734.982 392.698,732.807 "/>
<polygon fill="#808080" points="379.505,736.258 378.635,738.157 379.505,740.907 379.505,738.577 "/>
<polygon fill="#808080" points="469.382,700.491 467.368,706.104 471.532,708.934 472.847,703.785 "/>
<polygon fill="#808080" points="483.94,698.616 479.955,702.358 486.568,708.402 486.568,702.358 "/>
<polygon fill="#808080" points="427.559,706.811 427.559,708.934 429.811,706.811 429.12,704.707 "/>
<polygon fill="#808080" points="225.446,696.871 221.282,699.263 221.282,703.088 224.397,700.817 "/>
<polygon fill="#808080" points="264.488,712.347 261.792,714.535 261.792,718.167 266.553,714.455 "/>
<polygon fill="#A41E22" points="555.785,552.084 554.036,561.819 533.905,571.568 531.456,566.767 "/>
</svg>
