<?xml version="1.0" encoding="utf-8"?>
<!-- Generator: Adobe Illustrator 16.0.0, SVG Export Plug-In . SVG Version: 6.00 Build 0)  -->
<!DOCTYPE svg PUBLIC "-//W3C//DTD SVG 1.1//EN" "http://www.w3.org/Graphics/SVG/1.1/DTD/svg11.dtd">
<svg version="1.1" id="Layer_2" xmlns="http://www.w3.org/2000/svg" xmlns:xlink="http://www.w3.org/1999/xlink" x="0px" y="0px"
	 width="728.5px" height="1031.811px" viewBox="0 0 728.5 1031.811" enable-background="new 0 0 728.5 1031.811"
	 xml:space="preserve">
<path fill="#FFFFFF" d="M184.564,725.211l1.572-0.585l-0.783-2.525l-3-11.132l-0.796-2.927c0,0,0.983-4.395,1.087-5.937
	c0.163-2.546-1.441-10.068-1.441-10.068s-0.686,1.105-0.859,1.524c-0.194,0.45-0.589,1.949-0.589,1.949s-0.672-7.516-1.351-9.933
	c-0.686-2.445-2.688-7.18-4.07-9.32c-2.435-3.755-11.468-13.768-11.468-13.768l-9.746-9.916c0,0-0.235,1.607-0.235,2.157
	c0,0.604,0.211,2.425,0.211,2.425s-0.98-2.798-1.544-3.592c-0.779-1.111-2.761-3.103-3.987-3.706
	c-1.579-0.748-3.166-1.053-4.977-0.997c-0.654,0.014-2.185,0.097-2.836-0.201c-0.859-0.384-2.76-2.569-2.76-2.569
	s-0.852,4.998-0.925,6.113c-0.135,2.344,0.647,7.1,1.628,9.22c3.131,6.812,11.603,19.6,17.207,24.587
	c1.448,1.278,6.338,5.047,6.338,5.047s-1.098-0.496-1.472-0.606c-0.426-0.128-1.752-0.381-1.752-0.381s7.214,11.589,10.332,14.865
	c1.718,1.818,5.583,5.223,7.911,6.134c1.274,0.52,5.424,0.783,5.424,0.783l2.379,9.825L184.564,725.211z"/>
<path fill="#1AD5BB" d="M719.038,468.44c0,198.164-158.992,358.815-355.116,358.815C167.8,827.256,8.801,666.604,8.801,468.44
	c0-198.182,158.999-358.83,355.121-358.83C560.046,109.611,719.038,270.259,719.038,468.44"/>
<path fill="#F9C9B4" d="M129.664,725.938c0,0,94.582,90.709,232.682,92.185c157.232,1.666,235.13-95.541,235.13-95.541
	s-125.254,3.595-146.801-28.969c-17.043-25.786-8.222-81.005-8.222-81.005s10.682-9.112,13.511-12.808
	c2.965-3.886,7.034-13.044,9.272-17.221c3.03-5.659,8.603-16.393,10.602-22.523c5.729-17.556,7.644-23.683,10.138-31.587
	c2.39-7.619,9.601-30.479,9.601-30.479s13.47-10.748,15.572-15.894c1.818-4.454,2.323-15.011,0-19.216
	c-1.722-3.117-7.461-8.88-11.015-9.022c-2.23-0.093-7.872,4.17-7.872,4.17v-31.245c0,0,0.502-11.131,0-15.568
	c-1.822-16.389-8.479-50.785-25.173-63.271c-24.026-17.989-65.879-36.765-104.664-36.765c-31.812,0-84.471,18.644-103.357,36.765
	c-13.491,12.954-29.817,45.857-33.115,63.438c-0.852,4.53,0,18.426,0,18.426v31.798c0,0-8.485-8.208-12.029-7.748
	c-3.488,0.443-8.596,6.993-9.514,10.401c-1.171,4.381-1.974,14.252,0.339,18.173c3.297,5.586,21.204,14.945,21.204,14.945
	l7.692,30.476l9.307,29.097c0,0,7.904,20.293,11.617,26.51c3.027,5.057,14.571,18.547,14.571,18.547l15.111,10.813
	c0,0-1.019,72.089-13.487,81.223C233.815,721.106,129.664,725.938,129.664,725.938z"/>
<path fill="#FABB9F" d="M356.184,311.384l4.257,334.19c0,0,25.291,2.581,53.262-15.43c26.174-16.85,34.099-19.6,41.358-30.146
	c20.735-30.111,39.615-101.792,39.615-101.792s13.112-10.903,15.568-15.895c2.119-4.315,2.058-14.875,0-19.219
	c-1.524-3.218-7.453-8.905-11.014-9.026c-2.228-0.066-7.862,4.17-7.862,4.17s4.869-79.373-17.145-101.477
	C429.028,311.384,356.184,311.384,356.184,311.384"/>
<path fill="#FFFFFF" d="M289.148,682.918c0,4.398-3.775,7.952-8.437,7.952c-4.669,0-8.451-3.554-8.451-7.952
	c0-4.389,3.782-7.963,8.451-7.963C285.373,674.955,289.148,678.529,289.148,682.918z"/>
<path fill="#F6B79E" d="M442.879,611.656c0,0-41.167,27.365-64.732,32.259c-23.58,4.881-46.117-2.209-51.247-5.15
	c-5.119-2.943-27.327-12.492-27.327-12.492s42.906,39.196,49.535,42.996c12.493,7.173,35.155,18.464,48.361,21.071
	c26.371,5.202,53.206,3.273,53.206,3.273s-7.55-26.818-9.968-35.376c-3.145-11.226,1.67-49.327,1.67-49.327"/>
<path fill="#FFFFFF" d="M324.916,706.781c0,4.409-3.786,7.974-8.444,7.974c-4.665,0-8.447-3.564-8.447-7.974
	c0-4.385,3.782-7.952,8.447-7.952C321.13,698.829,324.916,702.396,324.916,706.781z"/>
<path fill="#FFFFFF" d="M339.175,713.044c0,4.395-3.782,7.962-8.444,7.962c-4.672,0-8.447-3.567-8.447-7.962
	c0-4.389,3.775-7.956,8.447-7.956C335.393,705.088,339.175,708.655,339.175,713.044z"/>
<path fill="#FFFFFF" d="M369.841,718.263c0,4.393-3.789,7.967-8.44,7.967c-4.669,0-8.448-3.574-8.448-7.967
	c0-4.395,3.779-7.962,8.448-7.962C366.052,710.301,369.841,713.868,369.841,718.263z"/>
<path fill="#FFFFFF" d="M403.616,718.263c0,4.393-3.774,7.967-8.44,7.967c-4.669,0-8.437-3.574-8.437-7.967
	c0-4.395,3.768-7.962,8.437-7.962C399.842,710.301,403.616,713.868,403.616,718.263z"/>
<path fill="#FFFFFF" d="M415.863,713.044c0,4.395-3.782,7.962-8.45,7.962c-4.655,0-8.441-3.567-8.441-7.962
	c0-4.389,3.786-7.956,8.441-7.956C412.081,705.088,415.863,708.655,415.863,713.044z"/>
<path fill="#FFFFFF" d="M443.759,697.129c0,4.392-3.782,7.959-8.447,7.959c-4.666,0-8.444-3.567-8.444-7.959
	c0-4.396,3.778-7.952,8.444-7.952C439.977,689.177,443.759,692.733,443.759,697.129z"/>
<ellipse fill="#FFFFFF" cx="420.508" cy="705.088" rx="8.444" ry="7.956"/>
<path fill="#FFFFFF" d="M455.129,686.662c0,4.388-3.785,7.952-8.447,7.952s-8.454-3.564-8.454-7.952
	c0-4.398,3.792-7.959,8.454-7.959S455.129,682.264,455.129,686.662z"/>
<path fill="#FFFFFF" d="M386.739,719.704c0,4.395-3.789,7.959-8.462,7.959c-4.654,0-8.437-3.564-8.437-7.959
	c0-4.392,3.782-7.959,8.437-7.959C382.95,711.745,386.739,715.312,386.739,719.704z"/>
<path fill="#FFFFFF" d="M354.432,716.701c0,4.396-3.772,7.952-8.438,7.952c-4.665,0-8.444-3.557-8.444-7.952
	c0-4.389,3.779-7.966,8.444-7.966C350.66,708.735,354.432,712.312,354.432,716.701z"/>
<path fill="#FFFFFF" d="M299.573,690.87c0,4.405-3.775,7.959-8.44,7.959s-8.44-3.554-8.44-7.959c0-4.385,3.775-7.952,8.44-7.952
	S299.573,686.485,299.573,690.87z"/>
<path fill="#FFFFFF" d="M313.33,698.829c0,4.402-3.782,7.952-8.451,7.952c-4.655,0-8.444-3.55-8.444-7.952
	c0-4.392,3.789-7.959,8.444-7.959C309.548,690.87,313.33,694.438,313.33,698.829z"/>
<path fill="#F4E5A9" d="M298.548,324.705c2.3,8.77,11.184,23.465,19.621,34.476c5.369,7,10.553,12.514,13.74,14.055
	c5.826,2.816,26.901,19.198,32.11,22.915c5.344,3.81,6.116-19.285,11.661-19.475c12.573-0.457,14.107,40.776,21.155,46.993
	c7.284,6.411,28.47,16.126,33.396,19.87c5.552,4.215,4.797-16.805,9.646-17.958c17.449-4.167,37.794,51.921,46.01,56.552
	c6.604,3.713,16.652-17.519,22.107-13.927c6.625,4.385-9.851,23.711-7.638,31.493c1.361,4.773,10.782,10.457,15.337,12.043
	c6.923,2.403,29.187,0,29.187,0s-12.507-5.635-13.528-9.746c-3.207-12.843,18.654-39.038,13.528-51.205
	c-2.836-6.74-22.551-6.934-25.231-13.75c-3.713-9.452,16.081-29.824,11.703-38.978c-3.301-6.893-19.132-7.069-23.569-13.251
	c-5.413-7.533-0.027-27.771-5.946-34.877c-2.563-3.096-24.093-21.574-29.405-25.228c-4.648-3.2-15.978-2.643-19.943-6.117
	c-4.9-4.298-6.868-19.711-12.61-23.129c-7.668-4.582-26.783-12.309-35.992-13.165c-7.571-0.703-39.298,6.418-46.744,8.021
	c-8.683,1.86-26.572-14.682-34.14-9.937c-3.19,2.005-2.972,15.08-2.972,15.08l-21.48,3.266
	C298.548,298.725,296.906,318.433,298.548,324.705z"/>
<path fill="#F4E5A9" d="M225.052,497.593l8.884,5.271c0,0-4.942,4.094-4.44,5.843c0.897,3.204,10.709,4.184,10.941,7.468
	c0.26,3.747-10.169,6.448-11.048,10.075c-0.478,1.995,3.623,5.455,3.353,7.478c-0.707,5.403-13.743,16.881-13.743,16.881
	s6.653-12.34,5.521-16.556c-0.609-2.247-5.901-5.181-5.521-7.474c0.526-3.222,10.584-4.201,10.716-7.468
	c0.229-5.334-15.031-7.793-17.213-12.662c-1.58-3.516,1.438-15.344,1.438-15.344L225.052,497.593z"/>
<path fill="#F4E5A9" d="M494.6,498.365c0,0,10.948,3.778,11.623,7.131c0.665,3.28-8.257,7.589-7.793,10.903
	c0.693,4.984,15.562,7.651,15.597,12.677c0.011,4.004-11.613,6.29-12.341,10.221c-0.54,2.864,7.786,8.61,7.786,8.61
	s-19.268-3.215-21.113-8.61c-0.828-2.442,5.05-6.349,5.202-8.919c0.152-2.674-5.327-9.912-5.327-9.912L494.6,498.365z"/>
<path fill="#EC1E24" d="M230.684,716.081l40.856,45.352l90.806,54.369l118.441-48.703l56.85-50.567c0,0,2.145-5.233,3.782-5.351
	c2.345-0.17,6.501,6.819,6.501,6.819s7.616-6.851,10.82-6.819c3.816,0.023,14.65,9.514,12.084,9.292
	c-2.591-0.239,11.776-12.742,16.5-11.163c3.27,1.088,5.455,12.663,5.455,12.663s4.787-8.382,7.54-8.115
	c2.511,0.249,7.114,15.752,7.114,15.752s-12.278,12.361-33.842,28.456c-21.647,16.157-49.958,31.94-67.355,39.214
	c-35.76,14.952-74.832,29.73-143.856,30.901c-20.154,0.343-60.313-5.711-80-10.037c-23.905-5.247-55.125-17.861-74.344-27.213
	c-12.112-5.898-31.847-17.366-51.714-31.352c-18.613-13.109-37.538-31.528-37.538-31.528s4.527-9.504,6.453-10.051
	c2.463-0.689,8.132,6.199,8.132,6.199s-1.728-12.025,1.399-12.939c3.308-0.98,8.662,10.713,8.662,10.713s2.054-7.866,4.333-8.76
	c2.151-0.838,8.607,3.318,8.607,3.318l25.418-7.222L230.684,716.081z"/>
<path fill="#F4E5A9" d="M225.052,461.818c0,0,21.314-48.773,43.46-63.528c12.41-8.25,54.605-34.161,54.605-34.161l-11.88-43.47
	c0,0-48.634,10.578-60.414,21.439c-13.411,12.365-27.892,48.448-29.887,66.579C219.49,421.925,225.052,461.818,225.052,461.818z"/>
<path fill="#EF5F7E" d="M199.159,682.104l2.798-0.728l17.304-7.333l12.219-0.162l10.321,6.161l3.353,2.459l6.11-0.855l5.295,1.995
	l3.322,3.775l5.299,3.086l5.583,3.54l3.293,6.369l-0.291,6.394l-0.284,1.386l0.377,6.985l5.59,6.29l5.444,7.343
	c0,0,5.476,6.438,5.22,8.606c-0.506,4.243-11.897,13.449-11.897,13.449l-6.677,10.567l-2.685,3.664l-10.079,2.943l-15.361,0.714
	l-12.264,1.323c0,0-6.986-1.06-9.514-1.236c-4.413-0.326-13.438,1.167-17.879,0.672c-2.583-0.302-9.937-3.09-9.937-3.09
	l-16.331-6.649l-6.705-14.142c0,0-4.804-10.688-3.249-13.917c2.026-4.204-3.152-17.061-3.152-17.061l0.683-4.437l8.468,0.048
	l4.904-10.276l6.961-3.162l7.758-8.223l4.901-6.712L199.159,682.104z"/>
<g>
	<path fill="#EC1E24" d="M202.501,768.91c0,0-12.389-3.381-16.331-5.019c-2.864-1.191-8.818-3.605-10.965-5.851
		c-1.348-1.406-2.473-5.302-3.377-7.017c-1.694-3.242-5.503-9.646-6.162-13.234c-0.672-3.619,2.417-11.273,1.039-14.678
		c-0.873-2.165-5.708-5.147-5.611-7.475c0.083-2.103,3.536-5.701,5.552-6.241c1.68-0.45,6.889,0.869,6.889,0.869
		s-7.523,2.248-8.236,4.489c-0.655,2.061,3.204,5.684,3.831,7.751c0.751,2.47-1.178,7.748-0.804,10.301
		c0.783,5.357,4.496,15.9,7.807,20.175c1.967,2.524,7.142,6.47,9.85,8.198C189.835,763.617,202.501,768.91,202.501,768.91z"/>
	<path fill="#EC1E24" d="M231.151,770.077l19.344-2.078c0,0,11.873-0.956,15.212-2.927c2.622-1.541,5.916-6.965,7.82-9.323
		c3.734-4.642,14.626-12.889,14.578-18.835c-0.049-6.837-8.884-14.592-12.652-18.835c-0.873-0.986-3.152-4.222-3.152-4.222
		s10.238,8.548,12.635,12.223c1.621,2.459,6.529,6.917,6.449,9.86c-0.118,4.201-7.329,10.238-9.906,13.539
		c-2.39,3.065-8.021,8.568-9.94,11.953c-0.932,1.665-0.915,6.213-2.536,7.242c-0.977,0.641-3.467-0.475-4.634-0.416
		c-3.983,0.18-15.659,2.989-15.659,2.989L231.151,770.077z"/>
	<path fill="#EC1E24" d="M230.157,767.376c0,0,13.082-0.572,16.881-2.494c4.173-2.123,9.86-10.01,13.071-13.414
		c2.604-2.732,8.603-7.706,10.224-11.121c1.58-3.284,2.237-14.408,2.237-14.408s-3.768,11.094-6.165,14.106
		c-1.417,1.767-5.503,4.062-7,5.764c-2.508,2.864-5.216,10.384-8.06,12.915C247.07,762.523,230.157,767.376,230.157,767.376z"/>
	<path fill="#EC1E24" d="M262.926,731.67c0,0-1.354,10.422-3.204,13.293c-2.126,3.318-12.382,9.75-12.382,9.75l-7.069-0.218
		c0,0,5.548-0.472,7.176-1.282c3.068-1.521,8.07-6.49,10.065-9.268C259.503,741.146,259.542,740.977,262.926,731.67z"/>
	<path fill="#EC1E24" d="M219.652,768.2c0,0-4.083-6.231-5.909-7.894c-4.624-4.198-17.269-8.274-21.391-12.971
		c-3.65-4.191-5.76-15.859-9.14-20.266c-2.234-2.927-11.384-9.323-11.384-9.323s4.749,7.429,5.58,10.225
		c1.205,4.038,0.35,12.731,1.347,16.829c0.62,2.556,3.613,7.155,5.507,8.983c2.144,2.058,7.644,4.684,10.394,5.812
		c3.263,1.368,10.263,2.75,13.625,3.844C211.212,764.39,219.652,768.2,219.652,768.2z"/>
	<path fill="#EC1E24" d="M184.37,697.624c0,0-6.66,4.118-7.807,6.355c-0.727,1.386-0.416,6.234-0.416,6.234l6.4,13.985
		l-8.783-12.357c0,0-1.316-6.48-0.679-8.53c0.474-1.549,2.646-4.271,4.076-5.033C178.755,697.43,184.37,697.624,184.37,697.624z"/>
	<path fill="#EC1E24" d="M203.107,683.403l-0.461-0.143c0,0-3.387-1.309-4.585-1.368c-0.911-0.048-2.843,0.555-3.463,1.233
		c-0.703,0.744-0.409,3.189-1.112,3.935c-0.776,0.852-3.45,0.835-4.315,1.593c-1.365,1.167-3.429,6.304-3.429,6.304l-1.628,8.971
		l1.289,12.86l6.997,13.435l-4.963-14.308l-0.454-11.832c0,0,0.353-6.611,1.17-8.648c0.544-1.329,2.296-3.727,3.401-4.634
		c0.748-0.63,2.542-1.503,3.2-2.21c0.928-1.015,1.538-4.035,2.688-4.772C198.643,683.063,203.107,683.403,203.107,683.403z"/>
	<path fill="#EC1E24" d="M241.802,680.043c0,0-8.61-4.478-11.762-5.032c-3.294-0.596-10.141-0.166-13.379,0.696
		c-3.062,0.82-11.71,4.894-11.71,4.894s8.239-6.327,11.388-7.703c3.142-1.378,10.293-2.424,13.604-1.537
		C233.489,672.31,241.802,680.043,241.802,680.043z"/>
	<path fill="#EC1E24" d="M205.674,682.325c0,0,6.605-1.748,8.87-1.835c1.323-0.049,3.976,0.499,5.188,1.021
		c1.714,0.762,4.288,3.82,6.061,4.43c1.316,0.464,4.18,0.36,5.576,0.239c1.312-0.125,3.941-0.499,5.257-0.419
		c3.014,0.187,11.825,2.518,11.825,2.518s-7.107-3.547-9.677-4.111c-1.787-0.395-7.353-0.225-7.353-0.225s-4.651-0.6-6.113-1.119
		c-1.669-0.589-4.551-2.833-6.241-3.377c-1.399-0.443-4.392-0.973-5.826-0.703C211.191,679.149,205.674,682.325,205.674,682.325z"/>
	<polygon fill="#EC1E24" points="251.95,692.422 256.646,704.672 256.276,718.163 259.296,719.188 262.721,722.884 264.495,729.928 
		264.612,723.285 260.837,717.349 259.771,713.394 258.063,705.715 	"/>
	<polygon fill="#EC1E24" points="247.045,682.897 251.521,690.523 257.1,693.226 266.503,701.503 269.281,713.934 268.159,728.051 
		271.085,714.155 269.378,701.624 260.712,692.896 254.741,690.517 	"/>
	<path fill="#EC1E24" d="M245.154,682.502c0,0,6.65-2.31,8.86-1.832c1.295,0.277,3.321,2.186,4.253,3.117
		c0.984,0.97,2.283,3.491,3.314,4.398c1.32,1.171,4.472,2.864,6.11,3.495c0.994,0.37,3.37,0.159,4.17,0.862
		c1.022,0.89,1.562,3.769,1.815,5.095c0.53,2.701,0.862,8.295,0.454,11.021c-0.18,1.181-1.357,4.554-1.357,4.554l-0.471-7.474
		c0,0,0.395-8.402-1.268-10.439c-1.143-1.399-5.323-1.312-6.872-2.255c-2.002-1.205-5.088-4.824-6.719-6.504
		c-0.713-0.724-1.843-2.546-2.753-3.003C252.549,682.461,245.154,682.502,245.154,682.502z"/>
	<path fill="#EC1E24" d="M194.286,727.652c0,0,1.244,11.44,3.079,14.728c1.593,2.867,7.19,6.812,10.079,8.36
		c3.827,2.054,12.552,3.737,16.881,4.042c4.832,0.35,19.285-1.725,19.285-1.725s-16.763-5.607-22.242-7.752
		c-3.813-1.514-14.325-4.62-17.75-6.864C200.226,736.229,194.286,727.652,194.286,727.652z"/>
	<path fill="#EC1E24" d="M220.733,687.995l-13.74,2.816l-9.082,7.803l-4.752,15.14l2.161,12.479l9.487,8.133l11.315,4.52
		l9.611,5.046c0,0,8.032,3.647,10.91,4.025c1.77,0.238,5.458-0.513,6.982-1.414c3.162-1.877,7.208-8.502,8.69-11.865
		c0.956-2.183,1.718-6.948,1.87-9.334c0.125-1.971-0.54-7.918-0.54-7.918s-7.156,9.092-9.965,11.728
		c-1.271,1.185-4.062,3.308-5.597,4.118c-2.587,1.382-10.92,4.381-10.92,4.381s2.719,1.968,3.602,2.646
		c1.146,0.88,3.346,2.681,4.672,3.359c1.285,0.669,5.801,2.089,5.801,2.089s-4.039,0.533-5.355,0.267
		c-2.452-0.468-9.06-4.257-9.06-4.257l-6.228-3.668l-6.608-2.75l-8.853-3.308l-5.86-6.071l-0.464-4.499l-2.736-7.354l1.219-7.619
		l2.002-5.171l4.51-3.73l4.665-0.149l0.648,0.468l-6.463,10.72l0.083,12.334l8.247,8.219l9.819,5.801l11.585-0.824
		c0,0,4.576-4.998,5.604-6.979c1.361-2.602,3.294-11.26,3.294-11.26l-13.03,8.877l-8.104,0.803l-6.2-2.354l-4.949-1.099
		l-2.165,0.243c0,0,2.584-1.794,3.561-2.151c1.542-0.558,4.915-0.741,6.55-0.551c2.417,0.299,7.104,2.4,9.528,2.12
		c2.951-0.336,10.699-5.137,10.699-5.137s-8.281,2.418-11.093,2.172c-3.312-0.277-10.481-2.016-12.396-4.71
		c-0.662-0.929-0.398-3.419-0.246-4.545c0.076-0.554,0.568-1.68,0.45-2.233c-0.125-0.62-1.461-2.061-1.461-2.061
		s2.213,0.384,2.878,0.121c0.564-0.201,1.357-1.337,1.423-1.93c0.118-1.104-1.784-4.076-1.784-4.076l-6.557,2.736l6.345-4.866
		L220.733,687.995z"/>
	<path fill="#EC1E24" d="M217.529,706.445c0,0,4.953,4.565,6.771,5.892c1.472,1.084,6.383,3.744,6.383,3.744
		s-4.218-0.332-5.51-0.873c-0.738-0.312-2.019-1.33-2.58-1.895c-0.776-0.762-1.954-2.607-2.598-3.474
		C219.379,708.991,217.529,706.445,217.529,706.445z"/>
	<path fill="#EC1E24" d="M217.855,693.011c0,0,3.699-1.888,5.057-2.04c1.683-0.181,5.04,0.748,6.695,1.136
		c0.89,0.215,3.602,0.762,3.602,0.762l-6.078,3.977c0,0,5.244-0.977,6.906-0.499c1.461,0.405,3.713,2.694,4.703,3.834
		c0.492,0.568,1.191,1.999,1.85,2.353c1.233,0.657,4.191,0.343,5.542,0.682c0.887,0.226,2.591,0.994,3.325,1.552
		c1.132,0.853,2.802,3.267,3.391,4.558c0.468,1.016,0.98,4.337,0.98,4.337s0.073-5.704-0.44-7.513
		c-0.554-1.974-2.927-5.458-4.285-6.992c-1.157-1.296-4.114-3.242-5.659-4.042c-1.403-0.731-4.475-1.556-5.937-2.154
		c-1.579-0.679-4.568-2.359-6.168-2.955c-1.299-0.46-4.042-0.973-5.414-0.99c-1.219,0-3.72,0.284-4.787,0.855
		C220.141,690.416,217.855,693.011,217.855,693.011z"/>
	<path fill="#EC1E24" d="M238.369,729.914c0,0,5.462-3.276,6.484-5.06c1.053-1.863,0.911-6.377,1.077-8.527
		c0.139-1.773,0.8-5.417,0.267-7.118c-0.523-1.683-2.611-4.911-4.215-5.666c-1.375-0.638-6.082-0.284-6.082-0.284
		s4.094,0.721,5.244,1.444c1.105,0.724,2.667,3.146,2.823,4.454c0.094,0.873-1.067,2.449-1.15,3.322
		c-0.169,1.718,1.209,5.146,0.925,6.86C243.239,722.26,238.369,729.914,238.369,729.914z"/>
	<path fill="#EC1E24" d="M224.886,696.381c0,0-4.36,0.82-5.31,1.853c-0.73,0.793-1.274,3.124-1.077,4.167
		c0.173,0.89,1.642,3.187,1.642,3.187s-0.516-2.823-0.263-3.71c0.218-0.744,1.309-1.904,1.818-2.483
		C222.423,698.573,224.886,696.381,224.886,696.381z"/>
	<path fill="#EC1E24" d="M225.336,698.479c0,0-3.629,3.775-3.973,5.424c-0.159,0.775,0.319,2.403,0.71,3.097
		c0.762,1.33,2.59,3.872,3.824,4.776c0.897,0.647,2.985,1.488,4.052,1.776c1.008,0.28,4.107,0.827,4.107,0.827
		s-4.107-1.828-5.41-2.566c-1.004-0.571-2.896-1.949-3.734-2.735c-0.693-0.665-1.877-2.3-1.988-3.242
		C222.697,703.917,225.336,698.479,225.336,698.479z"/>
	<path fill="#EC1E24" d="M226.105,699.058c0,0-0.125,1.988-0.163,2.646c-0.024,0.439-0.073,1.731-0.073,1.731
		s2.126-1.035,2.889-1.243c0.817-0.239,3.356-0.526,3.356-0.526s-2.587-0.481-3.432-0.721c-0.44-0.132-1.337-0.377-1.697-0.654
		C226.687,700.056,226.105,699.058,226.105,699.058z"/>
	<path fill="#EC1E24" d="M229.957,711.378c0,0,2.798-0.062,3.654-0.392c0.52-0.208,1.791-1.361,1.791-1.361l-1.739-0.481
		c0,0-1.96-0.395-2.556-0.689c-0.9-0.433-3.069-1.364-3.221-2.355c-0.146-0.91,1.406-2.451,2.168-2.964
		c0.62-0.416,2.099-1.022,2.826-0.901c0.914,0.153,2.601,1.258,3.353,1.85c0.845,0.687,2.702,1.985,3.204,2.948
		c0.243,0.457,0.866,1.683,0.963,2.185c0.135,0.687-0.121,2.124-0.592,2.644c-0.371,0.405-1.316,0.869-1.818,0.986
		c-0.71,0.156-2.913,0.149-2.913,0.149s2.968-1.219,3.38-2.141c0.194-0.426-0.243-1.44-0.437-1.884
		c-0.263-0.624-0.928-1.87-1.472-2.275c-0.717-0.513-3.37-1.077-3.37-1.077s2.262,1.416,2.84,2.078
		c0.433,0.495,1.295,1.655,1.25,2.307c-0.042,0.599-0.863,1.689-1.417,1.936c-0.492,0.219-1.631,0.073-2.175,0.042
		C232.738,711.907,229.957,711.378,229.957,711.378z"/>
</g>
<polygon fill="#F8AD90" points="344.242,544.246 374.814,544.246 360.821,556.175 "/>
<path fill="#F48F98" d="M359.28,583.966c0,0,5.708-5.694,11.208-2.695c5.995,3.263,12.271,9.459,12.271,9.459
	s-10.207,10.74-17.234,10.356c-3.862-0.222-6.183-1.639-6.183-1.639s-3.238,1.441-5.479,1.458
	c-5.975,0.028-19.544-10.335-19.544-10.335s10.359-8.987,14.976-10.1C352.775,579.622,359.28,583.966,359.28,583.966z"/>
<path fill="#EF5F7E" d="M277.046,745.881l1.514,0.523l10.249,1.949l5.687,3.679l2.871,6.03l0.786,2.164l3.083,1.482l1.829,2.553
	l0.371,2.764l1.503,3.052l1.479,3.366l-0.443,3.952l-2.103,2.86l-0.558,0.544l-1.974,3.346l0.637,4.617l0.26,5.07
	c0,0,0.544,4.655-0.239,5.576c-1.545,1.805-9.636,2.55-9.636,2.55l-6.328,2.822l-2.373,0.866l-5.562-1.749l-7.308-4.392
	l-6.068-3.177c0,0-2.889-2.643-4.011-3.501c-1.929-1.507-6.557-3.585-8.455-5.192c-1.104-0.941-3.64-4.485-3.64-4.485l-5.486-8.094
	l1.253-8.597c0,0,1.081-6.411,2.785-7.422c2.238-1.316,3.803-8.846,3.803-8.846l1.68-1.833l3.89,2.637l5.438-3.246l4.184,0.689
	l6.109-1.409l4.336-1.58L277.046,745.881z"/>
<g>
	<path fill="#EC1E24" d="M251.86,786.976c0,0-4.676-5.379-5.985-7.343c-0.956-1.438-2.958-4.388-3.27-6.082
		c-0.19-1.06,0.496-3.207,0.61-4.277c0.215-2.016,0.422-6.141,1.226-8.011c0.811-1.867,4.585-4.44,5.008-6.445
		c0.26-1.269-1.053-4.133-0.291-5.192c0.679-0.929,3.387-1.538,4.482-1.153c0.907,0.309,2.902,2.525,2.902,2.525
		s-4.163-1.289-5.175-0.475c-0.938,0.748-0.27,3.619-0.623,4.762c-0.409,1.365-2.927,3.211-3.54,4.514
		c-1.281,2.704-2.819,8.71-2.604,11.706c0.125,1.773,1.299,5.192,2.016,6.803C247.645,780.627,251.86,786.976,251.86,786.976z"/>
	<path fill="#EC1E24" d="M264.723,796.33l9.566,4.991c0,0,5.777,3.229,7.924,3.346c1.68,0.101,4.873-1.396,6.477-1.901
		c3.159-0.987,10.723-1.444,12.531-4.205c2.085-3.162,0.402-9.462-0.042-12.583c-0.104-0.727-0.152-2.923-0.152-2.923
		s2.092,7.101,2.074,9.538c-0.017,1.632,0.88,5.195-0.073,6.529c-1.344,1.912-6.532,2.47-8.742,3.2
		c-2.043,0.679-6.334,1.489-8.253,2.459c-0.959,0.481-2.345,2.573-3.405,2.56c-0.655-0.007-1.461-1.285-2.016-1.617
		c-1.891-1.137-8.146-3.45-8.146-3.45L264.723,796.33z"/>
	<path fill="#EC1E24" d="M265.101,794.778c0,0,6.203,3.775,8.559,4.042c2.577,0.309,7.626-1.568,10.158-2.154
		c2.047-0.467,6.342-0.917,8.15-1.991c1.731-1.025,5.465-5.961,5.465-5.961s-5.154,3.97-7.184,4.613
		c-1.198,0.381-3.799,0.184-5.008,0.506c-2.036,0.551-5.611,3.187-7.699,3.478C274.393,797.754,265.101,794.778,265.101,794.778z"/>
	<path fill="#EC1E24" d="M291.219,788.385c0,0-3.834,4.396-5.573,5.157c-2.005,0.877-8.717,0.683-8.717,0.683l-3.193-2.272
		c0,0,2.708,1.49,3.699,1.625c1.891,0.235,5.729-0.523,7.502-1.191C286.713,791.707,286.786,791.641,291.219,788.385z"/>
	<path fill="#EC1E24" d="M259.996,791.929c0,0,0.031-4.136-0.294-5.473c-0.852-3.363-5.424-9.13-5.878-12.569
		c-0.401-3.055,2.217-9.085,2.016-12.16c-0.128-2.036-2.379-7.811-2.379-7.811s-0.097,4.891-0.572,6.436
		c-0.696,2.241-3.758,5.981-4.565,8.181c-0.492,1.371-0.537,4.416-0.218,5.84c0.353,1.613,2.085,4.516,3.002,5.884
		c1.084,1.636,3.896,4.423,5.105,5.975C257.27,787.575,259.996,791.929,259.996,791.929z"/>
	<path fill="#EC1E24" d="M265.451,748.492c0,0-4.351-0.139-5.569,0.53c-0.759,0.419-2.109,2.75-2.109,2.75l-1.358,8.427
		l-0.242-8.406c0,0,1.392-3.404,2.31-4.156c0.693-0.564,2.542-1.16,3.439-1.07C262.918,746.671,265.451,748.492,265.451,748.492z"/>
	<path fill="#EC1E24" d="M278.47,747.696l-0.169-0.208c0,0-1.157-1.642-1.69-2.037c-0.416-0.318-1.486-0.627-1.981-0.509
		c-0.551,0.135-1.171,1.354-1.729,1.479c-0.62,0.146-1.846-0.675-2.483-0.603c-0.987,0.125-3.519,1.867-3.519,1.867l-3.512,3.64
		l-3.374,6.328l-0.907,8.351l2.13-8.132l3.425-5.607c0,0,2.203-2.941,3.201-3.62c0.665-0.439,2.209-1.015,2.999-1.094
		c0.534-0.062,1.642,0.09,2.158-0.035c0.738-0.18,1.95-1.386,2.705-1.378C276.513,746.147,278.47,747.696,278.47,747.696z"/>
	<path fill="#EC1E24" d="M297.367,758.062c0,0-2.601-4.718-3.875-5.947c-1.344-1.288-4.641-3.2-6.397-3.796
		c-1.666-0.568-6.91-1.341-6.91-1.341s5.753-0.391,7.627-0.059c1.87,0.333,5.493,2.054,6.747,3.474
		C295.909,751.932,297.367,758.062,297.367,758.062z"/>
	<path fill="#EC1E24" d="M279.987,747.983c0,0,3.584,1.236,4.658,1.898c0.624,0.377,1.68,1.443,2.078,2.057
		c0.558,0.887,0.804,3.093,1.431,3.928c0.467,0.606,1.825,1.434,2.5,1.812c0.648,0.356,1.981,0.987,2.56,1.427
		c1.33,1.019,4.679,4.797,4.679,4.797s-2.186-3.823-3.193-4.866c-0.703-0.741-3.328-2.376-3.328-2.376s-1.96-1.707-2.473-2.393
		c-0.589-0.779-1.229-2.723-1.843-3.481c-0.513-0.641-1.725-1.808-2.479-2.112C283.509,748.223,279.987,747.983,279.987,747.983z"/>
	<polygon fill="#EC1E24" points="298.236,766.894 296.625,774.005 292.303,780.114 293.38,781.517 293.824,784.277 292.473,788.07 
		294.585,785.036 294.662,781.143 295.382,778.979 296.965,774.905 	"/>
	<polygon fill="#EC1E24" points="298.908,760.992 298.617,765.89 300.366,768.851 302.15,775.56 299.614,782.161 294.745,788.337 
		300.376,782.826 303.445,776.505 302.129,769.813 300.117,766.87 	"/>
	<path fill="#EC1E24" d="M298.153,760.227c0,0,3.786,0.987,4.651,1.878c0.509,0.533,0.863,2.047,1.008,2.75
		c0.156,0.751-0.028,2.323,0.173,3.055c0.256,0.941,1.171,2.701,1.746,3.491c0.346,0.478,1.5,1.118,1.649,1.687
		c0.201,0.721-0.433,2.22-0.721,2.909c-0.603,1.406-2.165,4.083-3.187,5.22c-0.45,0.492-2.029,1.693-2.029,1.693l2.085-3.599
		c0,0,2.771-3.758,2.625-5.209c-0.097-0.99-2.051-2.244-2.477-3.151c-0.551-1.182-0.859-3.793-1.095-5.078
		c-0.107-0.551-0.069-1.729-0.346-2.23C301.575,762.485,298.153,760.227,298.153,760.227z"/>
	<path fill="#EC1E24" d="M260.775,765.401c0,0-2.948,5.652-3.117,7.737c-0.142,1.818,1.219,5.361,2.075,6.976
		c1.139,2.109,4.651,5.572,6.549,7.062c2.126,1.638,9.431,5.136,9.431,5.136s-6.009-7.747-7.873-10.436
		c-1.292-1.856-5.188-6.528-6.089-8.62C260.872,771.186,260.775,765.401,260.775,765.401z"/>
	<path fill="#EC1E24" d="M285.192,755.246l-7.211-2.94l-6.595,0.817l-6.851,5.524l-2.84,6.414l1.87,6.682l3.831,5.565l2.875,5.292
		c0,0,2.581,4.156,3.8,5.217c0.745,0.65,2.677,1.44,3.657,1.492c2.04,0.111,5.947-1.7,7.661-2.809
		c1.119-0.699,2.934-2.667,3.737-3.72c0.672-0.866,2.189-3.823,2.189-3.823s-6.106,1.994-8.208,2.337
		c-0.945,0.167-2.882,0.291-3.852,0.19c-1.617-0.159-6.394-1.354-6.394-1.354s0.658,1.745,0.859,2.334
		c0.26,0.755,0.721,2.259,1.112,2.996c0.388,0.703,2.043,2.739,2.043,2.739s-2.029-0.986-2.566-1.51
		c-0.983-0.994-2.861-4.755-2.861-4.755l-1.746-3.616l-2.199-3.294l-3.072-4.267l-0.838-4.606l1.177-2.221l1.001-4.229l2.906-3.142
		l2.521-1.77l3.228-0.329l2.199,1.368l0.146,0.412l-6.283,2.958l-3.758,5.718l1.274,6.328l2.743,5.697l5.604,3.187
		c0,0,3.65-0.897,4.742-1.493c1.423-0.779,4.984-4.181,4.984-4.181l-8.745,0.084l-3.99-2.131l-2.137-2.999l-1.933-2.02l-1.084-0.551
		c0,0,1.742-0.038,2.3,0.098c0.887,0.225,2.508,1.163,3.197,1.766c1.025,0.877,2.536,3.294,3.748,3.918
		c1.465,0.741,6.519,0.91,6.519,0.91s-4.568-1.42-5.791-2.403c-1.438-1.146-4.219-4.174-4.267-5.992
		c-0.021-0.637,0.866-1.703,1.285-2.171c0.204-0.243,0.775-0.603,0.897-0.907c0.125-0.315-0.045-1.383-0.045-1.383
		s0.904,0.846,1.299,0.936c0.319,0.08,1.029-0.208,1.254-0.454c0.388-0.468,0.416-2.424,0.416-2.424l-3.862-0.759l4.427-0.298
		L285.192,755.246z"/>
	<path fill="#EC1E24" d="M278.033,762.769c0,0,0.883,3.637,1.313,4.805c0.346,0.955,1.787,3.688,1.787,3.688
		s-1.846-1.448-2.272-2.089c-0.25-0.37-0.52-1.243-0.61-1.673c-0.121-0.592-0.104-1.801-0.121-2.407
		C278.099,764.508,278.033,762.769,278.033,762.769z"/>
	<path fill="#EC1E24" d="M282.314,756.67c0,0,2.296,0.267,2.961,0.62c0.838,0.433,2.096,1.891,2.743,2.587
		c0.339,0.374,1.427,1.455,1.427,1.455l-4.032-0.035c0,0,2.722,1.153,3.339,1.892c0.551,0.647,0.887,2.386,0.991,3.221
		c0.059,0.419-0.056,1.288,0.135,1.655c0.371,0.689,1.826,1.448,2.345,2.03c0.346,0.363,0.894,1.243,1.06,1.734
		c0.26,0.731,0.284,2.366,0.159,3.152c-0.093,0.606-0.873,2.307-0.873,2.307s1.773-2.615,2.102-3.609
		c0.343-1.08,0.333-3.422,0.17-4.551c-0.125-0.952-0.89-2.764-1.365-3.605c-0.419-0.769-1.586-2.105-2.064-2.826
		c-0.526-0.804-1.393-2.49-1.947-3.263c-0.46-0.606-1.559-1.693-2.192-2.12c-0.568-0.377-1.804-1.028-2.476-1.08
		C284.174,756.178,282.314,756.67,282.314,756.67z"/>
	<path fill="#EC1E24" d="M280.423,780.021c0,0,3.529,0.166,4.551-0.339c1.06-0.537,2.379-2.667,3.121-3.596
		c0.61-0.779,2.043-2.262,2.321-3.214c0.277-0.936,0.305-3.068-0.208-3.903c-0.437-0.724-2.708-2.016-2.708-2.016
		s1.666,1.604,1.967,2.282c0.291,0.672,0.267,2.269-0.066,2.923c-0.229,0.44-1.247,0.801-1.555,1.185
		c-0.61,0.734-1.032,2.75-1.684,3.45C285.026,777.984,280.423,780.021,280.423,780.021z"/>
	<path fill="#EC1E24" d="M284.531,760.396c0,0-2.272-0.974-3.023-0.797c-0.585,0.156-1.548,1.061-1.787,1.614
		c-0.18,0.454-0.222,1.957-0.222,1.957s0.63-1.455,1.029-1.787c0.322-0.273,1.188-0.481,1.597-0.586
		C282.712,760.649,284.531,760.396,284.531,760.396z"/>
	<path fill="#EC1E24" d="M284.077,761.501c0,0-2.83,0.627-3.495,1.275c-0.308,0.312-0.592,1.212-0.624,1.648
		c-0.065,0.852,0,2.591,0.291,3.387c0.211,0.575,0.925,1.601,1.32,2.058c0.381,0.447,1.648,1.655,1.648,1.655
		s-1.333-2.112-1.711-2.857c-0.284-0.581-0.728-1.783-0.876-2.41c-0.121-0.516-0.159-1.642,0.08-2.096
		C281.199,763.195,284.077,761.501,284.077,761.501z"/>
	<path fill="#EC1E24" d="M284.264,762c0,0-0.672,0.876-0.89,1.171c-0.146,0.197-0.571,0.779-0.571,0.779s1.306,0.177,1.728,0.312
		c0.447,0.142,1.701,0.797,1.701,0.797s-1.046-1.021-1.361-1.396c-0.156-0.181-0.502-0.593-0.585-0.818
		C284.216,762.641,284.264,762,284.264,762z"/>
	<path fill="#EC1E24" d="M282.249,768.868c0,0,1.302,0.846,1.808,0.945c0.305,0.066,1.247-0.069,1.247-0.069l-0.658-0.755
		c0,0-0.779-0.789-0.97-1.115c-0.284-0.467-0.998-1.572-0.762-2.071c0.218-0.471,1.406-0.706,1.918-0.706
		c0.409,0,1.282,0.187,1.583,0.461c0.371,0.35,0.814,1.382,0.977,1.88c0.18,0.586,0.627,1.746,0.572,2.353
		c-0.035,0.283-0.118,1.039-0.236,1.295c-0.146,0.371-0.699,0.945-1.081,1.043c-0.298,0.072-0.879,0-1.143-0.098
		c-0.375-0.152-1.396-0.828-1.396-0.828s1.749,0.344,2.217,0.046c0.225-0.136,0.339-0.741,0.388-1.005
		c0.073-0.363,0.149-1.153,0.024-1.489c-0.18-0.468-1.226-1.545-1.226-1.545s0.603,1.354,0.665,1.833
		c0.045,0.359,0.093,1.156-0.132,1.447c-0.201,0.264-0.915,0.509-1.247,0.457c-0.298-0.059-0.776-0.468-1.019-0.641
		C283.367,769.983,282.249,768.868,282.249,768.868z"/>
</g>
<path fill="#EF5F7E" d="M242.955,683.888l0.371-0.783l1.676-5.399l2.32-2.822l3.415-1.182l1.206-0.284l0.983-1.575l1.482-0.824
	l1.514-0.031l1.729-0.624l1.898-0.599l2.099,0.484l1.406,1.303l0.263,0.336l1.676,1.265l2.521-0.07l2.736,0.177
	c0,0,2.542-0.01,2.985,0.461c0.88,0.938,0.79,5.33,0.79,5.33l1.129,3.571l0.326,1.326l-1.282,2.886l-2.805,3.667l-2.064,3.065
	c0,0-1.607,1.393-2.133,1.939c-0.928,0.938-2.328,3.315-3.304,4.229c-0.568,0.54-2.619,1.69-2.619,1.69l-4.689,2.455l-4.544-1.198
	c0,0-3.381-0.963-3.82-1.943c-0.575-1.281-4.527-2.58-4.527-2.58l-0.883-1.015l1.655-1.939l-1.417-3.11l0.627-2.21l-0.388-3.359
	l-0.592-2.432L242.955,683.888z"/>
<g>
	<path fill="#EC1E24" d="M263.514,699.91c0,0-3.176,2.186-4.315,2.771c-0.828,0.426-2.532,1.334-3.46,1.396
		c-0.579,0.028-1.694-0.464-2.258-0.592c-1.074-0.232-3.28-0.603-4.232-1.146c-0.956-0.544-2.113-2.729-3.166-3.075
		c-0.662-0.219-2.279,0.318-2.795-0.163c-0.468-0.419-0.627-1.908-0.357-2.483c0.222-0.468,1.534-1.413,1.534-1.413
		s-0.945,2.172-0.571,2.757c0.346,0.561,1.926,0.374,2.521,0.623c0.713,0.305,1.552,1.771,2.21,2.186
		c1.378,0.853,4.52,2.044,6.137,2.106c0.963,0.041,2.875-0.385,3.786-0.665C259.847,701.794,263.514,699.91,263.514,699.91z"/>
	<path fill="#EC1E24" d="M269.33,693.564l3.263-4.831c0,0,2.071-2.916,2.265-4.066c0.159-0.9-0.45-2.698-0.624-3.599
		c-0.339-1.749-0.121-5.843-1.496-6.985c-1.58-1.31-5.064-0.779-6.771-0.734c-0.395,0.007-1.583-0.091-1.583-0.091
		s3.945-0.706,5.254-0.547c0.876,0.11,2.851-0.155,3.509,0.433c0.935,0.832,0.928,3.661,1.185,4.901
		c0.242,1.133,0.419,3.487,0.824,4.575c0.194,0.537,1.24,1.416,1.17,1.984c-0.038,0.35-0.783,0.71-0.994,0.998
		c-0.724,0.941-2.338,4.166-2.338,4.166L269.33,693.564z"/>
	<path fill="#EC1E24" d="M268.512,693.271c0,0,2.397-3.104,2.695-4.36c0.318-1.358-0.395-4.188-0.547-5.587
		c-0.125-1.129-0.111-3.464-0.575-4.499c-0.454-0.998-2.871-3.301-2.871-3.301s1.812,3.013,2.043,4.146
		c0.128,0.662-0.135,2.04-0.031,2.723c0.173,1.136,1.368,3.211,1.399,4.343C270.673,688.449,268.512,693.271,268.512,693.271z"/>
	<path fill="#EC1E24" d="M266.663,678.838c0,0,2.126,2.331,2.432,3.314c0.35,1.122-0.167,4.731-0.167,4.731l-1.413,1.572
		c0,0,0.959-1.357,1.095-1.891c0.242-0.994,0.069-3.11-0.187-4.102C268.173,681.463,268.145,681.418,266.663,678.838z"/>
	<path fill="#EC1E24" d="M266.663,695.847c0,0-2.216-0.273-2.944-0.176c-1.863,0.238-5.244,2.369-7.121,2.379
		c-1.663,0.038-4.738-1.738-6.407-1.808c-1.105-0.052-4.35,0.8-4.35,0.8s2.628,0.354,3.432,0.699
		c1.157,0.513,2.985,2.394,4.118,2.951c0.71,0.354,2.338,0.555,3.121,0.468c0.897-0.094,2.56-0.845,3.349-1.25
		c0.938-0.488,2.619-1.822,3.512-2.383C264.162,697.032,266.663,695.847,266.663,695.847z"/>
	<path fill="#EC1E24" d="M243.658,690.281c0,0-0.339,2.32-0.059,3.023c0.18,0.427,1.347,1.296,1.347,1.296l4.447,1.232l-4.523-0.37
		c0,0-1.752-0.952-2.095-1.496c-0.263-0.402-0.468-1.431-0.36-1.909C242.525,691.535,243.658,690.281,243.658,690.281z"/>
	<path fill="#EC1E24" d="M244.015,683.229l-0.121,0.08c0,0-0.949,0.52-1.198,0.782c-0.184,0.208-0.423,0.763-0.388,1.032
		c0.038,0.312,0.655,0.707,0.689,1.021c0.045,0.34-0.478,0.953-0.471,1.299c0.007,0.537,0.783,2.01,0.783,2.01l1.742,2.102
		l3.204,2.192l4.43,0.991l-4.247-1.635l-2.798-2.172c0,0-1.448-1.372-1.752-1.95c-0.205-0.374-0.409-1.243-0.409-1.673
		c0-0.294,0.149-0.869,0.111-1.164c-0.048-0.401-0.624-1.125-0.568-1.541C243.076,684.192,244.015,683.229,244.015,683.229z"/>
	<path fill="#EC1E24" d="M250.737,673.701c0,0-2.701,1.105-3.436,1.722c-0.772,0.647-2.002,2.293-2.432,3.204
		c-0.401,0.872-1.136,3.64-1.136,3.64s0.139-3.124,0.429-4.111c0.301-0.983,1.441-2.819,2.279-3.411
		C247.343,674.117,250.737,673.701,250.737,673.701z"/>
	<path fill="#EC1E24" d="M244.268,682.423c0,0,0.88-1.846,1.295-2.373c0.246-0.325,0.887-0.82,1.24-0.997
		c0.499-0.26,1.704-0.246,2.192-0.533c0.357-0.208,0.883-0.884,1.126-1.236c0.229-0.326,0.647-0.998,0.928-1.285
		c0.616-0.651,2.861-2.228,2.861-2.228s-2.189,0.945-2.819,1.428c-0.43,0.336-1.469,1.638-1.469,1.638s-1.032,0.952-1.44,1.188
		c-0.464,0.276-1.531,0.495-1.985,0.769c-0.371,0.249-1.074,0.828-1.285,1.212C244.6,680.553,244.268,682.423,244.268,682.423z"/>
	<polygon fill="#EC1E24" points="255.538,673.771 259.248,675.069 262.271,677.761 263.095,677.272 264.609,677.196 
		266.566,678.142 265.062,676.833 262.967,676.552 261.859,676.036 259.771,674.938 	"/>
	<polygon fill="#EC1E24" points="252.4,673.047 255.012,673.501 256.715,672.738 260.428,672.181 263.823,673.947 266.843,676.94 
		264.228,673.598 261.017,671.551 257.342,671.845 255.638,672.763 	"/>
	<path fill="#EC1E24" d="M251.943,673.417c0,0,0.758-1.98,1.295-2.386c0.318-0.246,1.146-0.35,1.541-0.388
		c0.405-0.031,1.24,0.159,1.649,0.1c0.526-0.086,1.524-0.478,1.984-0.73c0.277-0.152,0.693-0.741,1.001-0.789
		c0.398-0.066,1.167,0.37,1.524,0.574c0.717,0.396,2.068,1.403,2.615,2.03c0.235,0.267,0.779,1.194,0.779,1.194l-1.801-1.347
		c0,0-1.86-1.711-2.639-1.732c-0.544-0.007-1.344,0.974-1.846,1.144c-0.668,0.225-2.092,0.231-2.795,0.273
		c-0.301,0.034-0.946-0.056-1.223,0.059C253.37,671.71,251.943,673.417,251.943,673.417z"/>
	<path fill="#EC1E24" d="M252.462,693.814c0,0,2.868,1.929,3.969,2.144c0.963,0.177,2.958-0.332,3.872-0.696
		c1.212-0.484,3.283-2.161,4.191-3.086c1.011-1.042,3.332-4.759,3.332-4.759s-4.527,2.757-6.075,3.595
		c-1.091,0.589-3.831,2.387-5.015,2.743C255.58,694.105,252.462,693.814,252.462,693.814z"/>
	<path fill="#EC1E24" d="M248.486,680.074l-2.02,3.692l0.031,3.595l2.556,4.018l3.284,1.926l3.702-0.609l3.225-1.718l3.006-1.227
		c0,0,2.404-1.136,3.041-1.721c0.395-0.364,0.932-1.361,1.025-1.885c0.18-1.094-0.558-3.293-1.042-4.277
		c-0.308-0.65-1.261-1.749-1.776-2.244c-0.423-0.412-1.912-1.402-1.912-1.402s0.696,3.397,0.755,4.555
		c0.028,0.512-0.027,1.568-0.138,2.078c-0.18,0.858-1.108,3.355-1.108,3.355s0.98-0.246,1.302-0.322
		c0.426-0.086,1.261-0.252,1.673-0.429c0.405-0.156,1.597-0.915,1.597-0.915s-0.651,1.039-0.963,1.275
		c-0.592,0.478-2.729,1.264-2.729,1.264l-2.044,0.717l-1.912,0.98l-2.473,1.396l-2.525,0.166l-1.119-0.769l-2.22-0.793l-1.514-1.746
		l-0.804-1.469l0.024-1.748l0.862-1.112l0.235-0.045l1.206,3.55l2.854,2.362l3.477-0.302l3.221-1.115l2.064-2.826
		c0,0-0.271-2.019-0.523-2.629c-0.332-0.824-1.943-2.95-1.943-2.95l-0.485,4.717l-1.382,2.009l-1.746,0.967l-1.206,0.925
		l-0.363,0.547c0,0,0.09-0.938,0.194-1.229c0.169-0.464,0.783-1.268,1.136-1.614c0.543-0.498,1.933-1.167,2.334-1.776
		c0.499-0.745,0.89-3.453,0.89-3.453s-1.049,2.383-1.642,2.968c-0.707,0.71-2.494,2.023-3.481,1.947
		c-0.339-0.038-0.859-0.575-1.094-0.828c-0.111-0.125-0.27-0.461-0.419-0.537c-0.17-0.097-0.766-0.069-0.766-0.069
		s0.526-0.439,0.589-0.634c0.066-0.173-0.042-0.575-0.159-0.699c-0.239-0.242-1.282-0.381-1.282-0.381l-0.644,2.033l0.111-2.397
		L248.486,680.074z"/>
	<path fill="#EC1E24" d="M252.102,684.383c0,0,1.999-0.271,2.653-0.423c0.533-0.121,2.092-0.74,2.092-0.74s-0.894,0.907-1.268,1.101
		c-0.215,0.107-0.693,0.208-0.928,0.229c-0.333,0.024-0.977-0.055-1.302-0.072C253.034,684.452,252.102,684.383,252.102,684.383z"/>
	<path fill="#EC1E24" d="M249.072,681.709c0,0,0.287-1.219,0.509-1.555c0.288-0.43,1.15-1.015,1.559-1.319
		c0.225-0.17,0.873-0.68,0.873-0.68l-0.263,2.158c0,0,0.796-1.379,1.219-1.684c0.375-0.231,1.337-0.318,1.794-0.325
		c0.222-0.004,0.689,0.114,0.89,0.021c0.391-0.148,0.89-0.887,1.229-1.129c0.222-0.163,0.734-0.402,0.998-0.475
		c0.422-0.087,1.292,0,1.704,0.111c0.333,0.09,1.184,0.619,1.184,0.619s-1.288-1.115-1.804-1.361
		c-0.561-0.249-1.818-0.377-2.435-0.366c-0.52,0.01-1.531,0.318-2.022,0.513c-0.437,0.187-1.226,0.733-1.648,0.948
		c-0.451,0.235-1.417,0.593-1.864,0.846c-0.356,0.208-1.004,0.741-1.274,1.06c-0.235,0.271-0.658,0.894-0.724,1.254
		C248.923,680.677,249.072,681.709,249.072,681.709z"/>
	<path fill="#EC1E24" d="M261.509,684.141c0,0,0.309-1.901,0.097-2.477c-0.229-0.596-1.295-1.427-1.752-1.891
		c-0.374-0.374-1.087-1.227-1.58-1.435c-0.492-0.211-1.635-0.35-2.113-0.128c-0.419,0.201-1.247,1.333-1.247,1.333
		s0.956-0.793,1.344-0.924c0.381-0.104,1.233,0,1.569,0.218c0.218,0.146,0.357,0.714,0.537,0.904
		c0.377,0.374,1.423,0.724,1.756,1.115C260.695,681.532,261.509,684.141,261.509,684.141z"/>
	<path fill="#EC1E24" d="M251.205,680.743c0,0-0.647,1.156-0.599,1.582c0.042,0.315,0.464,0.887,0.748,1.047
		c0.239,0.131,1.046,0.238,1.046,0.238s-0.748-0.419-0.897-0.658c-0.128-0.187-0.187-0.668-0.218-0.894
		C251.236,681.733,251.205,680.743,251.205,680.743z"/>
	<path fill="#EC1E24" d="M251.784,681.051c0,0,0.156,1.565,0.471,1.946c0.146,0.194,0.617,0.396,0.845,0.443
		c0.45,0.087,1.389,0.152,1.835,0.049c0.319-0.069,0.921-0.395,1.192-0.585c0.256-0.177,0.977-0.783,0.977-0.783
		s-1.209,0.593-1.628,0.738c-0.326,0.135-1.004,0.294-1.351,0.332c-0.284,0.028-0.89-0.014-1.129-0.166
		C252.518,682.707,251.784,681.051,251.784,681.051z"/>
	<path fill="#EC1E24" d="M252.061,680.981c0,0,0.43,0.412,0.568,0.551c0.097,0.087,0.388,0.347,0.388,0.347s0.173-0.692,0.27-0.911
		c0.111-0.225,0.53-0.858,0.53-0.858s-0.606,0.498-0.828,0.641c-0.118,0.083-0.346,0.242-0.478,0.267
		C252.4,681.044,252.061,680.981,252.061,680.981z"/>
	<path fill="#EC1E24" d="M255.628,682.485c0,0,0.526-0.651,0.617-0.911c0.055-0.159,0.035-0.683,0.035-0.683l-0.447,0.305
		c0,0-0.475,0.381-0.648,0.454c-0.277,0.121-0.907,0.443-1.17,0.294c-0.229-0.148-0.288-0.811-0.263-1.08
		c0.034-0.226,0.173-0.676,0.35-0.814c0.204-0.184,0.793-0.356,1.074-0.412c0.315-0.065,0.966-0.238,1.292-0.17
		c0.149,0.031,0.554,0.122,0.692,0.205c0.177,0.097,0.458,0.437,0.485,0.641c0.018,0.163-0.055,0.475-0.125,0.613
		c-0.097,0.19-0.523,0.692-0.523,0.692s0.284-0.918,0.163-1.181c-0.069-0.132-0.381-0.229-0.52-0.274
		c-0.194-0.059-0.613-0.152-0.807-0.101c-0.26,0.073-0.897,0.568-0.897,0.568s0.762-0.249,1.019-0.249
		c0.194-0.007,0.63,0.027,0.769,0.155c0.131,0.129,0.222,0.53,0.176,0.703c-0.052,0.152-0.301,0.381-0.412,0.503
		C256.293,681.948,255.628,682.485,255.628,682.485z"/>
</g>
<path fill="#EF5F7E" d="M262.683,683.604l0.859,0.097l5.642-0.214l3.446,1.253l2.234,2.837l0.686,1.043l1.805,0.412l1.271,1.115
	l0.534,1.42l1.157,1.427l1.191,1.594l0.242,2.137l-0.762,1.76l-0.229,0.356l-0.637,2.005l0.904,2.369l0.738,2.636
	c0,0,0.852,2.397,0.551,2.965c-0.592,1.146-4.766,2.511-4.766,2.511l-3.002,2.255l-1.143,0.745l-3.152-0.246l-4.388-1.438
	l-3.578-0.932c0,0-1.849-1.057-2.535-1.371c-1.205-0.568-3.893-1.099-5.084-1.719c-0.7-0.353-2.466-1.911-2.466-1.911l-3.876-3.609
	l-0.377-4.686c0,0-0.204-3.513,0.575-4.257c1.018-0.96,0.928-5.119,0.928-5.119l0.665-1.167l2.362,0.903l2.483-2.352l2.296-0.156
	l3.048-1.475l2.092-1.365L262.683,683.604z"/>
<g>
	<path fill="#EC1E24" d="M254.367,708.323c0,0-3.11-2.272-4.045-3.146c-0.679-0.641-2.092-1.957-2.459-2.809
		c-0.225-0.54-0.121-1.742-0.201-2.335c-0.122-1.091-0.516-3.29-0.309-4.363c0.194-1.095,1.874-2.913,1.846-4.008
		c-0.01-0.706-1.046-2.057-0.776-2.701c0.25-0.578,1.6-1.223,2.217-1.157c0.533,0.052,1.835,0.97,1.835,0.97
		s-2.341-0.166-2.778,0.381c-0.401,0.517,0.294,1.939,0.256,2.581c-0.062,0.772-1.164,2.054-1.33,2.809
		c-0.354,1.59-0.43,4.942,0.042,6.501c0.277,0.914,1.316,2.573,1.891,3.35C251.375,705.486,254.367,708.323,254.367,708.323z"/>
	<path fill="#EC1E24" d="M262.285,711.71l5.649,1.469c0,0,3.436,0.994,4.579,0.804c0.904-0.149,2.4-1.327,3.193-1.784
		c1.544-0.904,5.482-2.064,6.099-3.733c0.713-1.923-0.938-5.043-1.538-6.636c-0.153-0.36-0.437-1.514-0.437-1.514
		s1.957,3.474,2.234,4.775c0.194,0.866,1.098,2.637,0.766,3.453c-0.478,1.171-3.152,2.093-4.222,2.74
		c-1.001,0.609-3.169,1.552-4.062,2.296c-0.451,0.378-0.925,1.642-1.486,1.763c-0.339,0.076-0.921-0.509-1.257-0.616
		c-1.136-0.363-4.71-0.835-4.71-0.835L262.285,711.71z"/>
	<path fill="#EC1E24" d="M262.295,710.848c0,0,3.727,1.223,5.004,1.088c1.399-0.149,3.831-1.76,5.099-2.362
		c1.018-0.495,3.235-1.25,4.066-2.026c0.779-0.769,2.147-3.816,2.147-3.816s-2.237,2.715-3.228,3.294
		c-0.589,0.356-1.981,0.564-2.58,0.879c-1.015,0.533-2.567,2.362-3.64,2.764C267.563,711.284,262.295,710.848,262.295,710.848z"/>
	<path fill="#EC1E24" d="M275.301,704.312c0,0-1.496,2.778-2.321,3.405c-0.949,0.686-4.509,1.402-4.509,1.402l-1.967-0.82
		c0,0,1.607,0.468,2.151,0.415c1.021-0.107,2.961-0.973,3.806-1.541C273.319,706.604,273.361,706.566,275.301,704.312z"/>
	<path fill="#EC1E24" d="M259.258,709.954c0,0-0.478-2.182-0.814-2.837c-0.849-1.683-3.973-4.17-4.621-5.937
		c-0.578-1.559,0.073-5.053-0.412-6.653c-0.315-1.056-2.199-3.83-2.199-3.83s0.537,2.591,0.485,3.46
		c-0.104,1.268-1.268,3.615-1.423,4.869c-0.097,0.783,0.25,2.397,0.589,3.11c0.381,0.811,1.648,2.134,2.3,2.74
		c0.776,0.73,2.583,1.863,3.415,2.524C257.297,707.979,259.258,709.954,259.258,709.954z"/>
	<path fill="#EC1E24" d="M256.875,686.382c0,0-2.303,0.45-2.864,0.955c-0.354,0.312-0.779,1.708-0.779,1.708l0.298,4.61
		l-1.143-4.406c0,0,0.318-1.96,0.713-2.469c0.305-0.385,1.198-0.911,1.687-0.984C255.323,685.737,256.875,686.382,256.875,686.382z"
		/>
	<path fill="#EC1E24" d="M263.646,684.39l-0.114-0.086c0,0-0.804-0.731-1.136-0.877c-0.253-0.107-0.859-0.139-1.108-0.021
		c-0.27,0.139-0.45,0.849-0.724,0.983c-0.308,0.166-1.06-0.135-1.389-0.007c-0.499,0.173-1.635,1.399-1.635,1.399l-1.406,2.349
		l-1.012,3.747l0.53,4.52l0.149-4.558l1.115-3.363c0,0,0.811-1.814,1.247-2.307c0.305-0.312,1.05-0.793,1.462-0.938
		c0.267-0.09,0.866-0.146,1.132-0.28c0.357-0.173,0.859-0.97,1.254-1.039C262.43,683.818,263.646,684.39,263.646,684.39z"/>
	<path fill="#EC1E24" d="M274.864,687.576c0,0-1.939-2.171-2.757-2.67c-0.866-0.523-2.826-1.133-3.834-1.236
		c-0.946-0.098-3.81,0.131-3.81,0.131s2.989-0.896,4.018-0.948c1.029-0.049,3.148,0.422,3.979,1.015
		C273.368,684.508,274.864,687.576,274.864,687.576z"/>
	<path fill="#EC1E24" d="M264.488,684.358c0,0,2.043,0.226,2.681,0.434c0.377,0.131,1.067,0.564,1.351,0.838
		c0.402,0.401,0.79,1.538,1.219,1.895c0.333,0.267,1.146,0.537,1.552,0.661c0.377,0.091,1.15,0.271,1.514,0.434
		c0.824,0.381,3.051,1.974,3.051,1.974s-1.614-1.756-2.272-2.188c-0.468-0.298-2.037-0.849-2.037-0.849s-1.25-0.662-1.593-0.945
		c-0.412-0.357-0.984-1.296-1.399-1.632c-0.353-0.267-1.132-0.744-1.559-0.813C266.379,684.058,264.488,684.358,264.488,684.358z"/>
	<polygon fill="#EC1E24" points="276.395,692.117 276.409,696.062 274.864,699.81 275.609,700.419 276.177,701.829 275.917,703.983 
		276.662,702.137 276.232,700.069 276.36,698.84 276.7,696.505 	"/>
	<polygon fill="#EC1E24" points="276.035,688.931 276.482,691.546 277.76,692.896 279.505,696.218 278.972,700 277.15,703.852 
		279.45,700.267 280.316,696.567 278.806,693.197 277.386,691.892 	"/>
	<path fill="#EC1E24" d="M275.55,688.619c0,0,2.113,0.062,2.678,0.429c0.336,0.219,0.696,0.967,0.862,1.334
		c0.177,0.367,0.273,1.212,0.464,1.579c0.243,0.468,0.956,1.288,1.344,1.632c0.236,0.211,0.921,0.405,1.077,0.686
		c0.188,0.356,0.031,1.223-0.038,1.631c-0.138,0.811-0.641,2.414-1.046,3.131c-0.18,0.312-0.866,1.144-0.866,1.144l0.665-2.151
		c0,0,1.008-2.313,0.755-3.068c-0.173-0.513-1.351-0.928-1.687-1.357c-0.433-0.547-0.908-1.905-1.195-2.546
		c-0.125-0.28-0.243-0.918-0.454-1.136C277.625,689.392,275.55,688.619,275.55,688.619z"/>
	<path fill="#EC1E24" d="M256.459,695.864c0,0-0.873,3.353-0.707,4.461c0.153,0.98,1.295,2.685,1.94,3.422
		c0.855,0.991,3.124,2.391,4.302,2.934c1.319,0.624,5.6,1.58,5.6,1.58s-4.104-3.363-5.413-4.548
		c-0.908-0.828-3.533-2.833-4.253-3.823C257.214,698.909,256.459,695.864,256.459,695.864z"/>
	<path fill="#EC1E24" d="M268.104,687.556l-4.153-0.676l-3.38,1.227l-2.947,3.744l-0.724,3.727l1.798,3.297l2.698,2.474l2.151,2.441
		c0,0,1.871,1.881,2.639,2.296c0.471,0.257,1.586,0.44,2.106,0.344c1.094-0.188,2.934-1.621,3.703-2.407
		c0.502-0.506,1.223-1.764,1.521-2.414c0.249-0.544,0.692-2.283,0.692-2.283s-2.972,1.791-4.045,2.23
		c-0.485,0.188-1.486,0.499-2.009,0.558c-0.873,0.111-3.533,0.069-3.533,0.069s0.554,0.835,0.731,1.126
		c0.235,0.363,0.647,1.104,0.956,1.444c0.291,0.325,1.406,1.205,1.406,1.205s-1.188-0.287-1.534-0.495
		c-0.641-0.395-2.088-2.165-2.088-2.165l-1.361-1.689l-1.559-1.476l-2.126-1.874l-1.001-2.331l0.346-1.309l0.024-2.359l1.146-2.009
		l1.112-1.239l1.669-0.562l1.323,0.454l0.125,0.187l-2.951,2.335l-1.295,3.463l1.44,3.187l2.134,2.685l3.346,1.001
		c0,0,1.818-0.922,2.32-1.365c0.655-0.585,2.12-2.809,2.12-2.809l-4.606,1.098l-2.355-0.637l-1.489-1.323l-1.274-0.824l-0.631-0.17
		c0,0,0.915-0.232,1.227-0.229c0.499,0.01,1.461,0.322,1.898,0.544c0.647,0.346,1.731,1.434,2.445,1.61
		c0.866,0.218,3.547-0.302,3.547-0.302s-2.577-0.197-3.332-0.564c-0.907-0.437-2.736-1.683-2.985-2.646
		c-0.086-0.34,0.256-1.012,0.416-1.299c0.083-0.152,0.339-0.416,0.371-0.586c0.024-0.187-0.194-0.737-0.194-0.737
		s0.578,0.35,0.793,0.347c0.177,0,0.516-0.232,0.603-0.389c0.16-0.301-0.055-1.337-0.055-1.337l-2.141,0.069l2.3-0.699
		L268.104,687.556z"/>
	<path fill="#EC1E24" d="M265.246,692.391c0,0,0.9,1.805,1.271,2.376c0.298,0.461,1.386,1.729,1.386,1.729s-1.136-0.537-1.444-0.824
		c-0.184-0.174-0.426-0.579-0.523-0.801c-0.139-0.308-0.271-0.945-0.364-1.264C265.492,693.309,265.246,692.391,265.246,692.391z"/>
	<path fill="#EC1E24" d="M266.767,688.657c0,0,1.24-0.136,1.635-0.038c0.492,0.139,1.333,0.751,1.756,1.046
		c0.232,0.142,0.928,0.596,0.928,0.596l-2.123,0.457c0,0,1.573,0.284,1.988,0.6c0.36,0.267,0.755,1.153,0.914,1.579
		c0.08,0.215,0.118,0.679,0.274,0.858c0.267,0.315,1.125,0.537,1.479,0.776c0.222,0.155,0.624,0.561,0.769,0.796
		c0.222,0.36,0.437,1.206,0.461,1.646c0.017,0.315-0.184,1.316-0.184,1.316s0.623-1.601,0.672-2.154
		c0.055-0.624-0.236-1.843-0.458-2.418c-0.18-0.495-0.803-1.351-1.149-1.742c-0.319-0.346-1.098-0.914-1.441-1.239
		c-0.374-0.354-1.032-1.15-1.41-1.486c-0.322-0.267-1.036-0.696-1.424-0.852c-0.333-0.132-1.066-0.319-1.434-0.267
		C267.688,688.172,266.767,688.657,266.767,688.657z"/>
	<path fill="#EC1E24" d="M268.588,701.205c0,0,1.884-0.339,2.362-0.737c0.499-0.409,0.935-1.697,1.212-2.269
		c0.229-0.488,0.797-1.441,0.832-1.978c0.027-0.534-0.215-1.659-0.582-2.037c-0.319-0.329-1.669-0.734-1.669-0.734
		s1.067,0.645,1.309,0.974c0.236,0.329,0.416,1.156,0.319,1.548c-0.069,0.257-0.554,0.575-0.672,0.811
		c-0.232,0.457-0.215,1.576-0.475,2.022C270.774,699.57,268.588,701.205,268.588,701.205z"/>
	<path fill="#EC1E24" d="M268.384,690.354c0,0-1.32-0.226-1.69-0.049c-0.284,0.152-0.696,0.744-0.745,1.057
		c-0.056,0.27,0.118,1.066,0.118,1.066s0.16-0.845,0.326-1.07c0.139-0.18,0.568-0.388,0.772-0.499
		C267.452,690.707,268.384,690.354,268.384,690.354z"/>
	<path fill="#EC1E24" d="M268.28,690.991c0,0-1.417,0.683-1.69,1.095c-0.128,0.201-0.169,0.717-0.131,0.949
		c0.076,0.457,0.315,1.364,0.561,1.742c0.184,0.29,0.686,0.733,0.952,0.932c0.256,0.19,1.067,0.682,1.067,0.682
		s-0.959-0.959-1.243-1.299c-0.225-0.276-0.613-0.858-0.762-1.17c-0.128-0.257-0.28-0.846-0.208-1.119
		C266.96,692.238,268.28,690.991,268.28,690.991z"/>
	<path fill="#EC1E24" d="M268.443,691.237c0,0-0.256,0.54-0.339,0.724c-0.042,0.125-0.201,0.481-0.201,0.481
		s0.707-0.069,0.945-0.049c0.256,0.018,0.994,0.219,0.994,0.219s-0.679-0.416-0.88-0.575c-0.114-0.086-0.339-0.239-0.409-0.353
		C268.491,691.577,268.443,691.237,268.443,691.237z"/>
	<path fill="#EC1E24" d="M268.201,695.106c0,0,0.796,0.273,1.081,0.273c0.156-0.007,0.637-0.19,0.637-0.19l-0.437-0.315
		c0,0-0.513-0.329-0.637-0.468c-0.215-0.222-0.728-0.706-0.662-1.008c0.059-0.267,0.662-0.537,0.932-0.596
		c0.218-0.059,0.693-0.062,0.887,0.042c0.243,0.145,0.599,0.634,0.741,0.89c0.167,0.264,0.547,0.838,0.589,1.153
		c0.021,0.156,0.055,0.571,0.031,0.724c-0.031,0.212-0.253,0.575-0.44,0.679c-0.152,0.069-0.464,0.107-0.624,0.08
		c-0.215-0.021-0.831-0.271-0.831-0.271s0.956-0.03,1.181-0.235c0.1-0.101,0.08-0.433,0.08-0.574
		c-0.021-0.198-0.069-0.638-0.173-0.797c-0.149-0.215-0.834-0.658-0.834-0.658s0.481,0.634,0.575,0.883
		c0.073,0.184,0.194,0.6,0.111,0.779c-0.073,0.16-0.426,0.378-0.606,0.392c-0.163,0.011-0.468-0.155-0.617-0.218
		C268.935,695.553,268.201,695.106,268.201,695.106z"/>
</g>
</svg>
