<?xml version="1.0" encoding="utf-8"?>
<!-- Generator: Adobe Illustrator 16.0.0, SVG Export Plug-In . SVG Version: 6.00 Build 0)  -->
<!DOCTYPE svg PUBLIC "-//W3C//DTD SVG 1.1//EN" "http://www.w3.org/Graphics/SVG/1.1/DTD/svg11.dtd">
<svg version="1.1" id="Layer_2" xmlns="http://www.w3.org/2000/svg" xmlns:xlink="http://www.w3.org/1999/xlink" x="0px" y="0px"
	 width="728.5px" height="1031.811px" viewBox="0 0 728.5 1031.811" enable-background="new 0 0 728.5 1031.811"
	 xml:space="preserve">
<path fill="#1AD5BB" d="M715.716,470.304c0,196.92-157.983,356.547-352.851,356.547C167.984,826.851,10,667.224,10,470.304
	c0-196.916,157.984-356.539,352.865-356.539C557.732,113.765,715.716,273.388,715.716,470.304"/>
<path d="M489.777,503.655l-269.913-3.664c0,0-23.536-14.665-28.977-21.953c-4.243-5.677-5.169-13.676-6.147-20.7
	c-1.152-8.2-4.098-36.459-4.158-38.925c-0.148-8.164-3.105-28.415-0.816-36.262c2.427-8.309,12.881-14.767,17.891-20.622
	c7.231-8.458,9.051-11.446,11.347-18.205c1.837-5.398,3.724-30.361,6.628-35.254c5.745-9.635,28.104-26.434,38.265-31.196
	c12.114-5.673,39.59-10.344,39.59-10.344s20.738-4.274,33.686-2.653c7.599,0.95,29.715,6.79,29.715,6.79s50.835-3.099,67.352-0.58
	c17.957,2.721,53.297,17.823,67.64,28.949c2.554,1.975,6.338,7.563,7.288,10.641c0.979,3.168,3.459,14.76,4.091,18.024
	c1.279,6.575,5.922,20.092,5.922,20.092s21.356,30.704,23.928,38.112c2.364,6.787,0,16.629,0,22.159
	c0,7.981-7.631,49.273-7.631,49.273s-5.609,17.955-9.16,23.038C511.274,487.619,489.777,503.655,489.777,503.655"/>
<path d="M155.919,700.631"/>
<line x1="489.777" y1="495.561" x2="218.154" y2="494.504"/>
<path fill="#EC1E24" d="M359.968,567.42"/>
<path fill="#FABB9F" d="M305.643,332.769l51.011,298.702c0,0,17.633,5.317,39.999-8.472c20.145-12.438,43.546-29.401,55.459-42.095
	c10.932-11.672,23.505-31.979,31.821-55.491c4.558-12.873,11.485-72.127,11.485-72.127s9.902-9.129,12.415-12.27
	c5.069-6.359,9.062-26.835,3.104-32.354c-2.878-2.674-15.52,2.66-15.52,2.66l-31.033-120.613l-102.898-8.511"/>
<path fill="#FAC3A7" d="M182.313,743.152c0,0,3.78-19.837,35.764-37.52c31.994-17.682,42.949-24.974,46.722-34.29
	c2.929-7.238,6.963-21.72,7.306-29.253c0.625-13.646-5.762-54.374-5.762-54.374s-31.499-42.323-40.183-63.521
	c-7.189-17.544-10.143-75.172-10.143-75.172s-13.877-9.444-16.008-12.584c-4.639-6.836-10.645-27.913-3.989-32.796
	c2.597-1.908,12.415,3.547,12.415,3.547l13.008-71.983l37.812-44.497l62.932-8.511h38.939L357.47,630.7l1.06,172.73
	c0,0-90.884-19.363-140.376-39.3c-28.613-11.524-24.773-18.067-24.773-18.067"/>
<path fill="#FAC3A7" d="M354.291,631.612v171.818c0,0,75.759-15.474,142.647-32.902c67.177-17.494,93.857-33.556,93.857-33.556
	s-83.471-35.007-110.971-49.52c-27.493-14.523-60.13-32.944-60.13-32.944"/>
<path fill="#F6B79E" d="M446.962,586.01c0,0-48.457,38.317-72.024,41.682c-23.579,3.377-45.303-1.435-50.362-4.805
	c-5.048-3.36-26.931-14.312-26.931-14.312s41.978,43.818,48.824,49.27c10.56,8.369,34.905,20.205,47.67,24.119
	c25.489,7.793,105.965,15.396,105.965,15.396s-6.235-1.784-22.49-12.43c-10.196-6.673-20.389-17.614-23.971-22.603
	c-6.963-9.709-10.221-15.634-10.804-23.9C442.164,628.825,446.962,586.01,446.962,586.01"/>
<path fill="#EFA2A8" d="M360.618,557.831c0,0,5.653-5.769,10.914-2.509c5.274,3.258,17.056,9.026,17.056,9.026
	s-17.784,9.137-23.126,8.473c-4.024-0.495-5.593-1.438-5.593-1.438s-1.982,1.48-4.328,1.48c-4.416,0-21.872-9.338-21.872-9.338
	s11.796-7.507,15.679-8.914C352.772,553.362,360.618,557.831,360.618,557.831z"/>
<path fill="#F6B79E" d="M346.702,523.986c0,0,7.73,3.957,13.792,3.957c6.059,0.007,14-3.957,14-3.957h-12.714H346.702z"/>
<path d="M361.127,301.697c0,0,10.037,21.526,15.138,27.472c8.501,9.927,30.121,25.295,41.371,31.93
	c10.885,6.395,33.142,18.463,44.913,23.042c13.068,5.091,53.778,15.958,53.778,15.958l-52.309-109.389l-109.728-16.488
	l-95.035,16.488l-41.964,38.469l-12.404,65.595c0,0,45.366-12.326,60.268-17.138c11.857-3.823,35.276-12.743,46.104-18.912
	c9.761-5.557,27.083-20.431,34.23-29.101C350.574,323.449,361.127,301.697,361.127,301.697z"/>
<path fill="#FFFFFF" d="M364.844,274.826c0,2.417-1.961,4.388-4.392,4.388c-2.413,0-4.391-1.971-4.391-4.388
	c0-2.42,1.978-4.392,4.391-4.392C362.883,270.434,364.844,272.406,364.844,274.826z"/>
<path fill="#FFFFFF" d="M364.844,287.145c0,2.42-1.961,4.395-4.392,4.395c-2.413,0-4.391-1.975-4.391-4.395
	c0-2.427,1.978-4.392,4.391-4.392C362.883,282.753,364.844,284.717,364.844,287.145z"/>
<path fill="#FFFFFF" d="M364.727,301.011c0.092,2.431-1.82,4.448-4.243,4.522c-2.42,0.081-4.44-1.82-4.522-4.236
	c-0.078-2.427,1.827-4.455,4.247-4.526C362.632,296.687,364.653,298.599,364.727,301.011z"/>
<path fill="#FFFFFF" d="M379.671,305.897c0,2.427-1.961,4.392-4.392,4.392c-2.42,0-4.384-1.964-4.384-4.392
	c0-2.424,1.964-4.385,4.384-4.385C377.71,301.513,379.671,303.474,379.671,305.897z"/>
<path fill="#FFFFFF" d="M381.104,319.071c0,2.42-1.978,4.385-4.397,4.385c-2.413,0-4.384-1.964-4.384-4.385
	c0-2.438,1.971-4.398,4.384-4.398C379.127,314.673,381.104,316.634,381.104,319.071z"/>
<path fill="#FFFFFF" d="M390.481,330.207c0,2.427-1.968,4.388-4.397,4.388c-2.413,0-4.386-1.961-4.386-4.388
	c0-2.424,1.973-4.388,4.386-4.388C388.514,325.819,390.481,327.783,390.481,330.207z"/>
<path fill="#FFFFFF" d="M393.862,311.805c0,2.419-1.979,4.38-4.398,4.38s-4.385-1.961-4.385-4.38c0-2.427,1.965-4.399,4.385-4.399
	S393.862,309.377,393.862,311.805z"/>
<path fill="#FFFFFF" d="M400.752,340.625c0,2.424-1.962,4.388-4.385,4.388c-2.428,0-4.391-1.964-4.391-4.388
	c0-2.42,1.963-4.384,4.391-4.384C398.79,336.241,400.752,338.206,400.752,340.625z"/>
<path fill="#FFFFFF" d="M413.71,349.854c0,2.42-1.971,4.381-4.391,4.381c-2.425,0-4.392-1.961-4.392-4.381
	c0-2.431,1.967-4.391,4.392-4.391C411.739,345.462,413.71,347.423,413.71,349.854z"/>
<path fill="#FFFFFF" d="M426.143,358.293c0,2.431-1.953,4.388-4.385,4.388c-2.419,0-4.392-1.957-4.392-4.388
	c0-2.419,1.973-4.391,4.392-4.391C424.189,353.902,426.143,355.874,426.143,358.293z"/>
<path fill="#FFFFFF" d="M406.605,318.626c0,2.42-1.971,4.385-4.384,4.385c-2.42,0-4.392-1.964-4.392-4.385
	c0-2.427,1.972-4.391,4.392-4.391C404.635,314.235,406.605,316.199,406.605,318.626z"/>
<path fill="#FFFFFF" d="M418.084,323.993c0,2.423-1.961,4.381-4.374,4.381c-2.43,0-4.391-1.958-4.391-4.381
	c0-2.427,1.961-4.388,4.391-4.388C416.123,319.605,418.084,321.565,418.084,323.993z"/>
<path fill="#FFFFFF" d="M430.541,329.352c0,2.431-1.979,4.395-4.398,4.395c-2.412,0-4.385-1.964-4.385-4.395
	c0-2.427,1.973-4.392,4.385-4.392C428.562,324.96,430.541,326.925,430.541,329.352z"/>
<path fill="#FFFFFF" d="M443.698,334.846c0,2.424-1.962,4.388-4.398,4.388c-2.414,0-4.375-1.964-4.375-4.388
	c0-2.42,1.961-4.388,4.375-4.388C441.736,330.458,443.698,332.426,443.698,334.846z"/>
<path fill="#FFFFFF" d="M458.027,340.202c0,2.423-1.972,4.398-4.385,4.398c-2.431,0-4.402-1.975-4.402-4.398
	c0-2.417,1.972-4.388,4.402-4.388C456.056,335.814,458.027,337.785,458.027,340.202z"/>
<path fill="#FFFFFF" d="M470.441,343.625c0,2.42-1.979,4.392-4.392,4.392c-2.43,0-4.391-1.972-4.391-4.392s1.961-4.392,4.391-4.392
	C468.463,339.233,470.441,341.205,470.441,343.625z"/>
<path fill="#FFFFFF" d="M482.846,346.579c0,2.427-1.968,4.402-4.392,4.402c-2.42,0-4.392-1.975-4.392-4.402
	c0-2.417,1.972-4.384,4.392-4.384C480.878,342.194,482.846,344.162,482.846,346.579z"/>
<path fill="#FFFFFF" d="M495.253,347.002c0,2.417-1.971,4.388-4.384,4.388c-2.438,0-4.399-1.972-4.399-4.388
	c0-2.427,1.962-4.391,4.399-4.391C493.282,342.611,495.253,344.576,495.253,347.002z"/>
<path fill="#FFFFFF" d="M508.177,345.748c0,2.427-1.962,4.392-4.375,4.392c-2.438,0-4.397-1.964-4.397-4.392
	c0-2.423,1.96-4.391,4.397-4.391C506.215,341.357,508.177,343.325,508.177,345.748z"/>
<path fill="#FFFFFF" d="M439.925,365.44c0,2.423-1.962,4.381-4.385,4.381c-2.428,0-4.398-1.958-4.398-4.381s1.971-4.388,4.398-4.388
	C437.963,361.053,439.925,363.017,439.925,365.44z"/>
<path fill="#FFFFFF" d="M452.664,372.775c0,2.434-1.968,4.395-4.392,4.395c-2.42,0-4.392-1.96-4.392-4.395
	c0-2.427,1.972-4.388,4.392-4.388C450.696,368.387,452.664,370.348,452.664,372.775z"/>
<path fill="#FFFFFF" d="M466.039,379.24c0,2.423-1.96,4.391-4.38,4.391c-2.425,0-4.392-1.968-4.392-4.391
	c0-2.424,1.967-4.388,4.392-4.388C464.079,374.852,466.039,376.816,466.039,379.24z"/>
<path fill="#FFFFFF" d="M480.107,383.631c0,2.427-1.968,4.388-4.38,4.388c-2.432,0-4.392-1.96-4.392-4.388
	c0-2.42,1.96-4.391,4.392-4.391C478.14,379.24,480.107,381.211,480.107,383.631z"/>
<path fill="#FFFFFF" d="M494.158,387.263c0,2.42-1.962,4.384-4.381,4.384c-2.432,0-4.402-1.964-4.402-4.384s1.971-4.395,4.402-4.395
	C492.196,382.868,494.158,384.843,494.158,387.263z"/>
<path fill="#FFFFFF" d="M507.367,389.245c0,2.423-1.971,4.384-4.384,4.384c-2.421,0-4.381-1.961-4.381-4.384s1.96-4.395,4.381-4.395
	C505.396,384.85,507.367,386.822,507.367,389.245z"/>
<path fill="#FFFFFF" d="M520.708,391.647c0,2.424-1.968,4.388-4.381,4.388c-2.424,0-4.392-1.964-4.392-4.388
	c0-2.431,1.968-4.395,4.392-4.395C518.74,387.253,520.708,389.217,520.708,391.647z"/>
<path fill="#FFFFFF" d="M534.26,390.386c0,2.42-1.971,4.388-4.384,4.388c-2.428,0-4.399-1.968-4.399-4.388s1.972-4.388,4.399-4.388
	C532.289,385.999,534.26,387.966,534.26,390.386z"/>
<path fill="#FFFFFF" d="M364,313.677c0,1.869-1.52,3.402-3.399,3.402c-1.869,0-3.388-1.533-3.388-3.402
	c0-1.862,1.519-3.388,3.388-3.388C362.48,310.289,364,311.815,364,313.677z"/>
<path fill="#FFFFFF" d="M364,321.438c0,1.872-1.52,3.388-3.399,3.388c-1.869,0-3.388-1.516-3.388-3.388
	c0-1.876,1.519-3.395,3.388-3.395C362.48,318.043,364,319.562,364,321.438z"/>
<path fill="#FFFFFF" d="M364.519,330.207c0,1.869-1.512,3.392-3.392,3.392c-1.876,0-3.388-1.523-3.388-3.392
	c0-1.869,1.512-3.398,3.388-3.398C363.006,326.809,364.519,328.338,364.519,330.207z"/>
<path fill="#FFFFFF" d="M363.773,338.484c0,1.474-1.184,2.654-2.646,2.654c-1.47,0-2.66-1.18-2.66-2.654
	c0-1.462,1.19-2.653,2.66-2.653C362.589,335.832,363.773,337.022,363.773,338.484z"/>
<path fill="#FFFFFF" d="M363.773,345.741c0,1.473-1.184,2.66-2.646,2.66c-1.47,0-2.66-1.187-2.66-2.66
	c0-1.456,1.19-2.643,2.66-2.643C362.589,343.099,363.773,344.286,363.773,345.741z"/>
<path fill="#FFFFFF" d="M362.338,295.447c0,1.084-0.894,1.982-1.985,1.982c-1.102,0-1.996-0.898-1.996-1.982
	c0-1.099,0.894-1.993,1.996-1.993C361.445,293.455,362.338,294.348,362.338,295.447z"/>
<path fill="#FFFFFF" d="M367.758,298.754c0,1.099-0.894,1.993-1.988,1.993c-1.103,0-1.997-0.894-1.997-1.993
	c0-1.103,0.894-1.982,1.997-1.982C366.864,296.772,367.758,297.651,367.758,298.754z"/>
<path fill="#FFFFFF" d="M357.212,298.754c0,1.099-0.883,1.993-1.985,1.993c-1.103,0-1.996-0.894-1.996-1.993
	c0-1.103,0.894-1.982,1.996-1.982C356.329,296.772,357.212,297.651,357.212,298.754z"/>
<path fill="#FFFFFF" d="M362.589,306.848c0,1.092-0.887,1.992-1.989,1.992c-1.092,0-1.985-0.9-1.985-1.992
	c0-1.099,0.894-1.993,1.985-1.993C361.703,304.855,362.589,305.749,362.589,306.848z"/>
<path fill="#FFFFFF" d="M366.829,304.855c0,1.103-0.89,1.993-1.985,1.993s-1.986-0.89-1.986-1.993c0-1.095,0.89-1.982,1.986-1.982
	S366.829,303.76,366.829,304.855z"/>
<path fill="#FFFFFF" d="M357.947,304.449c0,1.085-0.887,1.985-1.986,1.985c-1.102,0-1.988-0.9-1.988-1.985
	c0-1.102,0.887-1.996,1.988-1.996C357.061,302.453,357.947,303.347,357.947,304.449z"/>
<path fill="#FFFFFF" d="M384.564,309.398c0,1.088-0.894,1.985-1.989,1.985c-1.103,0-1.992-0.897-1.992-1.985
	c0-1.095,0.89-1.993,1.992-1.993C383.671,307.406,384.564,308.303,384.564,309.398z"/>
<path fill="#FFFFFF" d="M397.83,315.669c0,1.102-0.895,1.979-1.985,1.979c-1.088,0-1.982-0.876-1.982-1.979
	c0-1.099,0.895-1.993,1.982-1.993C396.936,313.677,397.83,314.571,397.83,315.669z"/>
<path fill="#FFFFFF" d="M409.828,321.587c0,1.099-0.895,1.989-1.989,1.989c-1.099,0-1.993-0.891-1.993-1.989
	s0.895-1.982,1.993-1.982C408.934,319.605,409.828,320.488,409.828,321.587z"/>
<path fill="#FFFFFF" d="M421.801,326.953c0,1.095-0.895,1.986-1.996,1.986c-1.095,0-1.979-0.891-1.979-1.986
	c0-1.099,0.884-1.993,1.979-1.993C420.906,324.96,421.801,325.854,421.801,326.953z"/>
<path fill="#FFFFFF" d="M434.516,332.769c0,1.092-0.901,1.989-1.996,1.989c-1.103,0-1.979-0.897-1.979-1.989
	c0-1.099,0.876-1.986,1.979-1.986C433.614,330.783,434.516,331.669,434.516,332.769z"/>
<path fill="#FFFFFF" d="M448.272,338.22c0,1.106-0.891,1.982-1.985,1.982c-1.096,0-1.985-0.876-1.985-1.982
	c0-1.099,0.89-1.979,1.985-1.979C447.382,336.241,448.272,337.121,448.272,338.22z"/>
<path fill="#FFFFFF" d="M461.489,342.611c0,1.091-0.895,1.989-1.985,1.989c-1.103,0-1.989-0.897-1.989-1.989
	c0-1.103,0.887-1.986,1.989-1.986C460.595,340.625,461.489,341.509,461.489,342.611z"/>
<path fill="#FFFFFF" d="M474.048,346.579c0,1.102-0.887,1.993-1.978,1.993c-1.112,0-1.996-0.891-1.996-1.993
	c0-1.092,0.884-1.979,1.996-1.979C473.161,344.6,474.048,345.487,474.048,346.579z"/>
<path fill="#FFFFFF" d="M486.82,347.737c0,1.103-0.884,1.989-1.985,1.989c-1.103,0-1.989-0.887-1.989-1.989
	c0-1.099,0.887-1.989,1.989-1.989C485.937,345.748,486.82,346.639,486.82,347.737z"/>
<path fill="#FFFFFF" d="M499.228,347.737c0,1.103-0.894,1.989-1.979,1.989c-1.102,0-1.996-0.887-1.996-1.989
	c0-1.099,0.895-1.989,1.996-1.989C498.334,345.748,499.228,346.639,499.228,347.737z"/>
<path fill="#FFFFFF" d="M430.124,362.682c0,1.088-0.894,1.985-1.979,1.985c-1.113,0-2.003-0.897-2.003-1.985
	c0-1.099,0.89-1.993,2.003-1.993C429.23,360.689,430.124,361.583,430.124,362.682z"/>
<path fill="#FFFFFF" d="M373.603,313.808c0,1.099-0.885,1.989-1.986,1.989c-1.096,0-1.989-0.891-1.989-1.989
	c0-1.095,0.894-1.989,1.989-1.989C372.718,311.818,373.603,312.712,373.603,313.808z"/>
<path fill="#FFFFFF" d="M416.767,355.241c0,1.099-0.894,1.981-1.989,1.981c-1.091,0-1.985-0.883-1.985-1.981
	c0-1.102,0.895-1.989,1.985-1.989C415.873,353.252,416.767,354.139,416.767,355.241z"/>
<path fill="#FFFFFF" d="M383.094,324.96c0,1.099-0.893,1.993-1.989,1.993c-1.091,0-1.991-0.894-1.991-1.993
	c0-1.099,0.9-1.985,1.991-1.985C382.201,322.975,383.094,323.862,383.094,324.96z"/>
<path fill="#FFFFFF" d="M392.46,336.241c0,1.095-0.884,1.979-1.979,1.979c-1.103,0-1.992-0.883-1.992-1.979
	c0-1.113,0.89-1.993,1.992-1.993C391.576,334.249,392.46,335.128,392.46,336.241z"/>
<path fill="#FFFFFF" d="M404.207,346.027c0,1.099-0.891,1.989-1.993,1.989c-1.088,0-1.988-0.891-1.988-1.989
	c0-1.095,0.9-1.989,1.988-1.989C403.316,344.038,404.207,344.932,404.207,346.027z"/>
<path fill="#FFFFFF" d="M443.906,369.821c0,1.109-0.891,1.996-1.985,1.996c-1.109,0-1.996-0.887-1.996-1.996
	c0-1.092,0.887-1.971,1.996-1.971C443.016,367.85,443.906,368.729,443.906,369.821z"/>
<path fill="#FFFFFF" d="M456.639,376.845c0,1.088-0.895,1.982-1.979,1.982c-1.103,0-1.996-0.894-1.996-1.982
	c0-1.102,0.894-1.993,1.996-1.993C455.744,374.852,456.639,375.743,456.639,376.845z"/>
<path fill="#FFFFFF" d="M470.074,382.992c0,1.092-0.894,1.989-1.996,1.989c-1.095,0-1.979-0.897-1.979-1.989
	s0.884-1.985,1.979-1.985C469.181,381.007,470.074,381.9,470.074,382.992z"/>
<path fill="#FFFFFF" d="M484.21,386.479c0,1.102-0.895,1.993-1.989,1.993c-1.103,0-1.997-0.891-1.997-1.993
	c0-1.099,0.895-1.986,1.997-1.986C483.315,384.493,484.21,385.38,484.21,386.479z"/>
<path fill="#FFFFFF" d="M498.133,390.386c0,1.092-0.884,1.982-1.985,1.982c-1.096,0-1.989-0.89-1.989-1.982
	c0-1.099,0.894-1.985,1.989-1.985C497.249,388.401,498.133,389.288,498.133,390.386z"/>
<path fill="#FFFFFF" d="M511.342,391.641c0,1.095-0.887,1.989-1.985,1.989c-1.095,0-1.989-0.894-1.989-1.989
	c0-1.088,0.895-1.985,1.989-1.985C510.455,389.655,511.342,390.552,511.342,391.641z"/>
<path fill="#FFFFFF" d="M525.477,392.368c0,1.11-0.887,1.997-1.989,1.997c-1.091,0-1.985-0.887-1.985-1.997
	c0-1.103,0.895-1.982,1.985-1.982C524.59,390.386,525.477,391.266,525.477,392.368z"/>
<path fill="#FFFFFF" d="M341.968,306.565c-0.166,2.413,1.668,4.504,4.091,4.671c2.402,0.148,4.5-1.671,4.667-4.102
	c0.16-2.41-1.67-4.498-4.101-4.664C344.222,302.315,342.127,304.142,341.968,306.565z"/>
<path fill="#FFFFFF" d="M339.665,319.605c-0.169,2.413,1.667,4.511,4.08,4.667c2.424,0.166,4.508-1.664,4.678-4.087
	c0.159-2.417-1.679-4.508-4.091-4.667C341.918,315.354,339.82,317.185,339.665,319.605z"/>
<path fill="#FFFFFF" d="M329.567,330.098c-0.155,2.423,1.671,4.515,4.084,4.664c2.413,0.176,4.518-1.657,4.677-4.074
	c0.166-2.42-1.671-4.522-4.084-4.67C331.825,325.854,329.727,327.681,329.567,330.098z"/>
<path fill="#FFFFFF" d="M327.423,311.508c-0.159,2.419,1.66,4.511,4.073,4.667c2.423,0.162,4.519-1.667,4.677-4.088
	c0.159-2.413-1.671-4.508-4.083-4.67C329.67,307.257,327.575,309.084,327.423,311.508z"/>
<path fill="#FFFFFF" d="M318.623,339.813c-0.155,2.413,1.664,4.504,4.084,4.667c2.413,0.159,4.508-1.664,4.674-4.091
	c0.159-2.41-1.667-4.508-4.091-4.663C320.876,335.563,318.775,337.393,318.623,339.813z"/>
<path fill="#FFFFFF" d="M306.452,349.027c-0.167,2.413,1.67,4.508,4.091,4.667c2.413,0.152,4.5-1.667,4.667-4.087
	c0.159-2.42-1.671-4.505-4.098-4.67C308.699,344.777,306.611,346.61,306.452,349.027z"/>
<path fill="#FFFFFF" d="M292.108,355.761c-0.152,2.423,1.685,4.508,4.091,4.67c2.427,0.156,4.508-1.674,4.667-4.091
	c0.166-2.417-1.671-4.512-4.083-4.667C294.369,351.514,292.274,353.337,292.108,355.761z"/>
<path fill="#FFFFFF" d="M314.242,317.467c-0.159,2.42,1.667,4.515,4.091,4.682c2.413,0.151,4.497-1.682,4.656-4.088
	c0.17-2.431-1.66-4.519-4.091-4.681C316.496,313.225,314.401,315.055,314.242,317.467z"/>
<path fill="#FFFFFF" d="M302.428,322.064c-0.159,2.417,1.667,4.508,4.091,4.667c2.413,0.167,4.501-1.664,4.667-4.08
	c0.148-2.42-1.678-4.515-4.091-4.678C304.682,317.817,302.594,319.651,302.428,322.064z"/>
<path fill="#FFFFFF" d="M289.66,326.593c-0.155,2.419,1.671,4.501,4.077,4.67c2.42,0.159,4.515-1.667,4.681-4.095
	c0.152-2.417-1.667-4.508-4.087-4.67C291.907,322.343,289.812,324.18,289.66,326.593z"/>
<path fill="#FFFFFF" d="M276.154,331.196c-0.159,2.42,1.667,4.512,4.081,4.677c2.431,0.148,4.519-1.678,4.685-4.091
	c0.159-2.413-1.678-4.519-4.091-4.674C278.408,326.946,276.32,328.78,276.154,331.196z"/>
<path fill="#FFFFFF" d="M261.51,335.602c-0.159,2.42,1.667,4.512,4.081,4.667c2.424,0.159,4.512-1.667,4.678-4.084
	c0.159-2.423-1.671-4.515-4.091-4.674C263.771,331.355,261.669,333.186,261.51,335.602z"/>
<path fill="#FFFFFF" d="M248.894,338.188c-0.159,2.413,1.685,4.505,4.091,4.664c2.42,0.159,4.508-1.667,4.667-4.081
	c0.166-2.424-1.66-4.515-4.091-4.681C251.148,333.941,249.06,335.764,248.894,338.188z"/>
<path fill="#FFFFFF" d="M236.321,340.318c-0.16,2.42,1.67,4.504,4.083,4.67c2.42,0.163,4.508-1.674,4.674-4.095
	c0.159-2.417-1.678-4.5-4.091-4.667C238.575,336.068,236.479,337.902,236.321,340.318z"/>
<path fill="#FFFFFF" d="M223.906,339.901c-0.159,2.424,1.671,4.515,4.091,4.674c2.42,0.169,4.508-1.664,4.667-4.081
	c0.177-2.427-1.671-4.515-4.091-4.681C226.16,335.655,224.072,337.481,223.906,339.901z"/>
<path fill="#FFFFFF" d="M211.099,337.807c-0.166,2.416,1.667,4.508,4.08,4.67c2.413,0.148,4.512-1.674,4.661-4.095
	c0.176-2.409-1.661-4.504-4.081-4.663C213.343,333.556,211.258,335.383,211.099,337.807z"/>
<path fill="#FFFFFF" d="M277.889,361.972c-0.159,2.43,1.678,4.515,4.091,4.67c2.413,0.166,4.519-1.664,4.677-4.083
	c0.148-2.42-1.678-4.512-4.091-4.664C280.153,357.725,278.058,359.559,277.889,361.972z"/>
<path fill="#FFFFFF" d="M264.689,368.454c-0.148,2.42,1.678,4.508,4.084,4.67c2.427,0.156,4.515-1.675,4.685-4.087
	c0.156-2.42-1.681-4.519-4.091-4.674C266.944,364.204,264.856,366.027,264.689,368.454z"/>
<path fill="#FFFFFF" d="M250.915,374.015c-0.159,2.423,1.679,4.508,4.091,4.67c2.413,0.163,4.508-1.671,4.667-4.088
	c0.166-2.42-1.671-4.511-4.084-4.667C253.168,369.769,251.074,371.598,250.915,374.015z"/>
<path fill="#FFFFFF" d="M236.589,377.466c-0.159,2.42,1.678,4.505,4.091,4.667c2.419,0.152,4.508-1.674,4.667-4.087
	c0.166-2.42-1.664-4.504-4.084-4.663C238.85,373.209,236.748,375.05,236.589,377.466z"/>
<path fill="#FFFFFF" d="M222.327,380.151c-0.159,2.417,1.678,4.501,4.091,4.667c2.406,0.163,4.508-1.674,4.667-4.091
	c0.169-2.41-1.667-4.508-4.091-4.67C224.573,375.898,222.479,377.728,222.327,380.151z"/>
<path fill="#FFFFFF" d="M209.018,381.254c-0.166,2.423,1.671,4.508,4.084,4.674c2.419,0.156,4.508-1.678,4.667-4.091
	c0.176-2.416-1.654-4.504-4.074-4.667C211.272,377.011,209.177,378.837,209.018,381.254z"/>
<path fill="#FFFFFF" d="M195.544,382.759c-0.159,2.431,1.678,4.519,4.083,4.67c2.431,0.169,4.508-1.657,4.685-4.077
	c0.148-2.42-1.678-4.515-4.102-4.667C197.798,378.519,195.71,380.35,195.544,382.759z"/>
<path fill="#FFFFFF" d="M182.112,380.611c-0.159,2.42,1.678,4.511,4.091,4.674c2.42,0.152,4.508-1.664,4.667-4.091
	c0.159-2.417-1.671-4.508-4.084-4.667C184.366,376.361,182.278,378.194,182.112,380.611z"/>
<path fill="#FFFFFF" d="M336.859,309.723c-0.078,1.099,0.749,2.045,1.844,2.12c1.091,0.067,2.045-0.76,2.12-1.851
	c0.067-1.092-0.767-2.046-1.862-2.113C337.876,307.798,336.923,308.632,336.859,309.723z"/>
<path fill="#FFFFFF" d="M323.19,315.104c-0.067,1.095,0.767,2.045,1.855,2.109c1.084,0.078,2.045-0.749,2.112-1.844
	c0.075-1.092-0.752-2.045-1.847-2.109C324.219,313.186,323.265,314.012,323.19,315.104z"/>
<path fill="#FFFFFF" d="M310.836,320.212c-0.067,1.103,0.759,2.053,1.851,2.124c1.102,0.07,2.045-0.756,2.113-1.854
	c0.074-1.088-0.76-2.042-1.855-2.12C311.854,318.291,310.91,319.121,310.836,320.212z"/>
<path fill="#FFFFFF" d="M298.527,324.773c-0.067,1.099,0.76,2.035,1.862,2.12c1.095,0.067,2.038-0.76,2.113-1.858
	c0.066-1.088-0.753-2.032-1.855-2.116C299.556,322.848,298.612,323.675,298.527,324.773z"/>
<path fill="#FFFFFF" d="M285.463,329.73c-0.067,1.11,0.76,2.053,1.844,2.124c1.102,0.074,2.046-0.759,2.12-1.852
	c0.078-1.102-0.749-2.052-1.844-2.116C286.48,327.812,285.537,328.635,285.463,329.73z"/>
<path fill="#FFFFFF" d="M271.377,334.266c-0.084,1.088,0.742,2.035,1.837,2.116c1.102,0.067,2.045-0.759,2.113-1.854
	c0.081-1.099-0.752-2.042-1.844-2.123C272.388,332.341,271.438,333.167,271.377,334.266z"/>
<path fill="#FFFFFF" d="M257.893,337.768c-0.075,1.099,0.752,2.039,1.848,2.109c1.102,0.081,2.045-0.753,2.112-1.844
	c0.074-1.11-0.752-2.042-1.837-2.12C258.903,335.838,257.959,336.676,257.893,337.768z"/>
<path fill="#FFFFFF" d="M245.096,340.894c-0.078,1.103,0.749,2.042,1.844,2.116c1.096,0.085,2.039-0.752,2.12-1.844
	c0.067-1.102-0.76-2.042-1.844-2.127C246.114,338.969,245.17,339.806,245.096,340.894z"/>
<path fill="#FFFFFF" d="M232.272,341.205c-0.067,1.092,0.766,2.042,1.851,2.109c1.095,0.078,2.049-0.753,2.113-1.845
	c0.085-1.099-0.749-2.049-1.852-2.119C233.289,339.28,232.356,340.106,232.272,341.205z"/>
<path fill="#FFFFFF" d="M219.889,340.371c-0.056,1.109,0.753,2.045,1.855,2.127c1.092,0.071,2.045-0.763,2.113-1.855
	c0.067-1.099-0.76-2.042-1.855-2.113C220.917,338.457,219.963,339.287,219.889,340.371z"/>
<path fill="#FFFFFF" d="M287.851,359.876c-0.078,1.099,0.767,2.032,1.862,2.113c1.091,0.074,2.028-0.756,2.109-1.852
	c0.067-1.099-0.749-2.046-1.852-2.112C288.875,357.947,287.925,358.781,287.851,359.876z"/>
<path fill="#FFFFFF" d="M347.494,314.85c-0.075,1.096,0.752,2.049,1.854,2.116c1.092,0.071,2.028-0.752,2.113-1.844
	c0.067-1.103-0.759-2.046-1.854-2.117C348.514,312.928,347.571,313.762,347.494,314.85z"/>
<path fill="#FFFFFF" d="M301.675,353.747c-0.074,1.095,0.76,2.042,1.855,2.116c1.084,0.067,2.045-0.756,2.113-1.854
	c0.074-1.095-0.753-2.042-1.848-2.113C302.693,351.818,301.75,352.645,301.675,353.747z"/>
<path fill="#FFFFFF" d="M337.283,325.36c-0.067,1.099,0.753,2.039,1.855,2.113s2.046-0.76,2.113-1.858
	c0.074-1.088-0.753-2.038-1.855-2.109C338.301,323.428,337.357,324.258,337.283,325.36z"/>
<path fill="#FFFFFF" d="M327.19,335.98c-0.067,1.099,0.752,2.042,1.837,2.116c1.102,0.078,2.052-0.749,2.119-1.851
	c0.075-1.099-0.742-2.042-1.851-2.113C328.208,334.062,327.264,334.877,327.19,335.98z"/>
<path fill="#FFFFFF" d="M315.485,345.261c-0.074,1.099,0.759,2.042,1.862,2.12c1.085,0.067,2.035-0.767,2.103-1.862
	c0.078-1.091-0.75-2.038-1.852-2.113C316.503,343.335,315.577,344.162,315.485,345.261z"/>
<path fill="#FFFFFF" d="M273.631,366.09c-0.074,1.103,0.76,2.042,1.844,2.113c1.103,0.085,2.057-0.756,2.13-1.841
	c0.075-1.102-0.759-2.049-1.854-2.116C274.648,364.172,273.706,364.992,273.631,366.09z"/>
<path fill="#FFFFFF" d="M260.457,372.242c-0.067,1.095,0.76,2.045,1.855,2.12c1.091,0.07,2.045-0.76,2.109-1.858
	c0.078-1.084-0.742-2.039-1.851-2.109C261.485,370.316,260.531,371.15,260.457,372.242z"/>
<path fill="#FFFFFF" d="M246.658,377.502c-0.085,1.088,0.742,2.027,1.837,2.109c1.092,0.066,2.053-0.763,2.109-1.855
	c0.078-1.099-0.742-2.045-1.844-2.112C247.675,375.573,246.725,376.393,246.658,377.502z"/>
<path fill="#FFFFFF" d="M232.314,380.038c-0.078,1.088,0.749,2.035,1.851,2.113c1.095,0.067,2.045-0.752,2.113-1.858
	c0.084-1.099-0.76-2.039-1.844-2.112C233.339,378.11,232.388,378.939,232.314,380.038z"/>
<path fill="#FFFFFF" d="M218.161,383.002c-0.084,1.106,0.753,2.046,1.845,2.12c1.088,0.067,2.045-0.756,2.112-1.844
	c0.078-1.099-0.749-2.045-1.852-2.127C219.172,381.077,218.211,381.918,218.161,383.002z"/>
<path fill="#FFFFFF" d="M204.896,383.392c-0.074,1.091,0.752,2.031,1.854,2.119c1.085,0.064,2.035-0.767,2.102-1.854
	c0.085-1.103-0.752-2.042-1.844-2.123C205.913,381.462,204.956,382.286,204.896,383.392z"/>
<path fill="#FFFFFF" d="M190.743,383.176c-0.074,1.099,0.752,2.039,1.848,2.12c1.103,0.063,2.045-0.763,2.113-1.851
	c0.074-1.099-0.753-2.046-1.848-2.123C191.764,381.254,190.82,382.084,190.743,383.176z"/>
<path fill="#FFFFFF" d="M380.597,355.139c0,0,4.274,2.512,3.883,5.116c-0.474,3.151-7.062,3.875-10.242,3.699
	c-5.296-0.297-8.157-11.758-12.298-14.99c-0.721-0.562-1.127-0.414-1.127-0.414s0.643-0.261,1.268,0.269
	c3.296,2.742,9.525,11.697,13.941,11.5c2.307-0.113,4.894-0.625,5.769-2.105C382.494,357.008,380.597,355.139,380.597,355.139z"/>
<path fill="#FFFFFF" d="M370.98,356.336c0.392,0.138,1.027,0.06,1.586-0.36c0.901-0.671,1.512-2.031,1.403-2.675
	c-0.185-1.286-3.247-2.522-4.544-2.455c-2.102,0.12-7.02,5.155-8.642,6.78c-0.332,0.339-0.59,0.339-0.59,0.339
	s0.159,0.117,0.534-0.173c1.562-1.226,6.119-3.907,7.663-4.688c0.88-0.453,3.25-0.347,3.3,0.339c0.074,0.982-0.71,0.905-1.021,1.145
	C369.921,355.149,370.681,356.223,370.98,356.336z"/>
<path fill="#FFFFFF" d="M340.724,355.139c0,0-4.274,2.512-3.882,5.116c0.484,3.151,7.055,3.875,10.234,3.699
	c5.293-0.297,8.165-11.758,12.309-14.99c0.717-0.562,1.116-0.414,1.116-0.414s-0.643-0.261-1.275,0.269
	c-3.3,2.742-9.503,11.697-13.937,11.5c-2.304-0.113-4.883-0.625-5.759-2.105C338.827,357.008,340.724,355.139,340.724,355.139z"/>
<path fill="#FFFFFF" d="M349.631,356.336c-0.375,0.138-1.017,0.06-1.576-0.36c-0.894-0.671-1.495-2.031-1.396-2.675
	c0.184-1.286,3.257-2.522,4.543-2.455c2.095,0.12,7.013,5.155,8.631,6.78c0.335,0.339,0.593,0.339,0.593,0.339
	s-0.166,0.117-0.526-0.173c-1.569-1.226-6.136-3.907-7.663-4.688c-0.887-0.453-3.24-0.347-3.317,0.339
	c-0.064,0.982,0.728,0.905,1.035,1.145C350.708,355.149,349.942,356.223,349.631,356.336z"/>
<path fill="#FFFFFF" d="M362.632,353.206c0,1.173-0.968,2.124-2.13,2.124c-1.159,0-2.113-0.951-2.113-2.124
	c0-1.18,0.954-2.126,2.113-2.126C361.664,351.08,362.632,352.026,362.632,353.206z"/>
<path fill="#FFFFFF" d="M363.801,366.525c0,1.996-1.629,3.625-3.642,3.625c-2.004,0-3.632-1.628-3.632-3.625
	c0-2.021,1.628-3.639,3.632-3.639C362.172,362.886,363.801,364.504,363.801,366.525z"/>
<circle fill="#FFFFFF" cx="360.159" cy="361.59" r="2.18"/>
<path fill="#FFFFFF" d="M362.338,371.252c0,1.197-0.975,2.162-2.179,2.162c-1.202,0-2.18-0.964-2.18-2.162
	c0-1.212,0.979-2.18,2.18-2.18C361.363,369.072,362.338,370.041,362.338,371.252z"/>
<path fill="#FFFFFF" d="M367.716,366.525c0,1.194-0.979,2.166-2.18,2.166c-1.194,0-2.18-0.972-2.18-2.166
	c0-1.205,0.986-2.187,2.18-2.187C366.737,364.338,367.716,365.32,367.716,366.525z"/>
<path fill="#FFFFFF" d="M357.021,366.525c0,1.194-0.96,2.166-2.18,2.166c-1.194,0-2.169-0.972-2.169-2.166
	c0-1.205,0.975-2.187,2.169-2.187C356.061,364.338,357.021,365.32,357.021,366.525z"/>
<path fill="#FFFFFF" d="M364.426,363.536c0,0.668-0.544,1.201-1.211,1.201c-0.657,0-1.201-0.533-1.201-1.201
	c0-0.664,0.544-1.204,1.201-1.204C363.882,362.332,364.426,362.872,364.426,363.536z"/>
<path fill="#FFFFFF" d="M364.426,369.412c0,0.667-0.544,1.208-1.211,1.208c-0.657,0-1.201-0.541-1.201-1.208
	c0-0.665,0.544-1.208,1.201-1.208C363.882,368.203,364.426,368.747,364.426,369.412z"/>
<path fill="#FFFFFF" d="M358.24,363.536c0,0.668-0.562,1.201-1.219,1.201c-0.66,0-1.211-0.533-1.211-1.201
	c0-0.664,0.551-1.204,1.211-1.204C357.679,362.332,358.24,362.872,358.24,363.536z"/>
<path fill="#FFFFFF" d="M358.24,369.412c0,0.667-0.562,1.208-1.219,1.208c-0.66,0-1.211-0.541-1.211-1.208
	c0-0.665,0.551-1.208,1.211-1.208C357.679,368.203,358.24,368.747,358.24,369.412z"/>
<path fill="#FFFFFF" d="M372.651,363.512c0,0,4.915-0.431,5.967,1.975c1.286,2.918-4.042,7.85-6.662,8.606
	c-1.954,0.565-5.367-3.105-7.381-3.371c-0.257-0.039-0.985,0.375-0.985,0.375s0.36-0.756,0.611-0.854
	c2.304-0.979,7.992,1.25,10.009-0.251c0.972-0.728,1.731-3.766,1.053-4.784C374.803,364.519,372.651,363.512,372.651,363.512z"/>
<path fill="#FFFFFF" d="M348.461,363.611c0,0-4.957-0.163-6.017,2.25c-1.286,2.922,4.056,7.85,6.67,8.603
	c1.96,0.569,5.377-3.105,7.387-3.377c0.251-0.021,0.985,0.375,0.985,0.375s-0.374-0.739-0.618-0.848
	c-2.303-0.979-8.005,1.25-10.001-0.241c-0.993-0.738-1.734-3.766-1.06-4.793C346.268,364.893,348.461,363.611,348.461,363.611z"/>
<path fill="#FFFFFF" d="M361.579,376.276c0,0.858-0.692,1.551-1.555,1.551c-0.858,0-1.558-0.692-1.558-1.551s0.7-1.558,1.558-1.558
	C360.887,374.718,361.579,375.417,361.579,376.276z"/>
<path fill="#FFFFFF" d="M361.586,381.183c0,0.852-0.692,1.551-1.562,1.551c-0.858,0-1.558-0.7-1.558-1.551
	c0-0.858,0.7-1.558,1.558-1.558C360.894,379.625,361.586,380.325,361.586,381.183z"/>
<path fill="#FFFFFF" d="M361.586,386.878c0,0.866-0.692,1.562-1.562,1.562c-0.858,0-1.558-0.696-1.558-1.562
	c0-0.848,0.7-1.544,1.558-1.544C360.894,385.334,361.586,386.03,361.586,386.878z"/>
<path fill="#FFFFFF" d="M360.71,378.661c0,0.371-0.307,0.682-0.686,0.682c-0.374,0-0.682-0.311-0.682-0.682
	c0-0.375,0.308-0.682,0.682-0.682C360.403,377.979,360.71,378.286,360.71,378.661z"/>
<path fill="#FFFFFF" d="M360.71,384.031c0,0.378-0.307,0.678-0.686,0.678c-0.374,0-0.675-0.3-0.675-0.678
	c0-0.389,0.301-0.692,0.675-0.692C360.403,383.338,360.71,383.642,360.71,384.031z"/>
<path fill="#FFFFFF" d="M360.353,374.001c0,0.18-0.145,0.317-0.329,0.317c-0.173,0-0.308-0.137-0.308-0.317s0.135-0.321,0.308-0.321
	C360.208,373.68,360.353,373.821,360.353,374.001z"/>
<path fill="#FFFFFF" d="M363.423,396.262c0,1.861-1.519,3.377-3.399,3.377c-1.869,0-3.388-1.516-3.388-3.377
	c0-1.883,1.519-6.957,3.388-6.957C361.904,389.305,363.423,394.378,363.423,396.262z"/>
<path fill="#FFFFFF" d="M385.708,358.703c0,0.393-0.31,0.689-0.678,0.689c-0.385,0-0.692-0.297-0.692-0.689
	c0-0.378,0.308-0.678,0.692-0.678C385.398,358.025,385.708,358.325,385.708,358.703z"/>
<path fill="#FFFFFF" d="M388.397,358.025c0,0.381-0.304,0.678-0.686,0.678c-0.378,0-0.692-0.297-0.692-0.678
	c0-0.375,0.314-0.682,0.692-0.682C388.094,357.343,388.397,357.65,388.397,358.025z"/>
<path fill="#FFFFFF" d="M389.757,357.484c0,0.375-0.311,0.675-0.685,0.675s-0.675-0.3-0.675-0.675c0-0.385,0.301-0.685,0.675-0.685
	S389.757,357.099,389.757,357.484z"/>
<path fill="#FFFFFF" d="M135.365,742.863l60.529-27.222l29.475-14.071c0,0,52.912,9.691,69.637,15.947
	c17.559,6.579,66.122,35.378,66.122,35.378s64.238-28.891,86.104-35.049c18.466-5.204,73.463-11.684,73.463-11.684l75.271,31.811
	c0,0-15.251,13.704-29.348,23.458c-8.917,6.169-16.653,11.896-36.749,23.03c-11.429,6.335-35.301,17.206-47.651,21.463
	c-28.642,9.871-63.667,20.897-119.352,20.926c-48.785,0.023-84.98-9.394-111.89-18.301c-12.195-4.038-23.483-5.635-69.407-32.294
	C158.802,763.039,135.365,742.863,135.365,742.863z"/>
<path fill="#FFFFFF" d="M391.124,356.916c0,0.375-0.308,0.675-0.682,0.675c-0.385,0-0.686-0.3-0.686-0.675
	c0-0.374,0.301-0.685,0.686-0.685C390.816,356.23,391.124,356.542,391.124,356.916z"/>
<path fill="#FFFFFF" d="M392.672,356.396c0,0.382-0.311,0.685-0.685,0.685c-0.378,0-0.686-0.303-0.686-0.685
	c0-0.378,0.308-0.678,0.686-0.678C392.361,355.718,392.672,356.019,392.672,356.396z"/>
<path fill="#FFFFFF" d="M394.039,355.718c0,0.374-0.3,0.678-0.686,0.678c-0.374,0-0.682-0.304-0.682-0.678
	c0-0.382,0.308-0.682,0.682-0.682C393.739,355.036,394.039,355.336,394.039,355.718z"/>
<path fill="#FFFFFF" d="M395.41,355.036c0,0.378-0.311,0.682-0.686,0.682c-0.393,0-0.686-0.304-0.686-0.682
	c0-0.381,0.293-0.688,0.686-0.688C395.1,354.348,395.41,354.655,395.41,355.036z"/>
<path fill="#FFFFFF" d="M396.77,354.348c0,0.381-0.31,0.688-0.685,0.688s-0.675-0.307-0.675-0.688c0-0.378,0.3-0.679,0.675-0.679
	S396.77,353.97,396.77,354.348z"/>
<path fill="#FFFFFF" d="M399.134,352.369c0,0.382-0.301,0.692-0.679,0.692c-0.385,0-0.692-0.311-0.692-0.692
	c0-0.375,0.308-0.678,0.692-0.678C398.833,351.691,399.134,351.994,399.134,352.369z"/>
<path fill="#FFFFFF" d="M400.226,351.331c0,0.384-0.308,0.685-0.676,0.685c-0.378,0-0.685-0.301-0.685-0.685
	c0-0.375,0.307-0.679,0.685-0.679C399.918,350.652,400.226,350.956,400.226,351.331z"/>
<path fill="#FFFFFF" d="M402.129,348.875c0,0.389-0.307,0.686-0.685,0.686c-0.382,0-0.692-0.297-0.692-0.686
	c0-0.367,0.311-0.667,0.692-0.667C401.822,348.208,402.129,348.508,402.129,348.875z"/>
<path fill="#FFFFFF" d="M398.13,353.443c0,0.385-0.293,0.678-0.675,0.678c-0.378,0-0.686-0.293-0.686-0.678
	c0-0.371,0.308-0.686,0.686-0.686C397.837,352.757,398.13,353.072,398.13,353.443z"/>
<path fill="#FFFFFF" d="M401.296,350.249c0,0.385-0.301,0.689-0.686,0.689c-0.375,0-0.692-0.304-0.692-0.689
	c0-0.381,0.317-0.688,0.692-0.688C400.995,349.561,401.296,349.868,401.296,350.249z"/>
<path fill="#FFFFFF" d="M387.076,358.459c0,0.382-0.301,0.682-0.693,0.682c-0.374,0-0.675-0.3-0.675-0.682
	c0-0.374,0.301-0.688,0.675-0.688C386.775,357.771,387.076,358.085,387.076,358.459z"/>
<path fill="#FFFFFF" d="M317.813,348.059c0,0.374,0.311,0.675,0.679,0.675c0.381,0,0.682-0.301,0.682-0.675
	c0-0.378-0.3-0.679-0.682-0.679C318.125,347.38,317.813,347.681,317.813,348.059z"/>
<path fill="#FFFFFF" d="M332.231,358.891c0,0.382,0.3,0.686,0.685,0.686c0.375,0,0.686-0.304,0.686-0.686
	c0-0.381-0.311-0.689-0.686-0.689C332.532,358.202,332.231,358.509,332.231,358.891z"/>
<path fill="#FFFFFF" d="M330.854,358.202c0,0.389,0.311,0.689,0.696,0.689c0.368,0,0.682-0.3,0.682-0.689
	c0-0.371-0.314-0.671-0.682-0.671C331.164,357.531,330.854,357.831,330.854,358.202z"/>
<path fill="#FFFFFF" d="M329.494,357.531c0,0.378,0.311,0.671,0.678,0.671c0.392,0,0.682-0.293,0.682-0.671
	c0-0.386-0.29-0.686-0.682-0.686C329.804,356.845,329.494,357.145,329.494,357.531z"/>
<path fill="#FFFFFF" d="M327.957,356.838c0,0.371,0.304,0.679,0.686,0.679c0.368,0,0.685-0.308,0.685-0.679
	c0-0.381-0.317-0.689-0.685-0.689C328.26,356.149,327.957,356.457,327.957,356.838z"/>
<path fill="#FFFFFF" d="M326.579,356.149c0,0.378,0.311,0.689,0.686,0.689c0.385,0,0.692-0.311,0.692-0.689
	c0-0.381-0.307-0.685-0.692-0.685C326.89,355.464,326.579,355.768,326.579,356.149z"/>
<path fill="#FFFFFF" d="M325.218,355.464c0,0.378,0.311,0.685,0.686,0.685c0.374,0,0.674-0.307,0.674-0.685
	c0-0.375-0.3-0.686-0.674-0.686C325.529,354.778,325.218,355.089,325.218,355.464z"/>
<path fill="#FFFFFF" d="M323.841,354.778c0,0.381,0.311,0.686,0.685,0.686c0.378,0,0.692-0.304,0.692-0.686
	c0-0.375-0.314-0.675-0.692-0.675C324.152,354.104,323.841,354.404,323.841,354.778z"/>
<path fill="#FFFFFF" d="M321.48,352.8c0,0.389,0.314,0.686,0.682,0.686c0.385,0,0.692-0.296,0.692-0.686
	c0-0.367-0.307-0.682-0.692-0.682C321.795,352.118,321.48,352.433,321.48,352.8z"/>
<path fill="#FFFFFF" d="M320.385,351.769c0,0.381,0.318,0.682,0.675,0.682c0.385,0,0.696-0.3,0.696-0.682
	c0-0.371-0.311-0.689-0.696-0.689C320.704,351.08,320.385,351.397,320.385,351.769z"/>
<path fill="#FFFFFF" d="M318.492,349.313c0,0.381,0.307,0.686,0.682,0.686c0.385,0,0.692-0.304,0.692-0.686
	c0-0.375-0.308-0.682-0.692-0.682C318.799,348.631,318.492,348.938,318.492,349.313z"/>
<path fill="#FFFFFF" d="M322.48,353.877c0,0.385,0.3,0.686,0.686,0.686c0.375,0,0.675-0.3,0.675-0.686s-0.3-0.682-0.675-0.682
	C322.781,353.195,322.48,353.492,322.48,353.877z"/>
<path fill="#FFFFFF" d="M319.326,350.681c0,0.374,0.308,0.685,0.674,0.685c0.385,0,0.704-0.311,0.704-0.685
	c0-0.379-0.318-0.682-0.704-0.682C319.633,349.999,319.326,350.302,319.326,350.681z"/>
<path fill="#FFFFFF" d="M333.736,359.406c0,0.385,0.3,0.686,0.675,0.686c0.385,0,0.692-0.3,0.692-0.686
	c0-0.374-0.308-0.682-0.692-0.682C334.037,358.725,333.736,359.032,333.736,359.406z"/>
<path fill="#FFFFFF" d="M335.312,359.576c0,0.378,0.318,0.678,0.696,0.678c0.375,0,0.682-0.3,0.682-0.678
	c0-0.382-0.308-0.686-0.682-0.686C335.63,358.891,335.312,359.194,335.312,359.576z"/>
<path opacity="0.6" fill="#FFFFFF" d="M271.861,644.772l89.266,24.8l84.952-19.285c0,0,10.86,17.516,24.377,29.711
	c9.111,8.211,50.237,26.165,50.237,26.165s-54.686,6.465-72.336,11.354c-22.685,6.292-87.23,35.378-87.23,35.378
	s-46.461-26.98-64.595-33.689c-16.146-5.978-71.163-17.636-71.163-17.636s29.821-16.178,36.407-25.055
	C266.735,669.827,271.861,644.772,271.861,644.772z"/>
<path fill="#FFFFFF" d="M272.512,645.041l14.979,4.062c-1.01,3.681-6.854,6.111-9.518,5.458
	C275.31,653.915,271.384,649.178,272.512,645.041"/>
<path fill="#FFFFFF" d="M293.67,650.934l14.951,4.151c-1.018,3.677-6.878,6.073-9.55,5.405
	C296.415,659.822,292.518,655.063,293.67,650.934"/>
<path fill="#FFFFFF" d="M316.153,657.187l14.951,4.173c-1.035,3.678-6.896,6.059-9.556,5.395
	C318.884,666.079,315.001,661.32,316.153,657.187"/>
<path fill="#FFFFFF" d="M339.311,663.542l14.98,4.07c-1.004,3.685-6.854,6.119-9.518,5.469
	C342.109,672.424,338.185,667.687,339.311,663.542"/>
<path fill="#FFFFFF" d="M369.871,667.595l15.11-3.466c0.852,3.716-3.166,8.627-5.818,9.299
	C376.498,674.103,370.821,671.757,369.871,667.595"/>
<path fill="#FFFFFF" d="M390.39,662.882l15.121-3.466c0.862,3.731-3.155,8.628-5.819,9.299
	C397.039,669.394,391.351,667.062,390.39,662.882"/>
<path fill="#FFFFFF" d="M411.089,658.169l15.117-3.458c0.855,3.727-3.162,8.623-5.825,9.29
	C417.717,664.694,412.032,662.352,411.089,658.169"/>
<path fill="#FFFFFF" d="M430.792,653.738l15.121-3.459c0.858,3.713-3.159,8.621-5.822,9.303
	C437.431,660.253,431.753,657.918,430.792,653.738"/>
<path fill="#FFFFFF" d="M370.472,688.121c0,5.196-4.226,9.407-9.437,9.407c-5.201,0-9.416-4.211-9.416-9.407
	c0-5.197,4.215-9.43,9.416-9.43C366.246,678.691,370.472,682.924,370.472,688.121z"/>
<path fill="#FFFFFF" d="M366.688,675.339c0,3.127-2.537,5.656-5.652,5.656c-3.12,0-5.643-2.529-5.643-5.656
	c0-3.109,2.523-5.646,5.643-5.646C364.151,669.693,366.688,672.229,366.688,675.339z"/>
<path fill="#FFFFFF" d="M366.688,700.387c0,3.115-2.537,5.646-5.652,5.646c-3.12,0-5.643-2.531-5.643-5.646
	c0-3.119,2.523-5.652,5.643-5.652C364.151,694.734,366.688,697.268,366.688,700.387z"/>
<path fill="#FFFFFF" d="M380.649,688.121c0,3.108-2.54,5.648-5.652,5.648c-3.123,0-5.663-2.54-5.663-5.648
	c0-3.131,2.54-5.656,5.663-5.656C378.109,682.465,380.649,684.99,380.649,688.121z"/>
<path fill="#FFFFFF" d="M352.906,688.121c0,3.108-2.529,5.648-5.646,5.648c-3.113,0-5.66-2.54-5.66-5.648
	c0-3.131,2.547-5.656,5.66-5.656C350.376,682.465,352.906,684.99,352.906,688.121z"/>
<path fill="#FFFFFF" d="M372.107,680.376c0,1.742-1.403,3.138-3.13,3.138c-1.714,0-3.131-1.396-3.131-3.138
	c0-1.728,1.417-3.129,3.131-3.129C370.704,677.247,372.107,678.648,372.107,680.376z"/>
<path fill="#FFFFFF" d="M372.107,695.617c0,1.742-1.403,3.141-3.13,3.141c-1.714,0-3.131-1.398-3.131-3.141
	c0-1.71,1.417-3.123,3.131-3.123C370.704,692.494,372.107,693.907,372.107,695.617z"/>
<path fill="#FFFFFF" d="M356.043,680.376c0,1.742-1.41,3.138-3.138,3.138c-1.72,0-3.133-1.396-3.133-3.138
	c0-1.728,1.413-3.129,3.133-3.129C354.633,677.247,356.043,678.648,356.043,680.376z"/>
<path fill="#FFFFFF" d="M356.043,695.617c0,1.742-1.41,3.141-3.138,3.141c-1.72,0-3.133-1.398-3.133-3.141
	c0-1.71,1.413-3.123,3.133-3.123C354.633,692.494,356.043,693.907,356.043,695.617z"/>
</svg>
