<?xml version="1.0" encoding="utf-8"?>
<!-- Generator: Adobe Illustrator 16.0.0, SVG Export Plug-In . SVG Version: 6.00 Build 0)  -->
<!DOCTYPE svg PUBLIC "-//W3C//DTD SVG 1.1//EN" "http://www.w3.org/Graphics/SVG/1.1/DTD/svg11.dtd">
<svg version="1.1" id="Layer_2" xmlns="http://www.w3.org/2000/svg" xmlns:xlink="http://www.w3.org/1999/xlink" x="0px" y="0px"
	 width="728.5px" height="1031.811px" viewBox="0 0 728.5 1031.811" enable-background="new 0 0 728.5 1031.811"
	 xml:space="preserve">
<path fill="#1AD5BB" d="M365.277,122.091c191.244,0,346.28,155.042,346.28,346.273c0,191.249-155.036,346.284-346.28,346.284
	C174.036,814.648,19,659.613,19,468.365C19,277.134,174.036,122.091,365.277,122.091z"/>
<path fill="#383738" d="M431.322,808.351V602.549l143.608,73.728v67.788C574.584,744.064,522.521,798.222,431.322,808.351z"/>
<path fill="#383738" d="M295.397,807.653V600.803l-144.312,75.474v64.286C151.438,740.562,195.461,786.345,295.397,807.653z"/>
<rect x="296.441" y="549.092" fill="#FDDAC1" width="135.579" height="103.072"/>
<path fill="#F6C8AA" d="M296.441,564.803v-51.715h135.579v102.039C432.021,615.127,387.647,671.738,296.441,564.803z"/>
<path fill="#383738" d="M295.397,807.653l1.044-227.121l66.743,35.989l68.836-35.989l-0.698,227.818
	C431.322,808.351,364.934,824.08,295.397,807.653z"/>
<path fill="#E8B951" d="M472.902,234.599v169.473l42.28-61.146C515.183,342.578,518.677,174.854,472.902,234.599z"/>
<rect x="225.86" y="237.396" fill="#FDDAC1" width="274.992" height="283.393"/>
<polygon fill="#FDDAC1" points="225.86,520.788 363.185,593.812 500.505,520.788 "/>
<path fill="#F6C8AA" d="M505.019,437.313c-9.792-0.984-15.428-24.665-12.589-52.894c2.84-28.219,13.078-50.31,22.877-49.318
	c9.792,0.984,15.425,24.665,12.585,52.891C525.057,416.225,514.812,438.309,505.019,437.313z"/>
<polygon fill="#F6C8AA" points="363.185,593.812 363.185,245.435 500.505,245.435 500.505,520.788 "/>
<rect x="472.902" y="256.271" fill="#E8B951" width="29.348" height="140.464"/>
<path fill="#E8B951" d="M472.902,256.271c0,0-45.425,108.316-192.88,62.896C132.562,273.739,472.902,256.271,472.902,256.271z"/>
<path fill="#E8B951" d="M213.282,356.909c5.243,14.32,41.58-47.531,41.58-47.531l217.686-53.453v-42.288
	C472.902,213.637,134.658,140.96,213.282,356.909z"/>
<path fill="#FDDAC1" d="M208.149,335.161c9.796-0.991,20.034,21.085,22.873,49.318c2.839,28.229-2.796,51.914-12.589,52.895
	c-9.792,0.991-20.03-21.096-22.873-49.329C192.721,359.819,198.357,336.135,208.149,335.161z"/>
<rect x="225.86" y="256.271" fill="#E8B951" width="29.352" height="140.464"/>
<polygon fill="#E8B951" points="472.902,213.637 487.573,234.599 456.83,234.599 "/>
<path fill="#E8B951" d="M117.892,221.677"/>
<rect x="472.902" y="234.599" fill="#E8B951" width="29.348" height="21.673"/>
<line fill="none" stroke="#FFFFFF" stroke-width="0.5" stroke-miterlimit="10" x1="159.822" y1="672.074" x2="159.822" y2="746.861"/>
<line fill="none" stroke="#FFFFFF" stroke-width="0.5" stroke-miterlimit="10" x1="170.651" y1="666.495" x2="170.651" y2="754.897"/>
<line fill="none" stroke="#FFFFFF" stroke-width="0.5" stroke-miterlimit="10" x1="181.484" y1="661.248" x2="181.484" y2="762.239"/>
<line fill="none" stroke="#FFFFFF" stroke-width="0.5" stroke-miterlimit="10" x1="191.967" y1="655.658" x2="191.967" y2="768.863"/>
<line fill="none" stroke="#FFFFFF" stroke-width="0.5" stroke-miterlimit="10" x1="201.401" y1="651.113" x2="201.401" y2="773.767"/>
<line fill="none" stroke="#FFFFFF" stroke-width="0.5" stroke-miterlimit="10" x1="212.231" y1="645.18" x2="212.231" y2="779.353"/>
<line fill="none" stroke="#FFFFFF" stroke-width="0.5" stroke-miterlimit="10" x1="223.064" y1="639.586" x2="223.064" y2="784.6"/>
<line fill="none" stroke="#FFFFFF" stroke-width="0.5" stroke-miterlimit="10" x1="233.9" y1="633.989" x2="233.9" y2="788.784"/>
<line fill="none" stroke="#FFFFFF" stroke-width="0.5" stroke-miterlimit="10" x1="243.332" y1="629.107" x2="243.332" y2="792.278"/>
<line fill="none" stroke="#FFFFFF" stroke-width="0.5" stroke-miterlimit="10" x1="253.814" y1="623.514" x2="253.814" y2="796.477"/>
<line fill="none" stroke="#FFFFFF" stroke-width="0.5" stroke-miterlimit="10" x1="264.994" y1="617.916" x2="264.994" y2="799.273"/>
<line fill="none" stroke="#FFFFFF" stroke-width="0.5" stroke-miterlimit="10" x1="275.48" y1="612.337" x2="275.48" y2="802.414"/>
<line fill="none" stroke="#FFFFFF" stroke-width="0.5" stroke-miterlimit="10" x1="284.915" y1="607.434" x2="284.915" y2="804.517"/>
<line fill="none" stroke="#FFFFFF" stroke-width="0.5" stroke-miterlimit="10" x1="295.397" y1="601.848" x2="295.397" y2="807.653"/>
<line fill="none" stroke="#FFFFFF" stroke-width="0.5" stroke-miterlimit="10" x1="306.577" y1="592.056" x2="306.577" y2="809.402"/>
<line fill="none" stroke="#FFFFFF" stroke-width="0.5" stroke-miterlimit="10" x1="317.063" y1="611.282" x2="317.063" y2="811.144"/>
<line fill="none" stroke="#FFFFFF" stroke-width="0.5" stroke-miterlimit="10" x1="327.188" y1="633.288" x2="327.188" y2="812.546"/>
<line fill="none" stroke="#FFFFFF" stroke-width="0.5" stroke-miterlimit="10" x1="337.674" y1="619.322" x2="337.674" y2="813.94"/>
<line fill="none" stroke="#FFFFFF" stroke-width="0.5" stroke-miterlimit="10" x1="348.857" y1="619.322" x2="348.857" y2="803.465"/>
<line fill="none" stroke="#475361" stroke-width="0.5" stroke-miterlimit="10" x1="359.34" y1="616.521" x2="359.34" y2="797.521"/>
<line fill="none" stroke="#475361" stroke-width="0.5" stroke-miterlimit="10" x1="368.771" y1="616.521" x2="368.771" y2="802.414"/>
<line fill="none" stroke="#FFFFFF" stroke-width="0.5" stroke-miterlimit="10" x1="379.257" y1="624.558" x2="379.257" y2="796.477"/>
<line fill="none" stroke="#FFFFFF" stroke-width="0.5" stroke-miterlimit="10" x1="390.437" y1="639.586" x2="390.437" y2="813.597"/>
<line fill="none" stroke="#FFFFFF" stroke-width="0.5" stroke-miterlimit="10" x1="400.923" y1="633.288" x2="400.923" y2="812.903"/>
<line fill="none" stroke="#FFFFFF" stroke-width="0.5" stroke-miterlimit="10" x1="410.354" y1="628.406" x2="410.354" y2="811.144"/>
<line fill="none" stroke="#FFFFFF" stroke-width="0.5" stroke-miterlimit="10" x1="421.188" y1="596.608" x2="421.188" y2="810.1"/>
<line fill="none" stroke="#FFFFFF" stroke-width="0.5" stroke-miterlimit="10" x1="432.021" y1="602.549" x2="432.021" y2="808.004"/>
<line fill="none" stroke="#FFFFFF" stroke-width="0.5" stroke-miterlimit="10" x1="442.854" y1="608.142" x2="442.854" y2="806.262"/>
<line fill="none" stroke="#FFFFFF" stroke-width="0.5" stroke-miterlimit="10" x1="452.284" y1="612.681" x2="452.284" y2="804.856"/>
<line fill="none" stroke="#FFFFFF" stroke-width="0.5" stroke-miterlimit="10" x1="462.771" y1="618.271" x2="462.771" y2="802.414"/>
<line fill="none" stroke="#FFFFFF" stroke-width="0.5" stroke-miterlimit="10" x1="473.6" y1="624.558" x2="473.6" y2="799.273"/>
<line fill="none" stroke="#FFFFFF" stroke-width="0.5" stroke-miterlimit="10" x1="484.433" y1="630.147" x2="484.433" y2="796.477"/>
<line fill="none" stroke="#FFFFFF" stroke-width="0.5" stroke-miterlimit="10" x1="494.214" y1="634.689" x2="494.214" y2="792.632"/>
<line fill="none" stroke="#FFFFFF" stroke-width="0.5" stroke-miterlimit="10" x1="503.648" y1="639.586" x2="503.648" y2="788.784"/>
<line fill="none" stroke="#FFFFFF" stroke-width="0.5" stroke-miterlimit="10" x1="514.131" y1="645.18" x2="514.131" y2="783.895"/>
<line fill="none" stroke="#FFFFFF" stroke-width="0.5" stroke-miterlimit="10" x1="525.318" y1="651.467" x2="525.318" y2="778.309"/>
<line fill="none" stroke="#FFFFFF" stroke-width="0.5" stroke-miterlimit="10" x1="535.797" y1="657.057" x2="535.797" y2="772.368"/>
<line fill="none" stroke="#FFFFFF" stroke-width="0.5" stroke-miterlimit="10" x1="545.229" y1="661.946" x2="545.229" y2="766.431"/>
<line fill="none" stroke="#FFFFFF" stroke-width="0.5" stroke-miterlimit="10" x1="555.715" y1="667.547" x2="555.715" y2="758.037"/>
<line fill="none" stroke="#FFFFFF" stroke-width="0.5" stroke-miterlimit="10" x1="566.895" y1="672.775" x2="566.895" y2="750.008"/>
<polygon fill="#FFFFFF" points="160.87,673.479 160.87,671.377 158.771,672.429 "/>
<polygon fill="#FFFFFF" points="171.349,667.89 171.349,665.787 169.6,666.839 "/>
<polygon fill="#FFFFFF" points="182.536,662.293 182.536,660.204 180.437,661.248 "/>
<polygon fill="#FFFFFF" points="193.015,656.699 193.015,654.968 191.266,655.658 "/>
<polygon fill="#FFFFFF" points="202.446,651.817 202.446,650.068 200.704,651.113 "/>
<polygon fill="#FFFFFF" points="212.932,646.224 212.932,644.125 211.187,645.18 "/>
<polygon fill="#FFFFFF" points="224.112,640.638 224.112,638.534 222.363,639.586 "/>
<polygon fill="#FFFFFF" points="234.594,635.04 234.594,633.288 232.849,633.989 "/>
<polygon fill="#FFFFFF" points="244.032,630.147 244.032,628.406 242.28,629.107 "/>
<polygon fill="#FFFFFF" points="254.862,624.558 254.862,622.462 253.117,623.514 "/>
<polygon fill="#FFFFFF" points="265.695,618.617 265.695,616.879 263.949,617.916 "/>
<polygon fill="#FFFFFF" points="276.524,613.382 276.524,611.629 274.432,612.337 "/>
<polygon fill="#FFFFFF" points="285.962,608.485 285.962,606.736 283.863,607.434 "/>
<polygon fill="#FFFFFF" points="296.441,602.899 296.441,600.803 294.696,601.848 "/>
<polygon fill="#FFFFFF" points="565.847,673.126 565.847,671.738 567.942,672.775 "/>
<polygon fill="#FFFFFF" points="555.017,667.547 555.017,666.145 556.763,667.182 556.763,667.89 555.017,667.89 "/>
<polygon fill="#FFFFFF" points="544.181,661.946 544.181,660.548 546.283,661.603 546.283,662.646 544.181,662.646 "/>
<polygon fill="#FFFFFF" points="535.097,657.057 535.097,655.658 536.845,656.699 536.845,657.4 535.097,657.4 "/>
<polygon fill="#FFFFFF" points="524.267,651.467 524.267,650.068 526.016,651.113 526.016,652.164 524.267,652.164 "/>
<polygon fill="#FFFFFF" points="513.434,645.53 513.434,644.125 515.183,645.18 515.183,645.866 513.434,645.866 "/>
<polygon fill="#FFFFFF" points="502.604,639.933 502.604,638.534 504.35,639.586 504.35,640.638 502.604,640.638 "/>
<polygon fill="#FFFFFF" points="493.166,635.04 493.166,633.642 494.915,634.689 494.915,635.741 493.166,635.741 "/>
<polygon fill="#FFFFFF" points="483.381,629.798 483.381,628.742 485.13,629.798 485.13,630.502 483.381,630.502 "/>
<polygon fill="#FFFFFF" points="472.902,624.915 472.902,623.514 474.644,624.558 474.644,625.259 472.902,625.259 "/>
<polygon fill="#FFFFFF" points="461.723,618.617 461.723,617.216 463.818,618.271 463.818,619.322 461.723,619.322 "/>
<polygon fill="#FFFFFF" points="451.236,613.382 451.236,611.979 452.985,613.024 452.985,614.075 451.236,614.075 "/>
<polygon fill="#FFFFFF" points="441.806,608.485 441.806,607.434 443.547,608.142 443.547,609.18 441.806,609.18 "/>
<polygon fill="#FFFFFF" points="431.322,602.899 431.322,601.848 433.064,602.549 433.064,603.593 431.322,603.593 "/>
<polygon fill="#E55141" points="446.69,709.47 478.492,680.805 510.29,709.47 478.142,728.346 "/>
<rect x="446.69" y="709.47" fill="#383738" width="63.6" height="57.999"/>
<polygon fill="#383738" points="478.492,785.644 510.29,767.132 446.69,767.132 "/>
<rect x="343.283" y="622.007" transform="matrix(-0.7071 -0.7071 0.7071 -0.7071 166.9859 1354.7616)" fill="#E55141" width="41.58" height="41.58"/>
<polygon fill="#383738" points="401.971,650.766 365.277,614.776 432.021,578.787 "/>
<polygon fill="#383738" points="326.494,650.766 363.185,614.776 296.441,578.787 "/>
<polygon fill="#E55141" points="363.149,653.595 390.331,680.776 363.149,707.951 335.968,680.776 "/>
<path fill="#E55141" d="M337.674,813.94V680.805h52.763v133.486C390.437,813.94,369.125,818.486,337.674,813.94z"/>
<polygon fill="#FFFFFF" points="159.121,747.555 159.121,745.115 160.87,745.115 160.87,748.957 "/>
<polygon fill="#FFFFFF" points="169.6,755.591 169.6,752.802 171.349,752.802 171.349,756.986 "/>
<polygon fill="#FFFFFF" points="180.437,762.923 180.437,760.48 182.182,760.48 182.182,763.981 "/>
<polygon fill="#FFFFFF" points="191.266,769.221 191.266,768.169 193.015,768.169 193.015,770.266 "/>
<polygon fill="#FFFFFF" points="200.704,774.457 200.704,772.712 202.446,772.712 202.446,775.508 "/>
<polygon fill="#FFFFFF" points="211.187,779.703 211.187,778.309 212.932,778.309 212.932,780.397 "/>
<polygon fill="#FFFFFF" points="222.363,784.6 222.363,783.548 224.112,783.548 224.112,785.644 "/>
<polygon fill="#FFFFFF" points="232.849,789.138 232.849,787.739 234.594,787.739 234.594,789.828 "/>
<polygon fill="#FFFFFF" points="242.634,792.632 242.634,791.227 244.032,791.227 244.032,793.329 "/>
<polygon fill="#FFFFFF" points="253.117,796.477 253.117,795.075 254.862,795.075 254.862,796.823 "/>
<polygon fill="#FFFFFF" points="263.949,799.617 263.949,797.868 265.695,797.868 265.695,799.968 "/>
<polygon fill="#FFFFFF" points="274.782,802.414 274.782,801.724 276.177,801.724 276.177,803.122 "/>
<polygon fill="#FFFFFF" points="284.213,804.856 284.213,803.805 285.962,803.805 285.962,805.561 "/>
<polygon fill="#FFFFFF" points="294.696,807.653 294.696,806.616 296.441,806.616 296.441,807.653 "/>
<polygon fill="#FFFFFF" points="305.529,809.749 305.529,808.704 307.278,808.704 307.278,810.1 "/>
<polygon fill="#FFFFFF" points="316.362,811.509 316.362,810.457 318.104,810.457 318.104,811.852 "/>
<polygon fill="#FFFFFF" points="326.147,812.903 326.147,812.546 327.889,812.546 327.889,813.247 "/>
<polygon fill="#FFFFFF" points="336.977,813.94 336.977,813.94 337.674,813.94 337.674,813.247 "/>
<polygon fill="#FFFFFF" points="391.138,813.94 391.138,813.247 390.437,813.247 390.437,813.94 "/>
<polygon fill="#FFFFFF" points="400.222,813.247 400.222,812.195 401.617,812.195 401.617,812.903 "/>
<polygon fill="#FFFFFF" points="409.653,812.195 409.653,810.801 411.402,810.801 411.402,811.852 "/>
<polygon fill="#FFFFFF" points="420.486,810.457 420.486,809.055 421.888,809.055 421.888,810.1 "/>
<polygon fill="#FFFFFF" points="431.322,808.351 431.322,806.952 433.064,806.952 433.064,808.004 "/>
<polygon fill="#FFFFFF" points="441.806,806.952 441.806,806.262 443.547,806.262 443.547,806.616 "/>
<polygon fill="#FFFFFF" points="451.236,805.21 451.236,803.805 452.985,803.805 452.985,804.856 "/>
<polygon fill="#FFFFFF" points="462.069,803.122 462.069,801.362 463.468,801.362 463.468,802.761 "/>
<polygon fill="#FFFFFF" points="472.902,800.317 472.902,798.565 474.644,798.565 474.644,799.617 "/>
<polygon fill="#FFFFFF" points="483.381,796.823 483.381,795.772 485.13,795.772 485.13,796.477 "/>
<polygon fill="#FFFFFF" points="493.166,793.677 493.166,791.931 494.915,791.931 494.915,792.976 "/>
<polygon fill="#FFFFFF" points="502.604,789.828 502.604,787.389 504.35,787.389 504.35,789.138 "/>
<polygon fill="#FFFFFF" points="513.434,784.946 513.434,783.201 515.183,783.201 515.183,784.238 "/>
<polygon fill="#FFFFFF" points="524.617,779.703 524.617,776.906 526.016,776.906 526.016,778.659 "/>
<polygon fill="#FFFFFF" points="535.097,773.767 535.097,771.316 536.495,771.316 536.495,772.712 "/>
<polygon fill="#FFFFFF" points="544.531,767.819 544.531,764.679 545.93,764.679 545.93,766.768 "/>
<polygon fill="#FFFFFF" points="555.017,760.48 555.017,756.643 556.763,756.643 556.763,759.082 "/>
<polyline fill="#FFFFFF" points="566.197,751.743 566.197,749.3 567.592,749.3 567.592,750.352 "/>
<path fill="#E5B2D2" d="M433.064,273.396"/>
<path fill="#FFE0A0" d="M329.992,302.383l102.375-36.322C432.021,266.061,404.768,305.888,329.992,302.383z"/>
<path fill="#FFE0A0" d="M353.053,284.572l-50.32,3.841C302.732,288.413,322.302,299.246,353.053,284.572z"/>
<path fill="#FFE0A0" d="M433.064,288.413l-46.819,18.522C386.245,306.936,407.908,311.824,433.064,288.413z"/>
</svg>
