<?xml version="1.0" encoding="utf-8"?>
<!-- Generator: Adobe Illustrator 16.0.0, SVG Export Plug-In . SVG Version: 6.00 Build 0)  -->
<!DOCTYPE svg PUBLIC "-//W3C//DTD SVG 1.1//EN" "http://www.w3.org/Graphics/SVG/1.1/DTD/svg11.dtd">
<svg version="1.1" id="Layer_2" xmlns="http://www.w3.org/2000/svg" xmlns:xlink="http://www.w3.org/1999/xlink" x="0px" y="0px"
	 width="728.5px" height="1031.812px" viewBox="0 0 728.5 1031.812" enable-background="new 0 0 728.5 1031.812"
	 xml:space="preserve">
<path fill="#1AD5BB" d="M365.773,113.825c194.869,0,352.846,157.984,352.846,352.854c0,194.874-157.977,352.842-352.846,352.842
	c-194.877,0-352.857-157.969-352.857-352.842C12.917,271.809,170.896,113.825,365.773,113.825z"/>
<rect x="300.407" y="555.183" fill="#FDDAC1" width="59.869" height="104.695"/>
<rect x="300.407" y="538.697" fill="#FDDAC1" width="118.577" height="120.895"/>
<path fill="#F6C8AA" d="M300.407,581.207v-56.98h118.577v89.67C418.983,613.896,374.157,650.041,300.407,581.207z"/>
<polygon fill="#DFDFDF" points="300.407,599.439 360.276,613.316 419.566,607.24 419.566,750.97 300.407,750.97 "/>
<rect x="222.891" y="224.023" fill="#FDDAC1" width="274.759" height="290.379"/>
<polygon fill="#FDDAC1" points="358.252,594.662 497.649,513.7 222.891,513.7 "/>
<path fill="#FDDAC1" d="M220.212,422.95c-10.148,1.208-21.004-19.921-24.236-47.219c-3.243-27.272,2.362-50.354,12.51-51.57
	c10.152-1.205,21.008,19.936,24.247,47.215C235.969,398.662,230.367,421.756,220.212,422.95z"/>
<path fill="#F6C8AA" d="M510.738,323.884c10.147,1.212,15.753,24.294,12.518,51.582c-3.246,27.279-14.095,48.42-24.246,47.211
	c-10.151-1.201-15.754-24.294-12.519-51.574C489.734,343.823,500.583,322.683,510.738,323.884z"/>
<path fill="#493322" d="M265.12,283.601h-42.229v87.639h21.118v-42.237C244.009,329.002,268.882,316.875,265.12,283.601z"/>
<polygon fill="#F6C8AA" points="358.252,595.662 358.252,270.003 497.362,270.003 497.362,514.7 "/>
<path fill="#493322" d="M455.137,283.601h42.227v87.639h-21.115v-42.237C476.247,329.002,451.669,316.875,455.137,283.601z"/>
<path fill="#493322" d="M222.891,234.437v52.057h42.229v-67.961h-31.521C233.599,218.532,221.737,219.689,222.891,234.437z"/>
<path fill="#493322" d="M497.362,234.437v52.057h-42.511v-67.961h31.81C486.661,218.532,498.521,219.689,497.362,234.437z"/>
<path fill="#493322" d="M359.701,164.732c72.833,0,131.879,32.243,131.879,72.025c0,39.76-59.047,72.011-131.879,72.011
	c-72.84,0-131.891-32.25-131.891-72.011C227.81,196.976,286.861,164.732,359.701,164.732z"/>
<rect x="222.604" y="358.511" fill="#493322" width="21.114" height="31.524"/>
<rect x="476.247" y="358.511" fill="#493322" width="21.115" height="31.524"/>
<polygon fill="#293344" points="359.609,613.56 381.692,635.64 359.609,657.72 337.518,635.64 "/>
<polygon fill="#FFFFFF" points="300.407,587.291 359.701,613.896 329.908,650.041 300.407,607.527 "/>
<polygon fill="#FFFFFF" points="419.566,587.291 360.276,613.896 389.777,650.041 419.566,607.527 "/>
<polygon fill="#293344" points="358.371,645.25 380.458,667.337 358.371,689.429 336.287,667.337 "/>
<polygon fill="#293344" points="336.276,667.4 343.797,755.613 358.252,755.613 358.252,667.4 "/>
<polygon fill="#293344" points="380.524,667.4 372.425,755.613 356.513,755.613 356.513,667.4 "/>
<path fill="#293344" d="M590.207,739.123v-69.986l-171.224-73.475l-82.708,222.703C336.276,818.365,491.875,834.566,590.207,739.123
	z"/>
<polygon fill="#37455B" points="400.475,650.041 427.949,677.519 381.678,755.613 358.252,755.613 "/>
<path fill="#293344" d="M128.612,727.839v-58.994l171.795-73.184l81.271,223.859C381.678,819.521,235.622,832.828,128.612,727.839z"
	/>
<polygon fill="#37455B" points="319.207,650.041 291.725,677.519 338.008,755.613 361.138,755.613 "/>
<path fill="#B09630" d="M490.424,690.244c13.416,0,24.294,10.885,24.294,24.297c0,13.414-10.878,24.299-24.294,24.299
	c-13.421,0-24.295-10.885-24.295-24.299C466.129,701.128,477.003,690.244,490.424,690.244z"/>
<path fill="#FFFFFF" d="M490.424,693.427c11.662,0,21.114,9.459,21.114,21.113c0,11.664-9.452,21.107-21.114,21.107
	c-11.663,0-21.111-9.443-21.111-21.107C469.312,702.886,478.761,693.427,490.424,693.427z"/>
<path fill="#282723" d="M471.048,713.392c0.638,0,1.157,0.52,1.157,1.148c0,0.639-0.52,1.158-1.157,1.158
	c-0.645,0-1.16-0.521-1.16-1.158C469.888,713.912,470.403,713.392,471.048,713.392z"/>
<path fill="#282723" d="M509.799,713.392c0.642,0,1.153,0.52,1.153,1.148c0,0.639-0.513,1.158-1.153,1.158
	c-0.638,0-1.148-0.521-1.148-1.158C508.649,713.912,509.161,713.392,509.799,713.392z"/>
<polygon fill="#282723" points="490.998,714.541 500.55,709.914 491.58,717.146 "/>
<polygon fill="#282723" points="478.572,703.253 493.028,714.541 490.718,716.851 "/>
<rect x="461.792" y="714.828" fill="#37455B" width="58.715" height="40.785"/>
<path fill="#282723" d="M490.424,694.583c0.637,0,1.156,0.516,1.156,1.16c0,0.639-0.52,1.158-1.156,1.158
	c-0.638,0-1.161-0.521-1.161-1.158C489.263,695.099,489.786,694.583,490.424,694.583z"/>
<path fill="#282723" d="M506.91,704.125c0.641,0,1.156,0.523,1.156,1.16c0,0.648-0.517,1.148-1.156,1.148
	c-0.646,0-1.157-0.5-1.157-1.148C505.753,704.648,506.265,704.125,506.91,704.125z"/>
<path fill="#282723" d="M500.55,696.615c0.634,0,1.157,0.5,1.157,1.148c0,0.643-0.523,1.16-1.157,1.16
	c-0.642,0-1.157-0.52-1.157-1.16C499.393,697.115,499.908,696.615,500.55,696.615z"/>
<path fill="#282723" d="M479.723,696.615c0.639,0,1.157,0.5,1.157,1.148c0,0.643-0.52,1.16-1.157,1.16
	c-0.637,0-1.149-0.52-1.149-1.16C478.572,697.115,479.085,696.615,479.723,696.615z"/>
<path fill="#282723" d="M473.075,704.125c0.63,0,1.153,0.523,1.153,1.16c0,0.648-0.523,1.148-1.153,1.148
	c-0.646,0-1.165-0.5-1.165-1.148C471.91,704.648,472.43,704.125,473.075,704.125z"/>
<path fill="#B09630" d="M490.998,686.783c1.444,0,2.605,0.895,2.605,2.021c0,1.117-1.161,2.014-2.605,2.014
	c-1.434,0-2.598-0.896-2.598-2.014C488.4,687.677,489.564,686.783,490.998,686.783z"/>
<path fill="#B09630" d="M479.723,692.847"/>
<polygon fill="#493322" points="368.372,501.67 419.566,514.7 368.372,514.7 "/>
<polygon fill="#493322" points="349.287,501.67 298.093,514.7 349.287,514.7 "/>
<polygon fill="#37455B" points="358.252,755.613 358.252,819.238 427.949,677.519 "/>
<polygon fill="#37455B" points="358.252,819.238 358.252,755.613 291.725,677.519 "/>
<polygon fill="#37455B" points="291.441,657.562 281.031,604.642 300.407,595.662 326.434,667.4 305.61,663.634 "/>
<polygon fill="#37455B" points="428.248,657.562 438.654,604.642 419.271,595.662 393.248,667.4 413.777,663.634 "/>
<polygon fill="#37455B" points="461.792,755.613 490.718,770.935 520.507,755.613 "/>
</svg>
