<?xml version="1.0" encoding="utf-8"?>
<!-- Generator: Adobe Illustrator 16.0.0, SVG Export Plug-In . SVG Version: 6.00 Build 0)  -->
<!DOCTYPE svg PUBLIC "-//W3C//DTD SVG 1.1//EN" "http://www.w3.org/Graphics/SVG/1.1/DTD/svg11.dtd">
<svg version="1.1" id="Layer_2" xmlns="http://www.w3.org/2000/svg" xmlns:xlink="http://www.w3.org/1999/xlink" x="0px" y="0px"
	 width="728.5px" height="1031.812px" viewBox="0 0 728.5 1031.812" enable-background="new 0 0 728.5 1031.812"
	 xml:space="preserve">
<path fill="#1AD5BB" d="M363.453,115.676c193.854,0,351.011,157.833,351.011,352.525c0,194.691-157.157,352.517-351.011,352.517
	c-193.853,0-351-157.826-351-352.517C12.453,273.509,169.6,115.676,363.453,115.676z"/>
<path fill="#52545B" d="M508.209,388.232c0,0,18.485-136.407-38.216-131.598c-56.685,4.812-99.196,45.805-99.196,45.805
	l114.13,52.89l6.329,32.903H508.209z"/>
<path fill="#52545B" d="M227.558,388.989c0,0-18.475-136.401,38.208-131.593c56.69,4.807,99.204,45.805,99.204,45.805l-114.13,52.89
	l-6.328,32.897L227.558,388.989L227.558,388.989z"/>
<rect x="309.547" y="578.283" fill="#F6C9AB" width="110.85" height="121.221"/>
<rect x="319.672" y="687.859" fill="#E9E9E8" width="92.622" height="128.055"/>
<path fill="#121926" d="M362.949,820.976l59.975-168.793l153.105,75.158v23.783C575.776,751.125,493.279,828.062,362.949,820.976z"
	/>
<path fill="#F6C9AB" d="M309.547,613.46v-45.803h110.85v94.895C420.396,662.554,374.598,696.974,309.547,613.46z"/>
<polygon fill="#E9E9E8" points="309.547,610.927 365.478,646.613 365.478,691.908 309.547,691.908 "/>
<rect x="237.679" y="278.654" fill="#FCD9C1" width="256.104" height="286.725"/>
<polygon fill="#FCD9C1" points="237.679,564.378 364.97,631.441 493.783,564.378 "/>
<path fill="#121926" d="M369.537,820.976l-59.99-169.051l-153.101,75.166v23.785C156.446,751.125,239.199,828.062,369.537,820.976z"
	/>
<polygon fill="#F6C9AB" points="364.97,278.654 493.783,278.654 493.783,565.378 364.97,632.441 "/>
<path fill="#52545B" d="M250.332,439.095h-12.653l1.268-113.119h49.346v29.353C288.292,355.329,242.743,338.627,250.332,439.095z"/>
<path fill="#52545B" d="M482.654,440.363h12.648l-1.265-113.125h-49.354v29.361C444.688,356.599,490.247,339.894,482.654,440.363z"
	/>
<path fill="#52545B" d="M265.766,326.23c0,0,100.215,67.062,199.929,0"/>
<rect x="237.679" y="275.362" fill="#52545B" width="262.181" height="56.94"/>
<path fill="#52545B" d="M253.876,258.662l55.67,46.817l135.14-5.568l34.428-42.768C479.113,257.144,380.919,205.77,253.876,258.662z
	"/>
<rect x="236.166" y="285.231" fill="#52545B" width="8.346" height="153.864"/>
<polygon fill="#A5AFC2" points="265.766,360.142 224.777,316.358 258.941,368.747 "/>
<polygon fill="#A5AFC2" points="255.145,376.845 224.777,348.499 225.285,362.924 251.856,388.989 "/>
<polygon fill="#A5AFC2" points="466.204,361.152 507.197,317.371 473.041,369.506 "/>
<polygon fill="#A5AFC2" points="477.59,382.664 511.001,344.45 510.233,363.43 479.614,388.989 "/>
<polygon fill="#E9E9E8" points="420.396,610.927 364.469,646.613 364.469,691.908 420.396,691.908 "/>
<path fill="#121926" d="M365.478,659.267c5.319,0,9.616,3.627,9.616,8.1c0,4.471-4.297,8.094-9.616,8.094
	c-5.306,0-9.609-3.623-9.609-8.094C355.868,662.894,360.172,659.267,365.478,659.267z"/>
<path fill="#121926" d="M374.086,648.13"/>
<path fill="#121926" d="M389.783,647.623l-26.834,19.744l28.095,13.66C390.784,681.027,402.429,664.583,389.783,647.623z"/>
<path fill="#121926" d="M339.666,647.623l26.827,19.744l-28.095,13.66C338.658,681.027,327.017,664.583,339.666,647.623z"/>
<polygon fill="#FFFFFF" points="365.478,646.613 385.223,664.328 399.9,624.093 "/>
<polyline fill="#FFFFFF" points="330.812,624.093 365.478,646.613 345.487,664.328 "/>
<polygon fill="#121926" points="392.56,659.515 420.396,632.441 421.659,651.419 393.571,669.638 "/>
<polygon fill="#121926" points="336.886,660.021 308.791,632.945 307.782,651.925 335.874,670.148 "/>
<polygon fill="#28313F" points="415.078,670.148 362.949,820.976 389.023,820.976 452.034,687.859 "/>
<polygon fill="#28313F" points="317.147,670.148 369.537,820.976 343.218,820.976 280.195,687.859 "/>
<polygon fill="#28313F" points="318.408,673.185 310.562,650.917 284.248,664.328 292.593,685.583 "/>
<polygon fill="#28313F" points="414.326,673.185 421.915,650.917 448.234,664.328 439.886,685.583 "/>
<path fill="#121926" d="M365.478,688.621c1.816,0,3.288,1.471,3.288,3.287c0,1.82-1.472,3.293-3.288,3.293s-3.293-1.473-3.293-3.293
	C362.185,690.091,363.66,688.621,365.478,688.621z"/>
<path fill="#121926" d="M365.478,730.123c1.816,0,3.288,1.479,3.288,3.293s-1.472,3.291-3.288,3.291s-3.293-1.477-3.293-3.291
	S363.66,730.123,365.478,730.123z"/>
<path fill="#121926" d="M365.733,769.601c1.812,0,3.288,1.477,3.288,3.289c0,1.82-1.476,3.289-3.288,3.289
	c-1.822,0-3.289-1.469-3.289-3.289C362.444,771.078,363.912,769.601,365.733,769.601z"/>
<path fill="#A5AFC2" d="M475.058,377.6l33.404-26.569v89.332h-28.34C480.122,440.363,479.866,359.127,475.058,377.6z"/>
<rect x="500.62" y="362.164" fill="#A5AFC2" width="10.381" height="51.376"/>
<path fill="#F6C9AB" d="M520.104,426.954c-2.524,29.353-11.895,52.379-21.004,51.626c-9.104-0.764-14.418-25.057-11.89-54.415
	c2.529-29.355,11.89-52.386,20.999-51.626C517.322,373.303,522.638,397.598,520.104,426.954z"/>
<path fill="#A5AFC2" d="M256.913,376.336l-33.404-26.57v89.329h28.347C251.856,439.095,252.112,357.865,256.913,376.336z"/>
<path fill="#FCD9C1" d="M211.111,427.454c2.532,29.36,11.894,52.387,21.002,51.629c9.109-0.762,14.429-25.053,11.894-54.41
	c-2.529-29.355-11.894-52.384-21.002-51.624C213.896,373.804,208.58,398.102,211.111,427.454z"/>
<path fill="#A5AFC2" d="M333.338,352.547l-13.41-3.289c0,0-20.498-17.716,16.198-93.638
	C372.821,179.705,300.189,329.521,333.338,352.547z"/>
<path fill="#A5AFC2" d="M404.197,352.547l13.417-3.289c0,0,20.499-17.716-16.197-93.638
	C364.717,179.705,437.601,329.521,404.197,352.547z"/>
<path fill="#A5AFC2" d="M368.006,357.105l-6.826-0.76c0,0-6.08-19.488-3.04-39.987C361.18,295.862,354.348,312.564,368.006,357.105z
	"/>
</svg>
