<?xml version="1.0" encoding="utf-8"?>
<!-- Generator: Adobe Illustrator 16.0.0, SVG Export Plug-In . SVG Version: 6.00 Build 0)  -->
<!DOCTYPE svg PUBLIC "-//W3C//DTD SVG 1.1//EN" "http://www.w3.org/Graphics/SVG/1.1/DTD/svg11.dtd">
<svg version="1.1" id="Layer_2" xmlns="http://www.w3.org/2000/svg" xmlns:xlink="http://www.w3.org/1999/xlink" x="0px" y="0px"
	 width="728.5px" height="1031.811px" viewBox="0 0 728.5 1031.811" enable-background="new 0 0 728.5 1031.811"
	 xml:space="preserve">
<path fill="#1AD5BB" d="M364.557,115.611c194.982,0,353.046,158.065,353.046,353.044c0,194.987-158.063,353.053-353.046,353.053
	c-194.979,0-353.046-158.066-353.046-353.053C11.511,273.676,169.578,115.611,364.557,115.611z"/>
<path fill="#FBD8C0" d="M228.942,475.52c-11.962,1.12-23.941-22.221-26.742-52.135c-2.809-29.915,4.617-55.068,16.588-56.192
	c11.962-1.121,23.937,22.221,26.742,52.131C248.339,449.242,240.905,474.392,228.942,475.52z"/>
<path fill="#F5C7AA" d="M509.072,366.96c11.967,1.121,19.393,26.282,16.584,56.197c-2.801,29.915-14.775,53.251-26.742,52.131
	c-11.963-1.12-19.389-26.278-16.584-56.196C485.131,389.181,497.105,365.84,509.072,366.96z"/>
<path fill="#FFFFFF" d="M367.421,661.073l-77.593-9.738l-174.955,64.71c0,0,79.317,108.232,251.975,107.943"/>
<path fill="#FFFFFF" d="M364.557,821.708c172.374,0,251.972-107.951,251.972-107.951l-174.947-64.711l-77.593,9.738"/>
<rect x="287.244" y="574.886" fill="#FBD8C0" width="152.618" height="226.202"/>
<polygon fill="#FFFFFF" points="279.802,814.555 279.802,706.891 318.458,708.315 363.412,782.483 364.557,814.555 "/>
<path fill="#F5C7AA" d="M287.244,589.489v-11.738l152.618-5.729v90.483C439.861,662.505,357.395,673.956,287.244,589.489z"/>
<rect x="234.276" y="298.001" fill="#FBD8C0" width="261.133" height="262.282"/>
<polygon fill="#F5C7AA" points="240.861,390.777 240.861,318.049 372.574,390.777 372.002,474.952 "/>
<polygon fill="#FBD8C0" points="363.412,611.971 234.276,559.283 495.409,559.283 "/>
<polygon fill="#F5C7AA" points="494.837,318.049 495.409,560.283 363.412,612.971 363.412,340.098 "/>
<path fill="#3F2B1C" d="M279.802,369.873v-51.824h-45.526v106.228h18.04C252.028,423.989,246.014,363,279.802,369.873z"/>
<path fill="#3F2B1C" d="M449.888,369.873v-51.824h45.521v106.228h-18.036C477.373,423.989,483.387,363,449.888,369.873z"/>
<rect x="232.56" y="296" fill="#064F7D" width="262.569" height="60.702"/>
<polygon fill="#064F7D" points="232.56,296.573 276.941,182.897 360.547,225.849 361.98,326.639 232.56,321.482 "/>
<polygon fill="#064F7D" points="495.697,296.573 451.604,182.897 367.709,225.849 366.272,326.639 495.697,321.482 "/>
<path fill="#064F7D" d="M363.412,432.579c0,0,251.399-105.083,174.95-109.088c-76.452-4.013-88.763,20.616-88.763,20.616
	L363.412,432.579z"/>
<path fill="#064F7D" d="M363.696,432.579c0,0-251.396-105.083-174.946-109.088c76.449-4.013,88.763,20.616,88.763,20.616
	L363.696,432.579z"/>
<polygon fill="#064F7D" points="363.696,432.579 481.666,338.946 246.014,344.963 "/>
<polygon fill="#062943" points="234.276,326.639 363.696,385.908 363.412,350.977 232.56,296.573 232.56,323.199 "/>
<polygon fill="#062943" points="493.117,326.639 363.412,385.908 363.696,350.977 494.837,296.573 494.837,323.199 "/>
<rect x="359.979" y="350.977" fill="#062943" width="8.302" height="25.77"/>
<polygon fill="#062943" points="276.941,182.897 364.836,228.142 451.604,182.897 363.988,274.524 "/>
<polygon fill="#064F7D" points="355.11,298.289 380.02,298.289 380.02,257.632 363.988,274.524 355.11,265.362 "/>
<path fill="#062943" d="M526.336,782.483V678.541l26.63,11.738v77.025C552.966,767.305,537.211,780.755,526.336,782.483z"/>
<path fill="#062943" d="M201.061,787.349V683.406l-26.626,11.738v77.025C174.435,772.17,189.898,785.62,201.061,787.349z"/>
<polygon fill="#D6D6D6" points="287.244,624.705 318.458,708.315 276.941,748.396 "/>
<polygon fill="#FFFFFF" points="448.167,814.555 448.167,706.891 409.223,708.315 364.269,782.483 363.412,814.555 "/>
<polygon fill="#D6D6D6" points="439.861,624.705 408.654,708.315 450.171,748.396 "/>
<polygon fill="#3F2B1C" points="372.574,514.181 372.574,528.788 401.204,535.945 "/>
<polygon fill="#3F2B1C" points="355.11,514.181 355.11,528.788 326.476,535.945 "/>
</svg>
