<?xml version="1.0" encoding="utf-8"?>
<!-- Generator: Adobe Illustrator 16.0.0, SVG Export Plug-In . SVG Version: 6.00 Build 0)  -->
<!DOCTYPE svg PUBLIC "-//W3C//DTD SVG 1.1//EN" "http://www.w3.org/Graphics/SVG/1.1/DTD/svg11.dtd">
<svg version="1.1" id="Layer_2" xmlns="http://www.w3.org/2000/svg" xmlns:xlink="http://www.w3.org/1999/xlink" x="0px" y="0px"
	 width="728.5px" height="1031.812px" viewBox="0 0 728.5 1031.812" enable-background="new 0 0 728.5 1031.812"
	 xml:space="preserve">
<g id="Layer_6_2_">
	<path fill="#1AD5BB" d="M361.649,115.611c193.769,0,350.851,157.081,350.851,350.845c0,193.774-157.082,350.852-350.851,350.852
		S10.802,660.23,10.802,466.456C10.803,272.691,167.881,115.611,361.649,115.611z"/>
</g>
<g id="Layer_5_2_">
	<rect x="270.902" y="634.023" fill="#EBEBEA" width="175.566" height="174.979"/>
</g>
<g id="Layer_4_1_">
	<path fill="#0B4161" d="M195.862,747.318"/>
	<path fill="#092A43" d="M350.088,828.876"/>
	<path fill="#092A43" d="M277.719,807.228l15.42,3.256V543.273h-15.718l-132.569,56.352v142.65
		C144.853,742.572,193.785,792.101,277.719,807.228z"/>
	<path fill="#092A43" d="M444.389,807.228l-15.413,3.256V543.273h15.72l132.563,56.352v142.65
		C576.965,742.572,528.33,792.101,444.389,807.228z"/>
</g>
<rect x="292.548" y="507.086" fill="#FCD9C1" width="134.054" height="131.091"/>
<polygon fill="#F6C9AB" points="292.548,446.291 359.569,402.992 426.602,446.291 426.602,532.298 359.569,575.599 292.548,532.298 
	"/>
<g>
	<rect x="245.684" y="236.613" fill="#FCD9C1" width="228.958" height="255.94"/>
	<polygon fill="#FCD9C1" points="245.092,362.063 359.875,297.112 474.642,362.063 474.642,492.554 359.875,557.505 
		245.092,492.554 	"/>
</g>
<polygon fill="#F6C9AB" points="358.684,278.727 474.642,278.727 474.642,492.554 359.875,557.505 "/>
<path fill="#402C1E" d="M292.548,291.187c0,0,62.28,20.754,134.054,0c71.773-20.762-15.428-61.987-15.428-61.987H304.415
	C304.415,229.2,205.946,280.208,292.548,291.187z"/>
<path fill="#402C1E" d="M232.936,335.371c0,0-9.787-116.257,26.691-106.171c36.479,10.081,64.063,8.004,64.063,8.004l-61.393,44.786
	l-12.161,65.542l-18.39-2.67L232.936,335.371z"/>
<path fill="#FCD9C1" d="M217.668,388.477c-3.013-28.177,3.785-52.002,15.193-53.221c11.401-1.217,23.08,20.637,26.092,48.809
	c3.005,28.177-3.796,52-15.193,53.219C232.352,438.508,220.677,416.655,217.668,388.477z"/>
<path fill="#402C1E" d="M245.092,371.26h5.932c0,0-2.371-31.148,14.836-30.253c17.195,0.892,10.378-67.029,10.378-67.029h-30.555
	L245.092,371.26z"/>
<path fill="#402C1E" d="M484.729,335.371c0,0,9.782-116.257-26.69-106.171c-36.482,10.378-64.063,8.004-64.063,8.004l61.393,44.786
	l12.16,65.542l18.391-2.67L484.729,335.371z"/>
<path fill="#F6C9AB" d="M460.808,383.828c3.304-28.143,15.214-49.875,26.599-48.541c11.385,1.338,17.947,25.23,14.645,53.377
	c-3.299,28.141-15.209,49.873-26.594,48.539C464.062,435.87,457.505,411.967,460.808,383.828z"/>
<path fill="#402C1E" d="M476.13,371.26h-5.932c0,0,2.37-31.148-14.832-30.253c-17.203,0.892-10.383-67.029-10.383-67.029h30.253
	L476.13,371.26z"/>
<path fill="#402C1E" d="M259.627,229.2c0,0,93.125-94.016,198.411,0c105.285,94.016-198.411,24.909-198.411,24.909V229.2z"/>
<polygon fill="#402C1E" points="251.321,229.2 270.902,219.708 261.112,241.655 "/>
<polygon fill="#402C1E" points="446.175,219.708 466.34,229.2 450.328,236.613 "/>
<polygon fill="#F6C9AB" points="360.164,591.615 360.164,575.599 360.164,557.505 360.164,511.539 423.934,511.539 423.934,591.615 
	"/>
<polyline fill="#E7B795" points="426.602,532.298 425.113,522.21 360.164,557.505 360.164,575.599 426.602,532.298 "/>
<g id="Layer_3">
	<polygon fill="#0B4161" points="323.393,599.625 318.354,575.599 292.548,519.251 270.902,607.925 293.14,634.023 	"/>
	<polygon fill="#0B4161" points="393.975,602.587 399.021,578.564 425.113,522.21 446.469,610.888 424.521,636.988 	"/>
	<polygon fill="#0F4F7A" points="293.14,618.306 318.354,584.199 401.387,584.199 426.602,618.306 360.164,736.935 	"/>
</g>
<g id="Layer_2_1_">
	<path fill="#EBEBEA" d="M277.719,807.228h166.669C444.389,807.228,363.134,828.876,277.719,807.228z"/>
	<path fill="#FFFFFF" d="M292.548,519.251l-15.126,88.674l-48.639,43.893C228.489,651.816,280.685,519.845,292.548,519.251z"/>
	<path fill="#FFFFFF" d="M488.878,651.816c0,0-51.895-131.973-63.765-132.27l15.126,88.676"/>
	<path fill="#FFFFFF" d="M277.421,607.925l52.792,51.008l29.356,75.629C359.569,734.857,291.957,665.757,277.421,607.925z"/>
	<path fill="#FFFFFF" d="M360.164,734.857c0,0,67.621-68.801,82.155-126.932l-52.791,51.006"/>
	<polygon fill="#FFFFFF" points="370.249,817.605 370.249,723.884 350.088,740.199 350.088,817.605 	"/>
</g>
</svg>
